<svg xmlns="http://www.w3.org/2000/svg" width="240" height="150.7" viewBox="0 0 240 150.7"><title>Logo Wild Festival Groningen 2019</title><circle cx="61.42" cy="31.17" r="31.17"/><path d="M48.09,41.93c0-.75,0-1.9.08-3.43l.06-3.41c0-1.27,0-3.15-.09-5.66-.07-2.22-.1-4.1-.1-5.63,0-1.3.23-1.95.7-1.95A3.49,3.49,0,0,1,51.54,23a4.62,4.62,0,0,1,1,3.09,7.62,7.62,0,0,1-1.73,4.49,9.47,9.47,0,0,1,2,2.74,7.5,7.5,0,0,1,.59,3.11c0,.74,0,1.33-.07,1.77a5.82,5.82,0,0,1-.26,1.23,3.23,3.23,0,0,1-.53,1,3.81,3.81,0,0,1-.9.82,8.18,8.18,0,0,1-1.41.75l-.54.14a1.68,1.68,0,0,1-.54.13h-.06C48.42,42.31,48.09,42.19,48.09,41.93Zm2.11-12a4,4,0,0,0,.9-1.35A9.26,9.26,0,0,0,51.64,27a7.69,7.69,0,0,0,.19-1.56,2.76,2.76,0,0,0-.69-1.78,2,2,0,0,0-1.56-.84c-.47,0-.7.39-.7,1.16,0,1.21,0,2.29,0,3.25l0,3.25.08,0A1.66,1.66,0,0,0,50.2,29.94ZM51,40.7a3.83,3.83,0,0,0,1.22-1.47,4.46,4.46,0,0,0,.45-2q0-4.84-2.33-5.82a3.09,3.09,0,0,0-.7.14,2.78,2.78,0,0,1-.63.16q.14,4.41.14,9.5h.08l.08,0A2.83,2.83,0,0,0,51,40.7Z" fill="#fff"/><path d="M57,42.19a.46.46,0,0,1-.26-.47V41.2a3.43,3.43,0,0,1,0-.48v-.06l0-3.95,0-11.18c0-1.16,0-2.16-.05-3a1,1,0,0,1,.13-.54.41.41,0,0,1,.35-.21h1.68a2,2,0,0,1,.57.05c.18.05.27.21.27.46a.43.43,0,0,1-.16.35.65.65,0,0,1-.35.16h-.46l-.44,0-.43,0a.35.35,0,0,0-.26.07.39.39,0,0,0-.06.26c0,.84,0,1.61,0,2.3v5.68a.05.05,0,0,0,.06.06h.05c.45,0,.94-.06,1.46-.06.29,0,.44.13.44.38a.51.51,0,0,1-.1.37.43.43,0,0,1-.31.09H57.54c-.07,0-.11.05-.11.14l0,4c0,1.25.06,2.68.06,4.31v1h2.54c.33,0,.49.12.49.35s-.08.46-.24.52a5.39,5.39,0,0,1-1.33.1H57.86A2.34,2.34,0,0,1,57,42.19Z" fill="#fff"/><path d="M63.7,42.19a.47.47,0,0,1-.26-.47V41.2a3.43,3.43,0,0,1,0-.48v-.06l0-3.95,0-11.18c0-1.16,0-2.16,0-3a1,1,0,0,1,.13-.54.41.41,0,0,1,.36-.21h1.67a2,2,0,0,1,.57.05c.18.05.27.21.27.46a.43.43,0,0,1-.16.35.62.62,0,0,1-.35.16h-.46l-.43,0-.44,0a.33.33,0,0,0-.25.07s-.07.13-.07.26c0,.84,0,1.61,0,2.3v5.68a.05.05,0,0,0,.06.06h0c.45,0,.94-.06,1.46-.06.29,0,.44.13.44.38a.51.51,0,0,1-.1.37.43.43,0,0,1-.31.09H64.28c-.07,0-.11.05-.11.14l0,4c0,1.25.06,2.68.06,4.31v1h2.54c.33,0,.49.12.49.35s-.08.46-.24.52a5.39,5.39,0,0,1-1.33.1H64.6A2.34,2.34,0,0,1,63.7,42.19Z" fill="#fff"/><path d="M74.19,41.88l-.33-1.19c-.5-1.68-.87-3.1-1.11-4.25-.14-.63-.32-1.51-.54-2.63-.25-1.3-.49-2.35-.7-3.16l-.27.16-.36.16.06,10.42v.41c0,.36-.16.54-.49.54a.48.48,0,0,1-.35-.13.45.45,0,0,1-.14-.33v-.41L70,36l0-2.63q.11-4.74.11-8.07V21.82c0-.16.16-.24.49-.24A2.38,2.38,0,0,1,72,22a2.62,2.62,0,0,1,1,1,5.89,5.89,0,0,1,.73,2.9,7.9,7.9,0,0,1-.54,2.71c-.11.27-.24.58-.4.93a2.86,2.86,0,0,1-.44.72q.57,2.09,1.65,6.42l1.28,4.87a1.7,1.7,0,0,1,0,.3.93.93,0,0,1-.09.42.32.32,0,0,1-.29.17A.63.63,0,0,1,74.19,41.88Zm-2.6-12.32a5.66,5.66,0,0,0,.73-.86,4.45,4.45,0,0,0,.32-1.14,7.93,7.93,0,0,0,.14-1.35,7.46,7.46,0,0,0-.38-2.28,2.75,2.75,0,0,0-.57-1.09,1.11,1.11,0,0,0-.84-.42h0l-.08,0v7.64C71,30.08,71.25,29.91,71.59,29.56Z" fill="#fff"/><circle cx="120" cy="31.17" r="31.17"/><path d="M104.73,42.5v-.92a1,1,0,0,0,0-.27v-.13l-.49-3.28c-.13-.68-.21-1.18-.24-1.49-.17-1.26-.34-2.67-.52-4.22-.14-1.23-.4-3.25-.76-6.07l-.08-.62a18.62,18.62,0,0,0-.59-3.35.64.64,0,0,1,.24-.25.62.62,0,0,1,.33-.11.83.83,0,0,1,.55.14.64.64,0,0,1,.15.49v.81q.84,8.85,1.76,16.57h0c.06-.53.17-2,.33-4.31l.05-.78c.13-2.3.2-3.5.22-3.63,0-.54.16-1.34.32-2.38l.33-2.2.08-1.24c0-.22,0-.4,0-.56a2.11,2.11,0,0,1,0-.34l0-.35a.18.18,0,0,1,0-.08l.12-.11a.54.54,0,0,1,.49.19.58.58,0,0,1,.11.18,1.4,1.4,0,0,1,0,.23l.06.24q.27,1.44,1.16,7.47t1.08,8l.09.06,1-11c0-.68.15-1.76.35-3.24a32,32,0,0,0,.27-3.66l0-.27v-.24a.66.66,0,0,1,.16-.5.8.8,0,0,1,.55-.15.53.53,0,0,1,.33.13.38.38,0,0,1,.18.3.67.67,0,0,1-.3.51.29.29,0,0,1,0,.17,1.29,1.29,0,0,1,0,.33c0,.12,0,.21-.07.26q-.3,2.45-.73,7.18l-.54,5.6-.22,2.14-.32,2.73-.14,1.38a1,1,0,0,1-.09.49.42.42,0,0,1-.39.16c-.29,0-.46-.1-.52-.32a4.37,4.37,0,0,1-.11-.76l0-.41q-.66-4.15-2-14.83l-.09-.06,0,0v0L105.7,41v.49c0,.7-.15,1-.46,1Z" fill="#fff"/><path d="M115.86,42a.49.49,0,0,1-.34-.14.4.4,0,0,1-.15-.3c0-.23.15-.35.46-.35h1.06c0-2.07-.07-4.69-.19-7.85-.08-2.53-.15-4.51-.22-6l0-1.38V24.26a15,15,0,0,0-.06-1.74h-1c-.18,0-.27-.12-.27-.37a.43.43,0,0,1,.22-.38,3.19,3.19,0,0,1,1-.09h.76c.27,0,.61,0,1,0a.56.56,0,0,1,.35.1.31.31,0,0,1,.14.28.61.61,0,0,1-.08.3.28.28,0,0,1-.25.13,1.52,1.52,0,0,1-.32,0h-.6a.6.6,0,0,0-.32.05l-.06.11q0,2.11.35,8.53.33,5.93.33,8.52v.76c0,.24,0,.48,0,.73h1c.41,0,.62.13.62.38a.47.47,0,0,1-.12.31A.34.34,0,0,1,119,42h-1.46Z" fill="#fff"/><path d="M128,42.26a1,1,0,0,1-.22-.43l-.08-.52a2.85,2.85,0,0,1-.08-.4q-3-10.86-3.33-12.19-.24-1-1.11-5.41a10.6,10.6,0,0,0,0,1.11v9.8l.06,3.87,0,3.84-.16.22h-.63l-.08-.22a6.12,6.12,0,0,0,.06-1.08l0-4.71,0-4.71V25.31c0-.76,0-1.6,0-2.54a1.39,1.39,0,0,0,0-.3V22.2a.5.5,0,0,1,.18-.45,1,1,0,0,1,.55-.12.61.61,0,0,1,.37.16.79.79,0,0,1,.26.36l.56,2.65c.26,1.26.47,2.22.65,2.87q.57,2.25,2,7.36c.53,2.24,1,3.95,1.41,5.15a3.81,3.81,0,0,0,.16-1.3c0-1.76,0-3.32.06-4.71l.05-4.72c0-.77,0-1.48,0-2.11V25.26l0-3.82a.55.55,0,0,1,.57-.38c.15,0,.22.26.22.79a4.45,4.45,0,0,1,0,.57c0,.14,0,.24,0,.31s0,.1,0,.12v1.73q0,3.6,0,6.42t0,6.39c0,.45,0,1.16-.08,2.14L129,41.66c0,.53-.23.79-.7.79A.45.45,0,0,1,128,42.26Z" fill="#fff"/><path d="M133.41,42.19a.47.47,0,0,1-.25-.47V41.2a3.43,3.43,0,0,1,0-.48v-.06l0-3.95,0-11.18c0-1.16,0-2.16-.06-3a1,1,0,0,1,.14-.54.41.41,0,0,1,.35-.21h1.68a2.13,2.13,0,0,1,.57.05c.18.05.27.21.27.46a.43.43,0,0,1-.16.35.65.65,0,0,1-.35.16h-.47l-.43,0-.43,0a.35.35,0,0,0-.26.07.38.38,0,0,0-.07.26c0,.84,0,1.61,0,2.3v5.68a.05.05,0,0,0,.06.06h.05c.45,0,.94-.06,1.46-.06.29,0,.43.13.43.38a.57.57,0,0,1-.09.37.44.44,0,0,1-.31.09H134c-.08,0-.11.05-.11.14l.05,4c0,1.25.06,2.68.06,4.31v1h2.54c.32,0,.49.12.49.35s-.08.46-.25.52a5.29,5.29,0,0,1-1.32.1h-1.14A2.4,2.4,0,0,1,133.41,42.19Z" fill="#fff"/><circle cx="178.58" cy="31.17" r="31.17"/><path d="M162.53,42a3.57,3.57,0,0,1-1.19-1.35,20.35,20.35,0,0,1-.66-4.47c-.23-2.51-.34-4.38-.34-5.61V29.13q0-.63,0-1.38a25.8,25.8,0,0,1,.16-2.79,6.75,6.75,0,0,1,.29-1.16,3.94,3.94,0,0,1,.5-.95,2.88,2.88,0,0,1,1.79-1.22,5.34,5.34,0,0,1,1.38-.16,2.09,2.09,0,0,1,1,.3.84.84,0,0,1,.53.7c0,.2-.15.3-.44.3a2.45,2.45,0,0,1-.62-.19,1.69,1.69,0,0,0-.73-.19,3,3,0,0,0-1.37.31,2.59,2.59,0,0,0-1,.83,3.82,3.82,0,0,0-.51,1.19,6.66,6.66,0,0,0-.27,1.51,12.84,12.84,0,0,0-.08,1.63l0,1.51q0,.66,0,1.41c0,1.25.13,3.08.38,5.5a16,16,0,0,0,.73,4.19,2,2,0,0,0,1,.79,3.41,3.41,0,0,0,1.34.27,2.32,2.32,0,0,0,1.9-.79.67.67,0,0,1,.51-.32c.16,0,.24.13.24.38a1.29,1.29,0,0,1-.29.85,1.9,1.9,0,0,1-.82.56,4.65,4.65,0,0,1-1.89.37A2.76,2.76,0,0,1,162.53,42Z" fill="#fff"/><path d="M169.81,42a.49.49,0,0,1-.33-.14.4.4,0,0,1-.15-.3c0-.23.15-.35.46-.35h1.05q0-3.1-.19-7.85c-.07-2.53-.14-4.51-.21-6l0-1.38V24.26a15.89,15.89,0,0,0-.05-1.74h-.95c-.18,0-.27-.12-.27-.37a.41.41,0,0,1,.22-.38,3.14,3.14,0,0,1,1-.09h.76c.27,0,.61,0,1,0a.56.56,0,0,1,.35.1.31.31,0,0,1,.13.28.52.52,0,0,1-.08.3.25.25,0,0,1-.24.13,1.62,1.62,0,0,1-.33,0h-.59a.68.68,0,0,0-.33.05l-.05.11q0,2.11.35,8.53.33,5.93.33,8.52v.76c0,.24,0,.48,0,.73h1c.42,0,.63.13.63.38a.47.47,0,0,1-.12.31.36.36,0,0,1-.26.15h-1.46Z" fill="#fff"/><path d="M177.39,42c-.21-.11-.32-.23-.32-.38a1.36,1.36,0,0,1,.22-.54,1,1,0,0,0,.19-.54l-.09-2.38-.18-7.39-.06-3.28c0-2-.06-3.26-.13-3.76a3.52,3.52,0,0,0-.22-.68,2.34,2.34,0,0,1-.19-.73c0-.43.69-.65,2.06-.65h.13a3.38,3.38,0,0,1,2.39.95,6.26,6.26,0,0,1,1.4,2.3,14.3,14.3,0,0,1,.65,2.79c.07.54.14,1.37.19,2.49v.84a16.92,16.92,0,0,1-.44,3.64,17.83,17.83,0,0,1-1.26,3.67,8,8,0,0,1-1.26,2A8.94,8.94,0,0,1,179,41.7a2.28,2.28,0,0,1-1,.51A1.47,1.47,0,0,1,177.39,42Zm1.06-1.22a5.48,5.48,0,0,0,1.79-1.5,8.1,8.1,0,0,0,1.24-2.18,13.42,13.42,0,0,0,.68-2.28,21.88,21.88,0,0,0,.38-2.4c.05-.65.08-1.27.08-1.87q0-7.9-4.36-7.9c-.38,0-.57.1-.57.29,0,.64,0,1.38.11,2.25s.11,1.63.11,2.25c0,1,.07,2.71.22,5.17.12,2.13.19,3.84.19,5.14v3Z" fill="#fff"/><path d="M191.15,41.88l-.33-1.19c-.5-1.68-.87-3.1-1.11-4.25-.14-.63-.32-1.51-.54-2.63-.25-1.3-.49-2.35-.7-3.16l-.27.16-.36.16.06,10.42v.41c0,.36-.16.54-.49.54a.48.48,0,0,1-.35-.13.45.45,0,0,1-.14-.33v-.41L187,36l.05-2.63q.1-4.74.11-8.07V21.82c0-.16.16-.24.49-.24a2.35,2.35,0,0,1,1.31.38,2.62,2.62,0,0,1,1,1,5.89,5.89,0,0,1,.73,2.9,7.9,7.9,0,0,1-.54,2.71c-.11.27-.24.58-.4.93a2.86,2.86,0,0,1-.44.72q.57,2.09,1.65,6.42l1.28,4.87a1.7,1.7,0,0,1,0,.3.93.93,0,0,1-.09.42.32.32,0,0,1-.29.17A.63.63,0,0,1,191.15,41.88Zm-2.6-12.32a5.66,5.66,0,0,0,.73-.86,4.45,4.45,0,0,0,.32-1.14,7.93,7.93,0,0,0,.14-1.35,7.46,7.46,0,0,0-.38-2.28,2.75,2.75,0,0,0-.57-1.09,1.11,1.11,0,0,0-.84-.42h0l-.08,0v7.64C188,30.08,188.21,29.91,188.55,29.56Z" fill="#fff"/><path d="M195.06,42.19a.47.47,0,0,1-.26-.47V41.2a3.54,3.54,0,0,1,0-.48v-.06l0-3.95,0-11.18c0-1.16,0-2.16-.06-3a1,1,0,0,1,.14-.54.4.4,0,0,1,.35-.21h1.68a2.13,2.13,0,0,1,.57.05c.18.05.27.21.27.46a.44.44,0,0,1-.17.35.6.6,0,0,1-.35.16h-.46l-.43,0-.44,0a.33.33,0,0,0-.25.07s-.07.13-.07.26c0,.84,0,1.61,0,2.3v5.68s0,.06,0,.06h.06c.45,0,.93-.06,1.46-.06.29,0,.43.13.43.38a.57.57,0,0,1-.09.37.47.47,0,0,1-.32.09h-1.54c-.07,0-.11.05-.11.14l.06,4c0,1.25,0,2.68,0,4.31v1h2.55c.32,0,.48.12.48.35s-.08.46-.24.52a5.39,5.39,0,0,1-1.33.1H196A2.37,2.37,0,0,1,195.06,42.19Z" fill="#fff"/><path d="M6,112.62q0-3-2.62-21.75T0,70.44a2.49,2.49,0,0,1,2.22-1.52c1,0,1.88,2.19,2.72,6.59q1.2,7,2,16l.44,5.13c.25,2.87.4,4.33.44,4.37l.64-5.32.38-3.29q.83-7.23,1.07-10.2c.22-2.62.32-4.41.32-5.39v-1.2a2.1,2.1,0,0,1,.51-1.33,1.46,1.46,0,0,1,1.14-.63c1.52,0,2.28.63,2.28,1.9v.95a44.7,44.7,0,0,0,.73,7.76q.72,4.14,2.12,9.91.88,3.36,1.77,8.17Q19,100.22,20,92.17q1-7.35,1.48-12.52T22,70a3.43,3.43,0,0,1,.47-2.06,2.22,2.22,0,0,1,1.81-.6,2.1,2.1,0,0,1,1.36.47,1.51,1.51,0,0,1,.6,1.23,2.31,2.31,0,0,1-.63,1.46,94.77,94.77,0,0,1-.7,10.68q-.69,6.1-1.71,11.62t-1.71,11.56a99.34,99.34,0,0,0-.69,10.86,2.52,2.52,0,0,1-.48,1.62,1.71,1.71,0,0,1-1.42.6c-.47,0-1-.87-1.65-2.6a113.68,113.68,0,0,1-3-14.38l-1.14-7.41-.57-4.12q-.82,5.77-1.23,9.28c-.28,2.35-.54,5.12-.8,8.33s-.44,6.13-.44,9.13a1.73,1.73,0,0,1-.54,1.2,1.65,1.65,0,0,1-1.23.57C6.74,117.44,6,115.83,6,112.62Z"/><path d="M31.8,114.59c0-1,.63-1.52,1.9-1.52h.76a2.49,2.49,0,0,0,.57.06.81.81,0,0,0,.73-.32,2.18,2.18,0,0,0,.22-1.14q0-5.37-.64-14.69-.57-9.69-.57-14.63c0-1.19,0-2.26.07-3.23l.06-3.23a26,26,0,0,0-.19-3.49,4.19,4.19,0,0,1-1.46.26c-1,0-1.45-.51-1.45-1.52a1.59,1.59,0,0,1,.92-1.33A6.64,6.64,0,0,1,35.09,69a28.66,28.66,0,0,1,4.5-.44,1.87,1.87,0,0,1,1.3.5,1.6,1.6,0,0,1,.54,1.21,1.83,1.83,0,0,1-.42,1.2A1.27,1.27,0,0,1,40,72a2.9,2.9,0,0,1-.64-.06h-.5a1.27,1.27,0,0,0-.92.28,1.48,1.48,0,0,0-.29,1q0,6.7.83,18.49.77,12.36.76,18.56v2.41a9.72,9.72,0,0,1,1.27-.07c1.77,0,2.66.74,2.66,2.22v.38l-1.59,1.08-.38,0c-.21,0-.63,0-1.27,0-1.43.09-2.32.13-2.66.13Q31.8,116.49,31.8,114.59Z"/><path d="M51,116.65a1.85,1.85,0,0,1-.67-1.43,4.88,4.88,0,0,1,.26-1.39,7.65,7.65,0,0,0,.19-1.33q0-5.64-.64-21.66-.63-13.7-.63-21.6a1.12,1.12,0,0,1,.44-.92A1.73,1.73,0,0,1,51,68a1.87,1.87,0,0,1,1.33.54,1.72,1.72,0,0,1,.57,1.3q0,3.8.38,11.4.31,8.42.32,11.4l.06.76v1.52q.2,5.51.19,16.47V113h4.88c.88.63,1.33,1.26,1.33,1.89a1.81,1.81,0,0,1-.48,1.24,1.42,1.42,0,0,1-1.11.54,3.14,3.14,0,0,1-.69-.13l-.26-.06a8.47,8.47,0,0,1-1.2.06H55.23a7.52,7.52,0,0,0-1-.06,2.3,2.3,0,0,1-3.26.16Z"/><path d="M66.41,116.11a1.78,1.78,0,0,1-.92-1.58q1.4-1.4,1.4-7.42c0-2.4-.19-5.91-.57-10.51-.42-4.39-.64-7.86-.64-10.39l.13-3.48c0-1,.06-2.18.06-3.49a20.66,20.66,0,0,0-.63-4.49,18.21,18.21,0,0,1-.76-4q0-2.22,4.88-2.22h1a9.08,9.08,0,0,1,6,2.09,13.61,13.61,0,0,1,3.42,5.13,30.46,30.46,0,0,1,1.65,6.33c.25,2.37.38,4.23.38,5.58v5a1.07,1.07,0,0,0-.13.51,2.9,2.9,0,0,0,.07.76,2.8,2.8,0,0,1,.06.63,23.86,23.86,0,0,1-.6,4.85,36.6,36.6,0,0,1-1.74,5.73q-2.85,7-6.4,9.88a7,7,0,0,1-4.37,1.65A4.06,4.06,0,0,1,66.41,116.11Zm7.64-7.32a22.4,22.4,0,0,0,2.72-6.11,47,47,0,0,0,1.71-12.54,49.08,49.08,0,0,0-.63-7.48,17.19,17.19,0,0,0-3-7.09,7.68,7.68,0,0,0-2.72-2.38,8,8,0,0,0-3.74-.85v.06q0,5.7.76,17.23T69.93,107v6A13.53,13.53,0,0,0,74.05,108.79Z"/><path d="M102.49,112.56q0-7.35-.67-23.5t-1.23-17A3.09,3.09,0,0,1,102,69.3a5,5,0,0,1,1.42-.54,7.19,7.19,0,0,1,1.68-.22,12.3,12.3,0,0,1,1.59-.07,3.54,3.54,0,0,1,2.09.48,2,2,0,0,1,.63,1.68,1.18,1.18,0,0,1-.51,1,2.13,2.13,0,0,1-1.26.35L107,72h-.88c-1.19,0-1.78.23-1.78.7q0,3.28.45,8.61c.25,3,.42,5.76.5,8.42.3-.08.86-.22,1.68-.41a9,9,0,0,1,1.87-.28,1.52,1.52,0,0,1,1.2.6,2.06,2.06,0,0,1,.51,1.36,1.3,1.3,0,0,1-.82,1.27l-.6.28a3.59,3.59,0,0,1-1.24.29L106,93h-.7q0,3.8.64,10.32c.38,4.56.57,8,.57,10.33l-.07.25-.06.13a4,4,0,0,1,.06.82,1.61,1.61,0,0,1-.57,1.3,2.27,2.27,0,0,1-1.52.47Q102.49,116.61,102.49,112.56Z"/><path d="M119.27,116.61q-1.08-.31-1.08-1.77V78a19.69,19.69,0,0,0-.38-3.23,15.65,15.65,0,0,1-.44-3.23v-.19A14.38,14.38,0,0,1,119,69.11a15.33,15.33,0,0,0,2.34-.25,12.64,12.64,0,0,1,2.34-.26,3.66,3.66,0,0,1,2,.6,1.73,1.73,0,0,1,1,1.43c0,1.27-1,1.9-2.92,1.9h-.88a5.84,5.84,0,0,0-.89-.06,2.32,2.32,0,0,0-.7.06c0,1.44.09,3.17.25,5.19l.13,1.78.13,3.48c0,.8-.06,2-.19,3.67l-.13,3.55.89-.19a7.68,7.68,0,0,1,2.09-.38,1.82,1.82,0,0,1,1.27.54,1.65,1.65,0,0,1,.57,1.23,2.14,2.14,0,0,1-.48,1.37,1.45,1.45,0,0,1-1.17.6l-.76-.06H123a1.65,1.65,0,0,0-1.33.44v19.57l3.54-.19c2.41,0,3.61.55,3.61,1.65V115a2.81,2.81,0,0,1-1.39,1.24,7.18,7.18,0,0,1-2,.6l-2.09.06h-2A6,6,0,0,1,119.27,116.61Z"/><path d="M135,117.12c-.67-.38-1-.82-1-1.33a1.9,1.9,0,0,1,.38-1.23,1.29,1.29,0,0,1,1.08-.48,5.3,5.3,0,0,1,1.84.51,6.79,6.79,0,0,0,1.64.5,3,3,0,0,0,2.19-1,7.47,7.47,0,0,0,1.55-2.76,17,17,0,0,0,1.14-5.7,21,21,0,0,0-.86-5.73A32.43,32.43,0,0,0,140.68,94l-1-2c-1.06-2.12-1.87-3.78-2.44-5a27.82,27.82,0,0,1-1.49-4,19.83,19.83,0,0,1-1-5.89,11.7,11.7,0,0,1,.79-4.31A8.7,8.7,0,0,1,138,69.36a5.45,5.45,0,0,1,3.93-1.52,4.1,4.1,0,0,1,2.21.67,3.65,3.65,0,0,1,1.52,1.68l-1.07,1.33a4.06,4.06,0,0,1-2.48-.64,3.1,3.1,0,0,0-2,1.11,7,7,0,0,0-1.3,2.25,8,8,0,0,0-.38,2.41,18.83,18.83,0,0,0,.67,4.91,25.64,25.64,0,0,0,1.74,4.71l4.43,8.87a24.12,24.12,0,0,1,1.71,5.13,26.35,26.35,0,0,1,.64,5.7,16,16,0,0,1-2,7.86,8.61,8.61,0,0,1-2.79,3,6.89,6.89,0,0,1-3.8,1.1A8.7,8.7,0,0,1,135,117.12Z"/><path d="M158.07,116.08a4.38,4.38,0,0,1-.54-2.25c0-1.4.08-3.11.25-5.13l.13-1.65.13-3.36c0-1.47-.15-4.77-.45-9.88s-.44-8.4-.44-9.88c0-.13,0-.37,0-.73s0-.92,0-1.68.07-1.88.07-3.1c0-3.08-.21-5-.64-5.89a13.74,13.74,0,0,0-1.64.19l-1.78.13a2.32,2.32,0,0,1-1.45-.48,1.47,1.47,0,0,1-.64-1.23c0-.51.51-1,1.52-1.33a31.59,31.59,0,0,1,7.54-1.08c1.44-.09,2.3-.13,2.6-.13a2.17,2.17,0,0,1,1.39.51,1.58,1.58,0,0,1,.64,1.27,1.6,1.6,0,0,1-.54,1.23,2,2,0,0,1-1.37.48L161.77,72a9.58,9.58,0,0,0-1.14-.06H160a75.4,75.4,0,0,1,.44,7.79l-.06,4c0,1.23-.06,2.6-.06,4.12q0,3,.25,7.29.31,5.25.32,7.28c0,1.61.08,3.51.25,5.7s.25,4.14.25,5.7c0,2.07-.61,3.11-1.83,3.11A1.66,1.66,0,0,1,158.07,116.08Z"/><path d="M170,114.59c0-1,.63-1.52,1.9-1.52h.76a2.37,2.37,0,0,0,.57.06.79.79,0,0,0,.72-.32,2.07,2.07,0,0,0,.23-1.14q0-5.37-.64-14.69-.57-9.69-.57-14.63c0-1.19,0-2.26.07-3.23l.06-3.23a26,26,0,0,0-.19-3.49,4.24,4.24,0,0,1-1.46.26c-1,0-1.45-.51-1.45-1.52a1.59,1.59,0,0,1,.91-1.33,6.77,6.77,0,0,1,2.38-.83,28.66,28.66,0,0,1,4.5-.44A1.85,1.85,0,0,1,179,69a1.6,1.6,0,0,1,.54,1.21,1.82,1.82,0,0,1-.41,1.2,1.27,1.27,0,0,1-1,.51,2.84,2.84,0,0,1-.64-.06H177a1.25,1.25,0,0,0-.92.28,1.48,1.48,0,0,0-.29,1q0,6.7.83,18.49.75,12.36.76,18.56v2.41a9.55,9.55,0,0,1,1.26-.07c1.78,0,2.66.74,2.66,2.22v.38l-1.58,1.08-.38,0c-.21,0-.63,0-1.27,0-1.43.09-2.32.13-2.66.13Q169.95,116.49,170,114.59Z"/><path d="M193.51,116.93q-1.65-6.84-4.5-24.76Q185.85,73,185.15,69.43c.16-.81.73-1.21,1.71-1.21q1.06,0,2.66,8.11t3.23,18.5L194.46,106q1-7.61,1.58-11.4,1.2-8.74,1.77-14.48t.57-10.86A2.8,2.8,0,0,1,200.66,68l1.33.7-1,8.55q-.31,3.93-1.58,14.25l-.57,4.18c-.46,3.72-.93,7.22-1.39,10.52a76.52,76.52,0,0,1-1.78,9.94c-.25,1-.5,1.46-.76,1.46A1.78,1.78,0,0,1,193.51,116.93Z"/><path d="M218.37,116.17a1.51,1.51,0,0,1-.48-1.27v-8.29a9,9,0,0,0-3.1-1,35.79,35.79,0,0,0-4.31-.57,11,11,0,0,0-1,3.23l-.25,1.27c-.05.3-.17,1-.38,2a23.72,23.72,0,0,1-.7,2.63,9.73,9.73,0,0,1-.76,1.75c-1.61,0-2.54-.43-2.79-1.27.47-.68,1-2.66,1.58-6L208.27,97q1.38-8.24,2.56-14.06a81.33,81.33,0,0,1,2.5-9.75c1-2.92,1.9-4.37,2.79-4.37a3.42,3.42,0,0,1,2,.5q0,2.53,1.2,12.23a120.37,120.37,0,0,1,1.27,13,94.84,94.84,0,0,0,.69,9.63c.43,4.27.64,7.66.64,10.2a1.88,1.88,0,0,1-2.09,2.15A2.4,2.4,0,0,1,218.37,116.17Zm-.54-13.43c-.13-1.85-.34-4.16-.63-6.9q-1.47-14.31-1.46-17.55v-.5q-.63.63-1.74,5.73t-2.06,10.93a77,77,0,0,0-1,7.72,20.26,20.26,0,0,0,5.63.76A5.27,5.27,0,0,0,217.83,102.74Z"/><path d="M230.91,116.65a1.87,1.87,0,0,1-.66-1.43,4.82,4.82,0,0,1,.25-1.39,6.78,6.78,0,0,0,.19-1.33q0-5.64-.63-21.66-.65-13.7-.64-21.6a1.12,1.12,0,0,1,.44-.92,1.73,1.73,0,0,1,1.08-.35,1.87,1.87,0,0,1,1.33.54,1.72,1.72,0,0,1,.57,1.3q0,3.8.38,11.4.32,8.42.32,11.4l.06.76v1.52q.19,5.51.19,16.47V113h4.88c.89.63,1.33,1.26,1.33,1.89a1.84,1.84,0,0,1-.47,1.24,1.45,1.45,0,0,1-1.11.54,3.19,3.19,0,0,1-.7-.13l-.25-.06a8.73,8.73,0,0,1-1.21.06h-1.07a7.78,7.78,0,0,0-1-.06,2.3,2.3,0,0,1-3.26.16Z"/><path d="M71,146.85q-1.23-3.69-1.23-11.47c0-1.12,0-2.11.07-3a19.89,19.89,0,0,1,.48-3.38,8.37,8.37,0,0,1,.43-1.6,8.6,8.6,0,0,1,.7-1.44,4.27,4.27,0,0,1,2.18-1.91,4.59,4.59,0,0,1,1.57-.27c.68,0,1,.19,1,.58s-.17.41-.51.41a2.52,2.52,0,0,1-.48-.1l-.47-.07a2.5,2.5,0,0,0-2,.92,7.3,7.3,0,0,0-1.13,2.35,16.6,16.6,0,0,0-.51,3c-.07.62-.13,1.62-.2,3l0,2.26v1.87a35.17,35.17,0,0,0,.48,6.05,16.79,16.79,0,0,0,.8,2.83,5.12,5.12,0,0,0,1.25,1.84,2.69,2.69,0,0,0,1.84.79,3.31,3.31,0,0,0,2.9-1.71c0-.62,0-1.42-.13-2.42a10.83,10.83,0,0,0-.28-1.4c-.13-.39-.29-.58-.47-.58l-.65.07-.72.06c-.52,0-.78-.19-.78-.58,0-.18.31-.35,1-.51a6.81,6.81,0,0,1,1.61-.24.88.88,0,0,1,.8.4,1.86,1.86,0,0,1,.25,1,27.64,27.64,0,0,0,.34,3,18.29,18.29,0,0,1,.35,3c0,.36-.15.55-.45.55-.54,0-.82-.25-.82-.75l0-.11v-.06a7.1,7.1,0,0,1-3.45,1.12Q72.21,150.53,71,146.85Z"/><path d="M88.26,149.64l-.41-1.5c-.64-2.11-1.1-3.9-1.4-5.36-.18-.79-.41-1.9-.68-3.31-.32-1.64-.61-3-.89-4l-.34.21-.44.2L84.17,149v.51c0,.46-.21.68-.62.68a.57.57,0,0,1-.44-.17.53.53,0,0,1-.17-.41v-.51l.06-6.89.07-3.31q.14-6,.14-10.17v-4.41c0-.2.2-.3.61-.3a3.13,3.13,0,0,1,1.66.47,3.52,3.52,0,0,1,1.21,1.3,7.49,7.49,0,0,1,.92,3.65,10,10,0,0,1-.68,3.42q-.21.51-.51,1.17a3.41,3.41,0,0,1-.55.91q.72,2.63,2.08,8.09l1.61,6.14a1.57,1.57,0,0,1,0,.38,1.05,1.05,0,0,1-.12.52.39.39,0,0,1-.36.23A.81.81,0,0,1,88.26,149.64ZM85,134.12a6.77,6.77,0,0,0,.93-1.1,6,6,0,0,0,.41-1.43,10.27,10.27,0,0,0,.17-1.71A9.17,9.17,0,0,0,86,127a3.46,3.46,0,0,0-.72-1.39,1.42,1.42,0,0,0-1.06-.53h-.06a.14.14,0,0,1-.11,0v9.62C84.24,134.76,84.55,134.55,85,134.12Z"/><path d="M92.53,134.29v-1.37a31.4,31.4,0,0,1,.34-5,9.12,9.12,0,0,1,.56-2.19,3.47,3.47,0,0,1,1-1.36,2,2,0,0,1,1.51-.58,3.57,3.57,0,0,1,1.5.32,3.44,3.44,0,0,1,1.12.84,5.24,5.24,0,0,1,.69,1.26,11.14,11.14,0,0,1,.47,1.5l.28,1.61a76.26,76.26,0,0,1,.82,10.34v.1c0,1.14,0,2.18-.07,3.14a29.3,29.3,0,0,1-.38,3.58,7.92,7.92,0,0,1-.39,1.61,7.78,7.78,0,0,1-.67,1.36,2.21,2.21,0,0,1-2,1.23Q92.53,150.7,92.53,134.29Zm5.8,14.83a5,5,0,0,0,.68-1.76,29,29,0,0,0,.68-4.68c0-1.23.07-2.42.07-3.58V139l0-3.41c0-1.23-.18-2.82-.41-4.78a18.16,18.16,0,0,0-1.13-4.27,3.47,3.47,0,0,0-.9-1.33,1.83,1.83,0,0,0-1.21-.47,1.31,1.31,0,0,0-1,.54,4.33,4.33,0,0,0-.71,1.54,19.16,19.16,0,0,0-.69,4.23c-.07,1.11-.1,2.26-.1,3.45v1.67a49.11,49.11,0,0,0,.44,5.8,32.47,32.47,0,0,0,.69,3.86,9.75,9.75,0,0,0,1.09,2.76c.45.8,1,1.2,1.57,1.2A1.25,1.25,0,0,0,98.33,149.12Z"/><path d="M111.84,150.12a1.38,1.38,0,0,1-.27-.54l-.1-.65a3,3,0,0,1-.1-.51q-3.83-13.69-4.2-15.36c-.21-.82-.67-3.1-1.4-6.83,0,.14,0,.6,0,1.4V140l.07,4.88.07,4.84-.2.28h-.79l-.1-.28a9.12,9.12,0,0,0,.07-1.36l0-5.94-.07-5.94v-7.71q0-1.44,0-3.21a2.25,2.25,0,0,0,0-.38v-.34a.63.63,0,0,1,.22-.56,1.28,1.28,0,0,1,.7-.15.75.75,0,0,1,.46.2.86.86,0,0,1,.32.44l.72,3.35c.32,1.59.59,2.8.82,3.62q.72,2.84,2.46,9.28,1,4.23,1.77,6.48a4.6,4.6,0,0,0,.21-1.63q0-3.31.06-5.94l.07-5.94c0-1,0-1.87,0-2.66v-2.63l0-4.81a.69.69,0,0,1,.72-.48q.27,0,.27,1a6.75,6.75,0,0,1,0,.71,3.31,3.31,0,0,1,0,.4c0,.08,0,.13,0,.15v2.18q0,4.55,0,8.09t0,8.06c0,.57,0,1.47-.11,2.69l-.07,2.7c0,.66-.29,1-.88,1A.6.6,0,0,1,111.84,150.12Z"/><path d="M118.77,149.81a.57.57,0,0,1-.42-.17.47.47,0,0,1-.19-.37c0-.3.19-.44.58-.44h1.33q0-3.93-.24-9.9-.14-4.78-.27-7.51l0-1.74v-2.25a19.38,19.38,0,0,0-.07-2.19h-1.19c-.23,0-.34-.16-.34-.48a.53.53,0,0,1,.27-.47,4.24,4.24,0,0,1,1.26-.11h1c.34,0,.77,0,1.3,0a.74.74,0,0,1,.44.12.42.42,0,0,1,.17.36.69.69,0,0,1-.1.37.34.34,0,0,1-.31.17,2.37,2.37,0,0,1-.41,0h-.75c-.23,0-.37,0-.41.07l-.07.13q0,2.67.44,10.75.42,7.49.42,10.75v1a9.17,9.17,0,0,0,0,.92h1.23q.78,0,.78.48a.6.6,0,0,1-.15.39.41.41,0,0,1-.32.19h-1.85C120.31,149.83,119.61,149.81,118.77,149.81Z"/><path d="M134,150.12a1.27,1.27,0,0,1-.28-.54l-.1-.65a3,3,0,0,1-.1-.51q-3.83-13.69-4.2-15.36-.3-1.23-1.4-6.83c0,.14,0,.6,0,1.4V140l.07,4.88.06,4.84-.2.28h-.79l-.1-.28a7.89,7.89,0,0,0,.07-1.36l0-5.94-.07-5.94v-7.71c0-1,0-2,0-3.21a2.25,2.25,0,0,0,0-.38v-.34a.63.63,0,0,1,.22-.56,1.28,1.28,0,0,1,.7-.15.73.73,0,0,1,.46.2,1,1,0,0,1,.33.44l.71,3.35c.32,1.59.59,2.8.82,3.62q.72,2.84,2.46,9.28,1,4.23,1.77,6.48a4.6,4.6,0,0,0,.21-1.63q0-3.31.07-5.94l.07-5.94c0-1,0-1.87,0-2.66v-2.63l0-4.81a.68.68,0,0,1,.71-.48q.27,0,.27,1a6.75,6.75,0,0,1,0,.71,3.31,3.31,0,0,1,0,.4,1.14,1.14,0,0,0,0,.15v2.18c0,3,0,5.73,0,8.09s0,5.08,0,8.06c0,.57,0,1.47-.1,2.69l-.07,2.7c0,.66-.3,1-.89,1A.57.57,0,0,1,134,150.12Z"/><path d="M141.47,146.85q-1.23-3.69-1.23-11.47c0-1.12,0-2.11.07-3a18.87,18.87,0,0,1,.47-3.38,10.16,10.16,0,0,1,.43-1.6,8.6,8.6,0,0,1,.7-1.44,4.27,4.27,0,0,1,2.18-1.91,4.63,4.63,0,0,1,1.57-.27c.69,0,1,.19,1,.58s-.17.41-.51.41a2.52,2.52,0,0,1-.48-.1l-.48-.07a2.48,2.48,0,0,0-1.94.92,7.1,7.1,0,0,0-1.13,2.35,16.6,16.6,0,0,0-.51,3q-.1.93-.21,3l0,2.26v1.87a35.17,35.17,0,0,0,.48,6.05,15.1,15.1,0,0,0,.8,2.83,5.1,5.1,0,0,0,1.24,1.84,2.72,2.72,0,0,0,1.85.79,3.32,3.32,0,0,0,2.9-1.71c0-.62,0-1.42-.14-2.42a12.9,12.9,0,0,0-.27-1.4c-.14-.39-.3-.58-.48-.58l-.65.07-.71.06c-.53,0-.79-.19-.79-.58q0-.27,1-.51a6.74,6.74,0,0,1,1.6-.24.88.88,0,0,1,.8.4,1.86,1.86,0,0,1,.26,1,25.25,25.25,0,0,0,.34,3,18.08,18.08,0,0,1,.34,3c0,.36-.15.55-.44.55-.55,0-.82-.25-.82-.75l0-.11v-.06a7,7,0,0,1-3.45,1.12Q142.7,150.53,141.47,146.85Z"/><path d="M154,150a.6.6,0,0,1-.33-.6v-.65a5.66,5.66,0,0,1,0-.61v-.07l0-5,0-14.09c0-1.46,0-2.72-.07-3.79a1.29,1.29,0,0,1,.17-.68.52.52,0,0,1,.45-.27h2.11a3.2,3.2,0,0,1,.72.06c.23.07.34.27.34.58a.58.58,0,0,1-.2.45.91.91,0,0,1-.45.2h-.58l-.54,0-.55,0a.42.42,0,0,0-.32.09.45.45,0,0,0-.09.32q0,1.6,0,2.91V136a.06.06,0,0,0,.07.07h.07c.57,0,1.18-.07,1.84-.07.37,0,.55.16.55.48a.65.65,0,0,1-.12.46.54.54,0,0,1-.39.12h-1.95c-.09,0-.13.06-.13.17l.06,5.05c.05,1.57.07,3.38.07,5.43V149H158c.41,0,.62.15.62.45s-.11.58-.31.64a6.42,6.42,0,0,1-1.67.14h-1.44A3,3,0,0,1,154,150Z"/><path d="M168.6,150.12a1.15,1.15,0,0,1-.27-.54l-.11-.65a4.86,4.86,0,0,1-.1-.51q-3.83-13.69-4.2-15.36-.3-1.23-1.4-6.83c0,.14,0,.6,0,1.4V140l.07,4.88.07,4.84-.21.28h-.78l-.11-.28a7.89,7.89,0,0,0,.07-1.36l0-5.94-.07-5.94v-7.71q0-1.44,0-3.21a2.22,2.22,0,0,0,0-.38v-.34a.65.65,0,0,1,.22-.56,1.28,1.28,0,0,1,.7-.15.73.73,0,0,1,.46.2.89.89,0,0,1,.33.44l.72,3.35c.31,1.59.59,2.8.81,3.62q.72,2.84,2.46,9.28a65.73,65.73,0,0,0,1.78,6.48,4.9,4.9,0,0,0,.2-1.63q0-3.31.07-5.94l.07-5.94c0-1,0-1.87,0-2.66v-2.63l0-4.81a.68.68,0,0,1,.71-.48c.19,0,.28.33.28,1a4.61,4.61,0,0,1,0,.71c0,.19,0,.32,0,.4a.58.58,0,0,0,0,.15v2.18q0,4.55,0,8.09t0,8.06c0,.57,0,1.47-.1,2.69l-.07,2.7c0,.66-.3,1-.89,1A.58.58,0,0,1,168.6,150.12Z"/></svg>
