<svg xmlns="http://www.w3.org/2000/svg" width="240" height="150.7" viewBox="0 0 240 150.7"><title>logo-wild-festival-groningen-2019</title><circle cx="69.37" cy="26.94" r="26.94"/><path d="M57.84,36.25c0-.66,0-1.65.07-3L58,30.33c0-1.1,0-2.73-.07-4.89-.06-1.92-.09-3.55-.09-4.87,0-1.12.2-1.69.61-1.69a3,3,0,0,1,2.42,1,4,4,0,0,1,.85,2.67,6.54,6.54,0,0,1-1.5,3.88,8.34,8.34,0,0,1,1.75,2.37,6.59,6.59,0,0,1,.5,2.69q0,1-.06,1.53a4.85,4.85,0,0,1-.22,1.06,2.68,2.68,0,0,1-.46.89,3.2,3.2,0,0,1-.78.71,7.86,7.86,0,0,1-1.22.65l-.47.12a1.29,1.29,0,0,1-.46.11h0C58.13,36.57,57.84,36.47,57.84,36.25Zm1.83-10.37a3.45,3.45,0,0,0,.77-1.17,7.39,7.39,0,0,0,.47-1.42A6.09,6.09,0,0,0,61.07,22a2.45,2.45,0,0,0-.59-1.55,1.74,1.74,0,0,0-1.35-.72c-.4,0-.61.33-.61,1,0,1,0,2,0,2.8l0,2.81.07,0A1.39,1.39,0,0,0,59.67,25.88Zm.67,9.3a3.37,3.37,0,0,0,1-1.27,3.83,3.83,0,0,0,.39-1.71c0-2.79-.68-4.47-2-5a3.16,3.16,0,0,0-.61.11,1.76,1.76,0,0,1-.53.14q.1,3.82.11,8.22h.07l.07,0A2.48,2.48,0,0,0,60.34,35.18Z" fill="#fff"/><path d="M65.51,36.47a.41.41,0,0,1-.22-.41v-.45a2.58,2.58,0,0,1,0-.42v0l0-3.42,0-9.66c0-1,0-1.87-.05-2.6a.86.86,0,0,1,.12-.47.37.37,0,0,1,.31-.19h1.45a1.93,1.93,0,0,1,.49.05c.15.05.23.18.23.4a.36.36,0,0,1-.14.3.52.52,0,0,1-.3.14H67l-.37,0-.38,0a.37.37,0,0,0-.22.05.33.33,0,0,0-.06.23c0,.73,0,1.39,0,2v4.91a0,0,0,0,0,.05.05h0c.39,0,.81-.05,1.26-.05.25,0,.38.11.38.33a.41.41,0,0,1-.09.31.34.34,0,0,1-.27.09H66c-.06,0-.09,0-.09.11l0,3.47c0,1.07.05,2.31.05,3.72v.86h2.2c.28,0,.42.1.42.31s-.07.39-.21.44a4.63,4.63,0,0,1-1.15.09h-1A2.05,2.05,0,0,1,65.51,36.47Z" fill="#fff"/><path d="M71.33,36.47a.42.42,0,0,1-.22-.41v-.45c0-.12,0-.26,0-.42v0l0-3.42,0-9.66c0-1,0-1.87,0-2.6a.86.86,0,0,1,.12-.47.36.36,0,0,1,.3-.19h1.45a1.87,1.87,0,0,1,.49.05c.16.05.24.18.24.4a.39.39,0,0,1-.14.3.58.58,0,0,1-.31.14H72.8l-.38,0-.37,0a.35.35,0,0,0-.22.05.33.33,0,0,0-.06.23c0,.73,0,1.39,0,2v4.91a0,0,0,0,0,0,.05h0c.39,0,.82-.05,1.27-.05.25,0,.37.11.37.33a.46.46,0,0,1-.08.31.34.34,0,0,1-.27.09H71.84c-.07,0-.1,0-.1.11l.05,3.47c0,1.07,0,2.31,0,3.72v.86H74c.28,0,.42.1.42.31s-.07.39-.21.44a4.63,4.63,0,0,1-1.15.09h-1A2.08,2.08,0,0,1,71.33,36.47Z" fill="#fff"/><path d="M80.4,36.2l-.28-1c-.44-1.45-.76-2.68-1-3.67-.12-.55-.28-1.31-.47-2.27-.22-1.13-.42-2-.61-2.74l-.23.14-.3.14,0,9v.35c0,.31-.14.47-.42.47a.41.41,0,0,1-.3-.12.38.38,0,0,1-.12-.28v-.35l0-4.73,0-2.27q.1-4.09.1-7v-3q0-.21.42-.21a2.09,2.09,0,0,1,1.13.33,2.32,2.32,0,0,1,.84.89,5.1,5.1,0,0,1,.63,2.5,6.81,6.81,0,0,1-.47,2.34c-.09.23-.21.5-.35.81a2.33,2.33,0,0,1-.38.62q.49,1.8,1.43,5.54l1.1,4.22a.76.76,0,0,1,0,.25.75.75,0,0,1-.08.37.25.25,0,0,1-.24.15A.56.56,0,0,1,80.4,36.2ZM78.16,25.55a4.44,4.44,0,0,0,.63-.75,3.69,3.69,0,0,0,.28-1,6.53,6.53,0,0,0,.11-1.17,6.23,6.23,0,0,0-.32-2,2.44,2.44,0,0,0-.49-1,1,1,0,0,0-.73-.36h0l-.07,0V26C77.65,26,77.86,25.85,78.16,25.55Z" fill="#fff"/><circle cx="120" cy="26.94" r="26.94"/><path d="M106.8,36.74v-.8a.79.79,0,0,0,0-.23v-.12l-.42-2.83q-.16-.88-.21-1.29c-.14-1.09-.29-2.31-.44-3.65-.13-1.06-.35-2.81-.66-5.24L105,22a15.42,15.42,0,0,0-.51-2.9.53.53,0,0,1,.21-.21.51.51,0,0,1,.28-.09.8.8,0,0,1,.48.11.59.59,0,0,1,.13.43v.7q.72,7.65,1.52,14.32h.05c0-.45.14-1.69.28-3.72l0-.68c.11-2,.17-3,.19-3.14,0-.47.14-1.15.28-2.06l.28-1.89.07-1.08c0-.19,0-.34,0-.48a1.6,1.6,0,0,1,0-.29l0-.3a.13.13,0,0,1,0-.07.27.27,0,0,1,.11-.1.46.46,0,0,1,.42.17.29.29,0,0,1,.09.15.59.59,0,0,1,0,.2l0,.21c.16.82.49,3,1,6.46s.82,5.77.93,6.88l.07,0,.87-9.47c0-.6.13-1.53.3-2.81a27,27,0,0,0,.24-3.16l0-.24v-.21a.58.58,0,0,1,.14-.43.68.68,0,0,1,.47-.13.5.5,0,0,1,.3.12.33.33,0,0,1,.15.26.6.6,0,0,1-.26.44s0,.06,0,.14a1.5,1.5,0,0,1,0,.29c0,.11,0,.18-.06.23q-.26,2.1-.63,6.2l-.47,4.84L112,32.62,111.69,35l-.12,1.2a.83.83,0,0,1-.08.42c0,.09-.16.14-.34.14s-.39-.1-.44-.28a4,4,0,0,1-.09-.66l0-.35q-.56-3.6-1.68-12.82l-.07-.05,0,0v0L107.64,35.4v.43c0,.6-.13.91-.39.91Z" fill="#fff"/><path d="M116.42,36.32a.4.4,0,0,1-.29-.12.33.33,0,0,1-.13-.26c0-.2.13-.3.4-.3h.91q0-2.7-.17-6.79c-.06-2.18-.12-3.9-.18-5.15l0-1.19V21a14.24,14.24,0,0,0,0-1.5h-.82c-.15,0-.23-.11-.23-.33a.37.37,0,0,1,.19-.33,3.32,3.32,0,0,1,.86-.07h.66c.23,0,.53,0,.89,0a.48.48,0,0,1,.3.08.27.27,0,0,1,.12.24.46.46,0,0,1-.07.26.24.24,0,0,1-.21.12l-.28,0h-.52a.53.53,0,0,0-.28,0l0,.1q0,1.82.3,7.37.28,5.12.28,7.37V35c0,.21,0,.42,0,.63h.84q.54,0,.54.33a.4.4,0,0,1-.11.27.28.28,0,0,1-.22.13h-1.26C117.47,36.32,117,36.32,116.42,36.32Z" fill="#fff"/><path d="M126.88,36.53a.81.81,0,0,1-.19-.38l-.07-.44a1.93,1.93,0,0,1-.07-.35q-2.62-9.39-2.88-10.53-.21-.84-1-4.68c0,.09,0,.41,0,1v8.47l0,3.34,0,3.33-.14.18h-.54l-.07-.18a4.93,4.93,0,0,0,0-.94l0-4.07,0-4.07V21.88c0-.66,0-1.39,0-2.2a1.09,1.09,0,0,0,0-.26v-.23a.42.42,0,0,1,.16-.39.86.86,0,0,1,.48-.1.49.49,0,0,1,.31.14.56.56,0,0,1,.22.3l.5,2.29c.21,1.1.4,1.92.56,2.48.32,1.3.89,3.42,1.68,6.37a46,46,0,0,0,1.22,4.45,3.41,3.41,0,0,0,.14-1.13c0-1.51,0-2.87,0-4.07l0-4.07q0-1,0-1.83v-1.8l0-3.3a.46.46,0,0,1,.49-.32c.13,0,.19.22.19.67,0,.21,0,.37,0,.5s0,.21,0,.26,0,.09,0,.11v1.5c0,2.07,0,3.92,0,5.54s0,3.48,0,5.53c0,.39,0,1-.07,1.84l0,1.85c0,.46-.2.68-.61.68A.38.38,0,0,1,126.88,36.53Z" fill="#fff"/><path d="M131.59,36.47a.42.42,0,0,1-.22-.41v-.45c0-.12,0-.26,0-.42v0l0-3.42,0-9.66c0-1,0-1.87,0-2.6a.86.86,0,0,1,.12-.47.36.36,0,0,1,.3-.19h1.45a1.87,1.87,0,0,1,.49.05c.16.05.24.18.24.4a.39.39,0,0,1-.14.3.58.58,0,0,1-.31.14h-.39l-.38,0-.37,0a.22.22,0,0,0-.28.28c0,.73,0,1.39,0,2v4.91s0,.05,0,.05h0c.39,0,.81-.05,1.27-.05.25,0,.37.11.37.33a.46.46,0,0,1-.08.31.35.35,0,0,1-.27.09H132.1c-.07,0-.1,0-.1.11l.05,3.47c0,1.07,0,2.31,0,3.72v.86h2.2c.28,0,.42.1.42.31s-.07.39-.21.44a4.63,4.63,0,0,1-1.15.09h-1A2.08,2.08,0,0,1,131.59,36.47Z" fill="#fff"/><circle cx="170.63" cy="26.94" r="26.94"/><path d="M156.76,36.29a3.06,3.06,0,0,1-1-1.17,18.89,18.89,0,0,1-.57-3.86c-.19-2.17-.29-3.78-.29-4.84V25.18c0-.36,0-.76,0-1.19a21.54,21.54,0,0,1,.14-2.42,6.33,6.33,0,0,1,.25-1,3.58,3.58,0,0,1,.43-.82,2.48,2.48,0,0,1,1.55-1.05,4.42,4.42,0,0,1,1.19-.14,1.8,1.8,0,0,1,.9.25c.31.18.46.38.46.61s-.13.26-.38.26a2.05,2.05,0,0,1-.53-.16,1.57,1.57,0,0,0-.64-.17,2.56,2.56,0,0,0-1.18.27,2.23,2.23,0,0,0-.83.71,3.57,3.57,0,0,0-.44,1,6.14,6.14,0,0,0-.24,1.31,13.79,13.79,0,0,0-.07,1.41l0,1.31c0,.37,0,.78,0,1.22,0,1.07.11,2.66.33,4.75a13.91,13.91,0,0,0,.63,3.62,1.71,1.71,0,0,0,.83.68,2.87,2.87,0,0,0,1.16.24,2,2,0,0,0,1.64-.68.56.56,0,0,1,.44-.28c.14,0,.21.11.21.32a1.1,1.1,0,0,1-.26.74,1.57,1.57,0,0,1-.7.48,4,4,0,0,1-1.64.33A2.4,2.4,0,0,1,156.76,36.29Z" fill="#fff"/><path d="M163.06,36.32a.4.4,0,0,1-.29-.12.33.33,0,0,1-.13-.26q0-.3.39-.3H164q0-2.7-.17-6.79c-.06-2.18-.12-3.9-.18-5.15l0-1.19V21a14.24,14.24,0,0,0-.05-1.5h-.82c-.15,0-.23-.11-.23-.33a.37.37,0,0,1,.19-.33,3.27,3.27,0,0,1,.86-.07h.66c.23,0,.53,0,.89,0a.48.48,0,0,1,.3.08.27.27,0,0,1,.12.24.56.56,0,0,1-.07.26.24.24,0,0,1-.21.12l-.28,0h-.52a.53.53,0,0,0-.28,0l-.05.1q0,1.82.31,7.37.28,5.12.28,7.37V35c0,.21,0,.42,0,.63h.84q.54,0,.54.33a.4.4,0,0,1-.11.27.28.28,0,0,1-.22.13h-1.27C164.11,36.32,163.63,36.32,163.06,36.32Z" fill="#fff"/><path d="M169.61,36.34c-.19-.09-.28-.2-.28-.33a1.13,1.13,0,0,1,.19-.47.76.76,0,0,0,.16-.46L169.61,33l-.16-6.39,0-2.83c0-1.73-.06-2.82-.12-3.26a2.88,2.88,0,0,0-.18-.58,2.28,2.28,0,0,1-.17-.63c0-.38.59-.56,1.78-.56h.12a2.89,2.89,0,0,1,2.06.82,5.47,5.47,0,0,1,1.21,2,12.48,12.48,0,0,1,.56,2.42c.07.46.12,1.18.17,2.15v.72a14.1,14.1,0,0,1-.39,3.15,15.18,15.18,0,0,1-1.09,3.17,6.58,6.58,0,0,1-1.08,1.69A7.92,7.92,0,0,1,171,36.05a2,2,0,0,1-.82.43A1.29,1.29,0,0,1,169.61,36.34Zm.91-1.05a4.85,4.85,0,0,0,1.55-1.3,7,7,0,0,0,1.07-1.89,11.23,11.23,0,0,0,.59-2q.22-1.11.33-2.07c0-.57.07-1.1.07-1.62q0-6.82-3.77-6.83c-.33,0-.49.08-.49.26,0,.54,0,1.19.09,1.94s.09,1.41.09,1.94c0,.86.07,2.35.19,4.47.11,1.84.17,3.32.17,4.45v2.62Z" fill="#fff"/><path d="M181.5,36.2l-.28-1c-.44-1.45-.76-2.68-1-3.67-.13-.55-.28-1.31-.47-2.27-.22-1.13-.42-2-.61-2.74l-.23.14-.31.14.05,9v.35c0,.31-.14.47-.42.47a.41.41,0,0,1-.31-.12.37.37,0,0,1-.11-.28v-.35l0-4.73.05-2.27q.09-4.09.09-7v-3q0-.21.42-.21a2.1,2.1,0,0,1,1.14.33,2.3,2.3,0,0,1,.83.89,5.1,5.1,0,0,1,.63,2.5,6.58,6.58,0,0,1-.47,2.34c-.09.23-.21.5-.35.81a2.36,2.36,0,0,1-.37.62c.33,1.2.8,3.05,1.43,5.54l1.1,4.22a1.21,1.21,0,0,1,0,.25.87.87,0,0,1-.08.37.27.27,0,0,1-.25.15A.55.55,0,0,1,181.5,36.2Zm-2.25-10.65a3.65,3.65,0,0,0,.63-.75,3.69,3.69,0,0,0,.28-1,6.63,6.63,0,0,0,.12-1.17,6.25,6.25,0,0,0-.33-2,2.31,2.31,0,0,0-.49-1,1,1,0,0,0-.72-.36h-.05l-.07,0V26Q178.8,26,179.25,25.55Z" fill="#fff"/><path d="M184.88,36.47a.41.41,0,0,1-.22-.41v-.45a2.58,2.58,0,0,1,0-.42v0l0-3.42,0-9.66c0-1,0-1.87,0-2.6a.86.86,0,0,1,.11-.47.37.37,0,0,1,.31-.19h1.45a1.93,1.93,0,0,1,.49.05c.15.05.23.18.23.4a.36.36,0,0,1-.14.3.52.52,0,0,1-.3.14h-.4l-.37,0-.38,0a.37.37,0,0,0-.22.05.33.33,0,0,0-.06.23c0,.73,0,1.39,0,2v4.91a0,0,0,0,0,0,.05h.05c.39,0,.81-.05,1.26-.05.25,0,.38.11.38.33a.41.41,0,0,1-.09.31.34.34,0,0,1-.27.09h-1.33c-.06,0-.09,0-.09.11l0,3.47c0,1.07,0,2.31,0,3.72v.86h2.2c.28,0,.42.1.42.31s-.07.39-.21.44a4.63,4.63,0,0,1-1.15.09h-1A2.05,2.05,0,0,1,184.88,36.47Z" fill="#fff"/><path d="M6,109.62q0-3-2.62-21.75T0,67.44a2.49,2.49,0,0,1,2.22-1.52c1,0,1.88,2.19,2.72,6.59q1.2,7,2,16l.44,5.13c.25,2.87.4,4.33.44,4.37l.64-5.32.38-3.29q.83-7.23,1.07-10.2c.22-2.62.32-4.41.32-5.39v-1.2a2.1,2.1,0,0,1,.51-1.33,1.46,1.46,0,0,1,1.14-.63c1.52,0,2.28.63,2.28,1.9v.95a44.7,44.7,0,0,0,.73,7.76q.72,4.14,2.12,9.91.88,3.36,1.77,8.17Q19,97.22,20,89.17q1-7.35,1.48-12.52T22,67a3.43,3.43,0,0,1,.47-2.06,2.22,2.22,0,0,1,1.81-.6,2.1,2.1,0,0,1,1.36.47,1.51,1.51,0,0,1,.6,1.23,2.31,2.31,0,0,1-.63,1.46,94.77,94.77,0,0,1-.7,10.68q-.69,6.1-1.71,11.62t-1.71,11.56a99.34,99.34,0,0,0-.69,10.86,2.52,2.52,0,0,1-.48,1.62,1.71,1.71,0,0,1-1.42.6c-.47,0-1-.87-1.65-2.6a113.68,113.68,0,0,1-3-14.38l-1.14-7.41-.57-4.12q-.82,5.77-1.23,9.28c-.28,2.35-.54,5.12-.8,8.33s-.44,6.13-.44,9.13a1.73,1.73,0,0,1-.54,1.2,1.65,1.65,0,0,1-1.23.57C6.74,114.44,6,112.83,6,109.62Z"/><path d="M31.8,111.59c0-1,.63-1.52,1.9-1.52h.76a2.49,2.49,0,0,0,.57.06.81.81,0,0,0,.73-.32,2.18,2.18,0,0,0,.22-1.14q0-5.37-.64-14.69-.57-9.69-.57-14.63c0-1.19,0-2.26.07-3.23l.06-3.23a26,26,0,0,0-.19-3.49,4.19,4.19,0,0,1-1.46.26c-1,0-1.45-.51-1.45-1.52a1.59,1.59,0,0,1,.92-1.33A6.64,6.64,0,0,1,35.09,66a28.66,28.66,0,0,1,4.5-.44,1.87,1.87,0,0,1,1.3.5,1.6,1.6,0,0,1,.54,1.21,1.83,1.83,0,0,1-.42,1.2A1.27,1.27,0,0,1,40,69a2.9,2.9,0,0,1-.64-.06h-.5a1.27,1.27,0,0,0-.92.28,1.48,1.48,0,0,0-.29,1q0,6.7.83,18.49.77,12.36.76,18.56v2.41a9.72,9.72,0,0,1,1.27-.07c1.77,0,2.66.74,2.66,2.22v.38l-1.59,1.08-.38,0c-.21,0-.63,0-1.27,0-1.43.09-2.32.13-2.66.13Q31.8,113.49,31.8,111.59Z"/><path d="M51,113.65a1.85,1.85,0,0,1-.67-1.43,4.88,4.88,0,0,1,.26-1.39,7.65,7.65,0,0,0,.19-1.33q0-5.64-.64-21.66-.63-13.7-.63-21.6a1.12,1.12,0,0,1,.44-.92A1.73,1.73,0,0,1,51,65a1.87,1.87,0,0,1,1.33.54,1.72,1.72,0,0,1,.57,1.3q0,3.8.38,11.4.31,8.42.32,11.4l.06.76v1.52q.2,5.51.19,16.47V110h4.88c.88.63,1.33,1.26,1.33,1.89a1.81,1.81,0,0,1-.48,1.24,1.42,1.42,0,0,1-1.11.54,3.14,3.14,0,0,1-.69-.13l-.26-.06a8.47,8.47,0,0,1-1.2.06H55.23a7.52,7.52,0,0,0-1-.06,2.3,2.3,0,0,1-3.26.16Z"/><path d="M66.41,113.11a1.78,1.78,0,0,1-.92-1.58q1.4-1.4,1.4-7.42c0-2.4-.19-5.91-.57-10.51-.42-4.39-.64-7.86-.64-10.39l.13-3.48c0-1,.06-2.18.06-3.49a20.66,20.66,0,0,0-.63-4.49,18.21,18.21,0,0,1-.76-4q0-2.22,4.88-2.22h1a9.08,9.08,0,0,1,6,2.09,13.61,13.61,0,0,1,3.42,5.13,30.46,30.46,0,0,1,1.65,6.33c.25,2.37.38,4.23.38,5.58v5a1.07,1.07,0,0,0-.13.51,2.9,2.9,0,0,0,.07.76,2.8,2.8,0,0,1,.06.63,23.86,23.86,0,0,1-.6,4.85,36.6,36.6,0,0,1-1.74,5.73q-2.85,7-6.4,9.88a7,7,0,0,1-4.37,1.65A4.06,4.06,0,0,1,66.41,113.11Zm7.64-7.32a22.4,22.4,0,0,0,2.72-6.11,47,47,0,0,0,1.71-12.54,49.08,49.08,0,0,0-.63-7.48,17.19,17.19,0,0,0-3-7.09,7.68,7.68,0,0,0-2.72-2.38,8,8,0,0,0-3.74-.85v.06q0,5.7.76,17.23T69.93,104v6A13.53,13.53,0,0,0,74.05,105.79Z"/><path d="M102.49,109.56q0-7.35-.67-23.5t-1.23-17A3.09,3.09,0,0,1,102,66.3a5,5,0,0,1,1.42-.54,7.19,7.19,0,0,1,1.68-.22,12.3,12.3,0,0,1,1.59-.07,3.54,3.54,0,0,1,2.09.48,2,2,0,0,1,.63,1.68,1.18,1.18,0,0,1-.51,1,2.13,2.13,0,0,1-1.26.35L107,69h-.88c-1.19,0-1.78.23-1.78.7q0,3.28.45,8.61c.25,3,.42,5.76.5,8.42.3-.08.86-.22,1.68-.41a9,9,0,0,1,1.87-.28,1.52,1.52,0,0,1,1.2.6,2.06,2.06,0,0,1,.51,1.36,1.3,1.3,0,0,1-.82,1.27l-.6.28a3.59,3.59,0,0,1-1.24.29L106,90h-.7q0,3.8.64,10.32c.38,4.56.57,8,.57,10.33l-.07.25-.06.13a4,4,0,0,1,.06.82,1.61,1.61,0,0,1-.57,1.3,2.27,2.27,0,0,1-1.52.47Q102.49,113.61,102.49,109.56Z"/><path d="M119.27,113.61q-1.08-.31-1.08-1.77V75a19.69,19.69,0,0,0-.38-3.23,15.65,15.65,0,0,1-.44-3.23v-.19A14.38,14.38,0,0,1,119,66.11a15.33,15.33,0,0,0,2.34-.25,12.64,12.64,0,0,1,2.34-.26,3.66,3.66,0,0,1,2,.6,1.73,1.73,0,0,1,1,1.43c0,1.27-1,1.9-2.92,1.9h-.88a5.84,5.84,0,0,0-.89-.06,2.32,2.32,0,0,0-.7.06c0,1.44.09,3.17.25,5.19l.13,1.78.13,3.48c0,.8-.06,2-.19,3.67l-.13,3.55.89-.19a7.68,7.68,0,0,1,2.09-.38,1.82,1.82,0,0,1,1.27.54,1.65,1.65,0,0,1,.57,1.23,2.14,2.14,0,0,1-.48,1.37,1.45,1.45,0,0,1-1.17.6l-.76-.06H123a1.65,1.65,0,0,0-1.33.44v19.57l3.54-.19c2.41,0,3.61.55,3.61,1.65V112a2.81,2.81,0,0,1-1.39,1.24,7.18,7.18,0,0,1-2,.6l-2.09.06h-2A6,6,0,0,1,119.27,113.61Z"/><path d="M135,114.12c-.67-.38-1-.82-1-1.33a1.9,1.9,0,0,1,.38-1.23,1.29,1.29,0,0,1,1.08-.48,5.3,5.3,0,0,1,1.84.51,6.79,6.79,0,0,0,1.64.5,3,3,0,0,0,2.19-1,7.47,7.47,0,0,0,1.55-2.76,17,17,0,0,0,1.14-5.7,21,21,0,0,0-.86-5.73A32.43,32.43,0,0,0,140.68,91l-1-2c-1.06-2.12-1.87-3.78-2.44-5a27.82,27.82,0,0,1-1.49-4,19.83,19.83,0,0,1-1-5.89,11.7,11.7,0,0,1,.79-4.31A8.7,8.7,0,0,1,138,66.36a5.45,5.45,0,0,1,3.93-1.52,4.1,4.1,0,0,1,2.21.67,3.65,3.65,0,0,1,1.52,1.68l-1.07,1.33a4.06,4.06,0,0,1-2.48-.64,3.1,3.1,0,0,0-2,1.11,7,7,0,0,0-1.3,2.25,8,8,0,0,0-.38,2.41,18.83,18.83,0,0,0,.67,4.91,25.64,25.64,0,0,0,1.74,4.71l4.43,8.87A24.12,24.12,0,0,1,147,97.27a26.35,26.35,0,0,1,.64,5.7,16,16,0,0,1-2,7.86,8.61,8.61,0,0,1-2.79,3,6.89,6.89,0,0,1-3.8,1.1A8.7,8.7,0,0,1,135,114.12Z"/><path d="M158.07,113.08a4.38,4.38,0,0,1-.54-2.25c0-1.4.08-3.11.25-5.13l.13-1.65.13-3.36c0-1.47-.15-4.77-.45-9.88s-.44-8.4-.44-9.88c0-.13,0-.37,0-.73s0-.92,0-1.68.07-1.88.07-3.1c0-3.08-.21-5-.64-5.89a13.74,13.74,0,0,0-1.64.19l-1.78.13a2.32,2.32,0,0,1-1.45-.48,1.47,1.47,0,0,1-.64-1.23c0-.51.51-1,1.52-1.33a31.59,31.59,0,0,1,7.54-1.08c1.44-.09,2.3-.13,2.6-.13a2.17,2.17,0,0,1,1.39.51,1.58,1.58,0,0,1,.64,1.27,1.6,1.6,0,0,1-.54,1.23,2,2,0,0,1-1.37.48L161.77,69a9.58,9.58,0,0,0-1.14-.06H160a75.4,75.4,0,0,1,.44,7.79l-.06,4c0,1.23-.06,2.6-.06,4.12q0,3,.25,7.29.31,5.25.32,7.28c0,1.61.08,3.51.25,5.7s.25,4.14.25,5.7c0,2.07-.61,3.11-1.83,3.11A1.66,1.66,0,0,1,158.07,113.08Z"/><path d="M170,111.59c0-1,.63-1.52,1.9-1.52h.76a2.37,2.37,0,0,0,.57.06.79.79,0,0,0,.72-.32,2.07,2.07,0,0,0,.23-1.14q0-5.37-.64-14.69-.57-9.69-.57-14.63c0-1.19,0-2.26.07-3.23l.06-3.23a26,26,0,0,0-.19-3.49,4.24,4.24,0,0,1-1.46.26c-1,0-1.45-.51-1.45-1.52a1.59,1.59,0,0,1,.91-1.33,6.77,6.77,0,0,1,2.38-.83,28.66,28.66,0,0,1,4.5-.44A1.85,1.85,0,0,1,179,66a1.6,1.6,0,0,1,.54,1.21,1.82,1.82,0,0,1-.41,1.2,1.27,1.27,0,0,1-1,.51,2.84,2.84,0,0,1-.64-.06H177a1.25,1.25,0,0,0-.92.28,1.48,1.48,0,0,0-.29,1q0,6.7.83,18.49.75,12.36.76,18.56v2.41a9.55,9.55,0,0,1,1.26-.07c1.78,0,2.66.74,2.66,2.22v.38l-1.58,1.08-.38,0c-.21,0-.63,0-1.27,0-1.43.09-2.32.13-2.66.13Q169.95,113.49,170,111.59Z"/><path d="M193.51,113.93q-1.65-6.84-4.5-24.76Q185.85,70,185.15,66.43c.16-.81.73-1.21,1.71-1.21q1.06,0,2.66,8.11t3.23,18.5L194.46,103q1-7.61,1.58-11.4,1.2-8.74,1.77-14.48t.57-10.86A2.8,2.8,0,0,1,200.66,65l1.33.7-1,8.55q-.31,3.93-1.58,14.25l-.57,4.18c-.46,3.72-.93,7.22-1.39,10.52a76.52,76.52,0,0,1-1.78,9.94c-.25,1-.5,1.46-.76,1.46A1.78,1.78,0,0,1,193.51,113.93Z"/><path d="M218.37,113.17a1.51,1.51,0,0,1-.48-1.27v-8.29a9,9,0,0,0-3.1-1,35.79,35.79,0,0,0-4.31-.57,11,11,0,0,0-1,3.23l-.25,1.27c-.05.3-.17,1-.38,2a23.72,23.72,0,0,1-.7,2.63,9.73,9.73,0,0,1-.76,1.75c-1.61,0-2.54-.43-2.79-1.27.47-.68,1-2.66,1.58-6L208.27,94q1.38-8.24,2.56-14.06a81.33,81.33,0,0,1,2.5-9.75c1-2.92,1.9-4.37,2.79-4.37a3.42,3.42,0,0,1,2,.5q0,2.53,1.2,12.23a120.37,120.37,0,0,1,1.27,13,94.84,94.84,0,0,0,.69,9.63c.43,4.27.64,7.66.64,10.2a1.88,1.88,0,0,1-2.09,2.15A2.4,2.4,0,0,1,218.37,113.17Zm-.54-13.43c-.13-1.85-.34-4.16-.63-6.9q-1.47-14.31-1.46-17.55v-.5q-.63.63-1.74,5.73t-2.06,10.93a77,77,0,0,0-1,7.72,20.26,20.26,0,0,0,5.63.76A5.27,5.27,0,0,0,217.83,99.74Z"/><path d="M230.91,113.65a1.87,1.87,0,0,1-.66-1.43,4.82,4.82,0,0,1,.25-1.39,6.78,6.78,0,0,0,.19-1.33q0-5.64-.63-21.66-.65-13.7-.64-21.6a1.12,1.12,0,0,1,.44-.92,1.73,1.73,0,0,1,1.08-.35,1.87,1.87,0,0,1,1.33.54,1.72,1.72,0,0,1,.57,1.3q0,3.8.38,11.4.32,8.42.32,11.4l.06.76v1.52q.19,5.51.19,16.47V110h4.88c.89.63,1.33,1.26,1.33,1.89a1.84,1.84,0,0,1-.47,1.24,1.45,1.45,0,0,1-1.11.54,3.19,3.19,0,0,1-.7-.13l-.25-.06a8.73,8.73,0,0,1-1.21.06h-1.07a7.78,7.78,0,0,0-1-.06,2.3,2.3,0,0,1-3.26.16Z"/><path d="M71,146.85q-1.23-3.69-1.23-11.47c0-1.12,0-2.11.07-3a19.89,19.89,0,0,1,.48-3.38,8.37,8.37,0,0,1,.43-1.6,8.6,8.6,0,0,1,.7-1.44,4.27,4.27,0,0,1,2.18-1.91,4.59,4.59,0,0,1,1.57-.27c.68,0,1,.19,1,.58s-.17.41-.51.41a2.52,2.52,0,0,1-.48-.1l-.47-.07a2.5,2.5,0,0,0-2,.92,7.3,7.3,0,0,0-1.13,2.35,16.6,16.6,0,0,0-.51,3c-.07.62-.13,1.62-.2,3l0,2.26v1.87a35.17,35.17,0,0,0,.48,6.05,16.79,16.79,0,0,0,.8,2.83,5.12,5.12,0,0,0,1.25,1.84,2.69,2.69,0,0,0,1.84.79,3.31,3.31,0,0,0,2.9-1.71c0-.62,0-1.42-.13-2.42a10.83,10.83,0,0,0-.28-1.4c-.13-.39-.29-.58-.47-.58l-.65.07-.72.06c-.52,0-.78-.19-.78-.58,0-.18.31-.35,1-.51a6.81,6.81,0,0,1,1.61-.24.88.88,0,0,1,.8.4,1.86,1.86,0,0,1,.25,1,27.64,27.64,0,0,0,.34,3,18.29,18.29,0,0,1,.35,3c0,.36-.15.55-.45.55-.54,0-.82-.25-.82-.75l0-.11v-.06a7.1,7.1,0,0,1-3.45,1.12Q72.21,150.53,71,146.85Z"/><path d="M88.26,149.64l-.41-1.5c-.64-2.11-1.1-3.9-1.4-5.36-.18-.79-.41-1.9-.68-3.31-.32-1.64-.61-3-.89-4l-.34.21-.44.2L84.17,149v.51c0,.46-.21.68-.62.68a.57.57,0,0,1-.44-.17.53.53,0,0,1-.17-.41v-.51l.06-6.89.07-3.31q.14-6,.14-10.17v-4.41c0-.2.2-.3.61-.3a3.13,3.13,0,0,1,1.66.47,3.52,3.52,0,0,1,1.21,1.3,7.49,7.49,0,0,1,.92,3.65,10,10,0,0,1-.68,3.42q-.21.51-.51,1.17a3.41,3.41,0,0,1-.55.91q.72,2.63,2.08,8.09l1.61,6.14a1.57,1.57,0,0,1,0,.38,1.05,1.05,0,0,1-.12.52.39.39,0,0,1-.36.23A.81.81,0,0,1,88.26,149.64ZM85,134.12a6.77,6.77,0,0,0,.93-1.1,6,6,0,0,0,.41-1.43,10.27,10.27,0,0,0,.17-1.71A9.17,9.17,0,0,0,86,127a3.46,3.46,0,0,0-.72-1.39,1.42,1.42,0,0,0-1.06-.53h-.06a.14.14,0,0,1-.11,0v9.62C84.24,134.76,84.55,134.55,85,134.12Z"/><path d="M92.53,134.29v-1.37a31.4,31.4,0,0,1,.34-5,9.12,9.12,0,0,1,.56-2.19,3.47,3.47,0,0,1,1-1.36,2,2,0,0,1,1.51-.58,3.57,3.57,0,0,1,1.5.32,3.44,3.44,0,0,1,1.12.84,5.24,5.24,0,0,1,.69,1.26,11.14,11.14,0,0,1,.47,1.5l.28,1.61a76.26,76.26,0,0,1,.82,10.34v.1c0,1.14,0,2.18-.07,3.14a29.3,29.3,0,0,1-.38,3.58,7.92,7.92,0,0,1-.39,1.61,7.78,7.78,0,0,1-.67,1.36,2.21,2.21,0,0,1-2,1.23Q92.53,150.7,92.53,134.29Zm5.8,14.83a5,5,0,0,0,.68-1.76,29,29,0,0,0,.68-4.68c0-1.23.07-2.42.07-3.58V139l0-3.41c0-1.23-.18-2.82-.41-4.78a18.16,18.16,0,0,0-1.13-4.27,3.47,3.47,0,0,0-.9-1.33,1.83,1.83,0,0,0-1.21-.47,1.31,1.31,0,0,0-1,.54,4.33,4.33,0,0,0-.71,1.54,19.16,19.16,0,0,0-.69,4.23c-.07,1.11-.1,2.26-.1,3.45v1.67a49.11,49.11,0,0,0,.44,5.8,32.47,32.47,0,0,0,.69,3.86,9.75,9.75,0,0,0,1.09,2.76c.45.8,1,1.2,1.57,1.2A1.25,1.25,0,0,0,98.33,149.12Z"/><path d="M111.84,150.12a1.38,1.38,0,0,1-.27-.54l-.1-.65a3,3,0,0,1-.1-.51q-3.83-13.69-4.2-15.36c-.21-.82-.67-3.1-1.4-6.83,0,.14,0,.6,0,1.4V140l.07,4.88.07,4.84-.2.28h-.79l-.1-.28a9.12,9.12,0,0,0,.07-1.36l0-5.94-.07-5.94v-7.71q0-1.44,0-3.21a2.25,2.25,0,0,0,0-.38v-.34a.63.63,0,0,1,.22-.56,1.28,1.28,0,0,1,.7-.15.75.75,0,0,1,.46.2.86.86,0,0,1,.32.44l.72,3.35c.32,1.59.59,2.8.82,3.62q.72,2.84,2.46,9.28,1,4.23,1.77,6.48a4.6,4.6,0,0,0,.21-1.63q0-3.31.06-5.94l.07-5.94c0-1,0-1.87,0-2.66v-2.63l0-4.81a.69.69,0,0,1,.72-.48q.27,0,.27,1a6.75,6.75,0,0,1,0,.71,3.31,3.31,0,0,1,0,.4c0,.08,0,.13,0,.15v2.18q0,4.55,0,8.09t0,8.06c0,.57,0,1.47-.11,2.69l-.07,2.7c0,.66-.29,1-.88,1A.6.6,0,0,1,111.84,150.12Z"/><path d="M118.77,149.81a.57.57,0,0,1-.42-.17.47.47,0,0,1-.19-.37c0-.3.19-.44.58-.44h1.33q0-3.93-.24-9.9-.14-4.78-.27-7.51l0-1.74v-2.25a19.38,19.38,0,0,0-.07-2.19h-1.19c-.23,0-.34-.16-.34-.48a.53.53,0,0,1,.27-.47,4.24,4.24,0,0,1,1.26-.11h1c.34,0,.77,0,1.3,0a.74.74,0,0,1,.44.12.42.42,0,0,1,.17.36.69.69,0,0,1-.1.37.34.34,0,0,1-.31.17,2.37,2.37,0,0,1-.41,0h-.75c-.23,0-.37,0-.41.07l-.07.13q0,2.67.44,10.75.42,7.49.42,10.75v1a9.17,9.17,0,0,0,0,.92h1.23q.78,0,.78.48a.6.6,0,0,1-.15.39.41.41,0,0,1-.32.19h-1.85C120.31,149.83,119.61,149.81,118.77,149.81Z"/><path d="M134,150.12a1.27,1.27,0,0,1-.28-.54l-.1-.65a3,3,0,0,1-.1-.51q-3.83-13.69-4.2-15.36-.3-1.23-1.4-6.83c0,.14,0,.6,0,1.4V140l.07,4.88.06,4.84-.2.28h-.79l-.1-.28a7.89,7.89,0,0,0,.07-1.36l0-5.94-.07-5.94v-7.71c0-1,0-2,0-3.21a2.25,2.25,0,0,0,0-.38v-.34a.63.63,0,0,1,.22-.56,1.28,1.28,0,0,1,.7-.15.73.73,0,0,1,.46.2,1,1,0,0,1,.33.44l.71,3.35c.32,1.59.59,2.8.82,3.62q.72,2.84,2.46,9.28,1,4.23,1.77,6.48a4.6,4.6,0,0,0,.21-1.63q0-3.31.07-5.94l.07-5.94c0-1,0-1.87,0-2.66v-2.63l0-4.81a.68.68,0,0,1,.71-.48q.27,0,.27,1a6.75,6.75,0,0,1,0,.71,3.31,3.31,0,0,1,0,.4,1.14,1.14,0,0,0,0,.15v2.18c0,3,0,5.73,0,8.09s0,5.08,0,8.06c0,.57,0,1.47-.1,2.69l-.07,2.7c0,.66-.3,1-.89,1A.57.57,0,0,1,134,150.12Z"/><path d="M141.47,146.85q-1.23-3.69-1.23-11.47c0-1.12,0-2.11.07-3a18.87,18.87,0,0,1,.47-3.38,10.16,10.16,0,0,1,.43-1.6,8.6,8.6,0,0,1,.7-1.44,4.27,4.27,0,0,1,2.18-1.91,4.63,4.63,0,0,1,1.57-.27c.69,0,1,.19,1,.58s-.17.41-.51.41a2.52,2.52,0,0,1-.48-.1l-.48-.07a2.48,2.48,0,0,0-1.94.92,7.1,7.1,0,0,0-1.13,2.35,16.6,16.6,0,0,0-.51,3q-.1.93-.21,3l0,2.26v1.87a35.17,35.17,0,0,0,.48,6.05,15.1,15.1,0,0,0,.8,2.83,5.1,5.1,0,0,0,1.24,1.84,2.72,2.72,0,0,0,1.85.79,3.32,3.32,0,0,0,2.9-1.71c0-.62,0-1.42-.14-2.42a12.9,12.9,0,0,0-.27-1.4c-.14-.39-.3-.58-.48-.58l-.65.07-.71.06c-.53,0-.79-.19-.79-.58q0-.27,1-.51a6.74,6.74,0,0,1,1.6-.24.88.88,0,0,1,.8.4,1.86,1.86,0,0,1,.26,1,25.25,25.25,0,0,0,.34,3,18.08,18.08,0,0,1,.34,3c0,.36-.15.55-.44.55-.55,0-.82-.25-.82-.75l0-.11v-.06a7,7,0,0,1-3.45,1.12Q142.7,150.53,141.47,146.85Z"/><path d="M154,150a.6.6,0,0,1-.33-.6v-.65a5.66,5.66,0,0,1,0-.61v-.07l0-5,0-14.09c0-1.46,0-2.72-.07-3.79a1.29,1.29,0,0,1,.17-.68.52.52,0,0,1,.45-.27h2.11a3.2,3.2,0,0,1,.72.06c.23.07.34.27.34.58a.58.58,0,0,1-.2.45.91.91,0,0,1-.45.2h-.58l-.54,0-.55,0a.42.42,0,0,0-.32.09.45.45,0,0,0-.09.32q0,1.6,0,2.91V136a.06.06,0,0,0,.07.07h.07c.57,0,1.18-.07,1.84-.07.37,0,.55.16.55.48a.65.65,0,0,1-.12.46.54.54,0,0,1-.39.12h-1.95c-.09,0-.13.06-.13.17l.06,5.05c.05,1.57.07,3.38.07,5.43V149H158c.41,0,.62.15.62.45s-.11.58-.31.64a6.42,6.42,0,0,1-1.67.14h-1.44A3,3,0,0,1,154,150Z"/><path d="M168.6,150.12a1.15,1.15,0,0,1-.27-.54l-.11-.65a4.86,4.86,0,0,1-.1-.51q-3.83-13.69-4.2-15.36-.3-1.23-1.4-6.83c0,.14,0,.6,0,1.4V140l.07,4.88.07,4.84-.21.28h-.78l-.11-.28a7.89,7.89,0,0,0,.07-1.36l0-5.94-.07-5.94v-7.71q0-1.44,0-3.21a2.22,2.22,0,0,0,0-.38v-.34a.65.65,0,0,1,.22-.56,1.28,1.28,0,0,1,.7-.15.73.73,0,0,1,.46.2.89.89,0,0,1,.33.44l.72,3.35c.31,1.59.59,2.8.81,3.62q.72,2.84,2.46,9.28a65.73,65.73,0,0,0,1.78,6.48,4.9,4.9,0,0,0,.2-1.63q0-3.31.07-5.94l.07-5.94c0-1,0-1.87,0-2.66v-2.63l0-4.81a.68.68,0,0,1,.71-.48c.19,0,.28.33.28,1a4.61,4.61,0,0,1,0,.71c0,.19,0,.32,0,.4a.58.58,0,0,0,0,.15v2.18q0,4.55,0,8.09t0,8.06c0,.57,0,1.47-.1,2.69l-.07,2.7c0,.66-.3,1-.89,1A.58.58,0,0,1,168.6,150.12Z"/></svg>
