<svg xmlns="http://www.w3.org/2000/svg" width="30.8" height="30.8" viewBox="0 0 30.8 30.8"><circle cx="15.4" cy="15.4" r="15.4" fill="#fff"/><path d="M4.3,24.2a4.87,4.87,0,0,0,.4,1.1,6.47,6.47,0,0,0,.8.9,9.57,9.57,0,0,1-.8-4.4A16,16,0,0,1,5,19.5c.1,1.4-.1,2.8.5,4.2l.3-1.4H6c-.1,1.5-.1,3,1.2,4.3a6.47,6.47,0,0,1-.1-2.4,9,9,0,0,1,.8-2.1c-.3,1.5-.7,3.1.2,4.5A7.25,7.25,0,0,0,11,28.9l.2-.1-.6-1.4.1-.1a3.92,3.92,0,0,1,.8,1,3.25,3.25,0,0,0,1.3,1.3c.4.2.5.5.2.8a.44.44,0,0,1-.5.1c-1.2-.6-2.3-1.2-3.5-1.9A4,4,0,0,0,6.8,28a3.46,3.46,0,0,1-2.6-.9c.8.2,1.5.6,2.4.1-1.9-.2-2.3-1.4-2.5-2.9Z" transform="translate(0 -9.6)" fill="#303030"/><path d="M26,19.4a11.14,11.14,0,0,1-.6,6.5c.9-.4.9-1.3,1.3-2a3.31,3.31,0,0,1-1.6,3A8.71,8.71,0,0,0,23.3,28a10.56,10.56,0,0,1-3.5,1.8c-.4.1-.9.3-1.2.4-.5.2-.7-.1-.8-.4-.1-.1.3-.3.4-.5l.6-.3a3.24,3.24,0,0,0,2-1.8.78.78,0,0,1,.4-.4l-.6,1.8a4.88,4.88,0,0,0,.7-.3,4.74,4.74,0,0,0,1.6-2.1,1.41,1.41,0,0,0-.1-.9,12.66,12.66,0,0,1-.6-1.8l.9,1.4a2.08,2.08,0,0,0,.5-2c.5,1,.2,2.2.3,3.2,1.2-1.1,1.2-2.6,1.3-4.1l.3,1.3A15.38,15.38,0,0,0,26,19.4Z" transform="translate(0 -9.6)" fill="#303030"/></svg>
