<svg xmlns="http://www.w3.org/2000/svg" width="30.8" height="15.18" viewBox="0 0 30.8 15.18"><path d="M.27,14.32a7.29,7.29,0,0,0,.55,1.5,9.05,9.05,0,0,0,1.09,1.23,13,13,0,0,1-1.09-6,22,22,0,0,1,.41-3.13c.13,1.9-.14,3.81.68,5.72l.41-1.91h.27c-.14,2-.14,4.09,1.64,5.86a8.78,8.78,0,0,1-.14-3.27,12.23,12.23,0,0,1,1.09-2.86c-.41,2-.95,4.22.27,6.13a10,10,0,0,0,4,3.14l.28-.14-.82-1.91L9,18.55a5.53,5.53,0,0,1,1.09,1.36,4.37,4.37,0,0,0,1.77,1.77c.54.27.68.68.27,1.09a.62.62,0,0,1-.68.14c-1.64-.82-3.14-1.64-4.77-2.59a5.39,5.39,0,0,0-3-.82A4.71,4.71,0,0,1,.14,18.27c1.09.28,2,.82,3.27.14C.82,18.14.27,16.5,0,14.46Z" transform="translate(0 -7.78)" fill="#fff"/><path d="M29.84,7.78A15.18,15.18,0,0,1,29,16.64c1.22-.55,1.22-1.77,1.77-2.73A4.53,4.53,0,0,1,28.62,18a11.91,11.91,0,0,0-2.46,1.5A14.32,14.32,0,0,1,21.39,22c-.54.14-1.22.41-1.63.55-.68.27-1-.14-1.09-.55-.14-.13.41-.41.54-.68l.82-.41a4.42,4.42,0,0,0,2.73-2.45,1.07,1.07,0,0,1,.54-.55l-.82,2.46a6.76,6.76,0,0,0,1-.41,6.48,6.48,0,0,0,2.18-2.86,1.92,1.92,0,0,0-.14-1.23,19.57,19.57,0,0,1-.82-2.45l1.23,1.9a2.83,2.83,0,0,0,.68-2.72c.68,1.36.27,3,.41,4.36,1.64-1.5,1.64-3.54,1.77-5.59l.41,1.77A21.13,21.13,0,0,0,29.84,7.78Z" transform="translate(0 -7.78)" fill="#fff"/></svg>
