<svg xmlns="http://www.w3.org/2000/svg" width="240" height="49.29" viewBox="0 0 240 49.29"><path d="M129.36,99.7h.21q.1,0,.21.21-.78,15.3-1,21.1c-.15.85-.31,1.27-.49,1.27h-.14c-.25,0-.69-1.17-1.34-3.52a57.78,57.78,0,0,1-1.83-6.54h-.07c-.37,5.44-.56,8.94-.56,10.48l-.21.14h-.21c-.19,0-.38-.79-.56-2.39q-1.56-7.28-3.1-18.85a4.22,4.22,0,0,1-.28-1c0-.07.09-.16.28-.28h.28c.21,0,.47,1.34.78,4Q122.6,112.68,123,115l.7,3.8h.07c.39-6.19.64-9.45.77-9.77l.35-.08c.24,0,.45.92.64,2.75q.33,1.71,1.83,6.54l.63,2.25.14-.07q.42-12.61,1-20.54Z" transform="translate(-120 -73.64)"/><path d="M136,98.92h.14c.33,0,.49,1.25.49,3.73v.92q0,1.37-.42,7.1a2.22,2.22,0,0,0,.07.57c-.05,2.45-.07,4.39-.07,5.84v4.57a4.62,4.62,0,0,0,.14.7c-.06.33-.15.49-.28.49h-.28c-.19,0-.28-.63-.28-1.9q0-12.19.42-16.81v-2a18.84,18.84,0,0,0-.21-3C135.69,99.14,135.78,99,136,98.92Z" transform="translate(-120 -73.64)"/><path d="M142.58,97.59h.07c.07,0,.17.09.28.28s0,.35-.14.35l.07.14q.49,7.67.5,13a40.74,40.74,0,0,1,.21,4.71v6.12h3.8q.1,0,.21.21v.21c0,.19-.4.28-1.2.28h-3.23c-.07,0-.17-.09-.29-.28v-.42c0-.33,0-.49.07-.49l-.07-.85v-5.13q-.27-9.27-.56-15.41l-.21-2.32A.46.46,0,0,1,142.58,97.59Z" transform="translate(-120 -73.64)"/><path d="M152,97.66H152a7.43,7.43,0,0,1,4.29,3.59,21.17,21.17,0,0,1,2.25,9.42V111a14.26,14.26,0,0,1-5,11.25,3.44,3.44,0,0,1-.84.21c-.13,0-.22-.37-.28-1.12l.07-.14a44.62,44.62,0,0,1-.28-4.58h.07l-.07-.14v-.07c0-1.85,0-3.54.07-5.06Zm.77,1v.07q.08,7.95.28,12.53c0,1.25-.07,2.54-.07,3.87V116c0,1.78.1,3.66.28,5.63a15.71,15.71,0,0,0,3-3.66,16.52,16.52,0,0,0,1.62-6.75v-.71a20.93,20.93,0,0,0-2.18-9A6.68,6.68,0,0,0,152.73,98.71Z" transform="translate(-120 -73.64)"/><path d="M172.68,99c1.92.09,3.32.14,4.22.14l.14.21c0,.33-.14.49-.43.49-1.2,0-2.54-.07-4-.07l.36,8.8v.07l.07.84a17.11,17.11,0,0,1,2.11-.14H177q.14,0,.21.42l-.35.28h-2c-1.18,0-1.76.1-1.76.28v.78c0,.68,0,3.49.14,8.44v.77l.07.43a.07.07,0,0,1-.07.07l.07.7v.77q0,.1-.21.21h-.21c-.07,0-.17-.09-.29-.28q-.25-14.77-.42-14.77h.07l-.07-.14q-.28-5.52-.28-8.09A1.29,1.29,0,0,1,172.68,99Z" transform="translate(-120 -73.64)"/><path d="M184.42,98.59l.14.07c.05,0,.07,0,.07-.07,1.51.14,2.26.31,2.26.49v.07c-.09.24-.2.36-.36.36l-2-.22-1.4.07.07.85c0,.76.11,3.86.35,9.28H184a4.52,4.52,0,0,0,.92-.07c1.05.1,1.83.15,2.32.15l.21.28v.21c0,.14-.1.21-.28.21-.41,0-1.09,0-2-.14-.64.05-1.18.07-1.62.07v.28q0,5,.49,11.47c.05,0,.07,0,.07.07,1.77-.1,2.83-.14,3.17-.14a.62.62,0,0,1,.42.35v.07c0,.07-.09.16-.28.28-1.78,0-2.86.09-3.24.14-.56,0-.84-.3-.84-.91q-.5-6.72-.49-11.19v-2.25q-.36-6.2-.36-8.37c-.14-.71-.21-1.08-.21-1.13l.28-.21h.78A11.18,11.18,0,0,0,184.42,98.59Z" transform="translate(-120 -73.64)"/><path d="M195.56,99.08l.21.27v.12c0,.06-.12.17-.35.33h-.71a2.56,2.56,0,0,0-2.53,1.39,9.74,9.74,0,0,0-.56,3.42,12.27,12.27,0,0,0,1,3.76,26,26,0,0,0,3.8,3.82,8.74,8.74,0,0,1,1.76,5,9.25,9.25,0,0,1-.84,3.82,3.51,3.51,0,0,1-2.12,1.51,2.24,2.24,0,0,1-1,.33.47.47,0,0,1-.49-.26v-.19c0-.13.26-.22.77-.27,1.55-.58,2.32-1.2,2.32-1.84a7.41,7.41,0,0,0,.64-3.29,7.63,7.63,0,0,0-2.4-5.21,12.93,12.93,0,0,1-2.81-2.76A9.4,9.4,0,0,1,191,105.4a7.14,7.14,0,0,0-.07-.92,9.08,9.08,0,0,1,.85-4C192.4,99.55,193.67,99.08,195.56,99.08Z" transform="translate(-120 -73.64)"/><path d="M208.48,99.94l.21.25v.18c0,.2-.65.3-2,.3h-2q-.1,0-.21.24l.14,3.22c0,.29-.07.46-.07.49q.64,10.65.64,15.25a.53.53,0,0,1,.07.2.29.29,0,0,0-.07.17l.07.42c-.07.17-.14.25-.21.25h-.29s-.14-.08-.28-.25,0-.3.07-.67q0-1.5-.63-15.19c0-1.49,0-2.84-.14-4.06l-.14-.07h-.21l-2.25.19a.77.77,0,0,1-.21-.55c0-.07.09-.15.28-.24a4.79,4.79,0,0,0,.56.12c.9-.08,1.54-.12,1.9-.12h2.88A12.71,12.71,0,0,0,208.48,99.94Z" transform="translate(-120 -73.64)"/><path d="M214.16,98.92h.14c.33,0,.5,1.25.5,3.73v.92q0,1.37-.43,7.1a2.24,2.24,0,0,0,.08.57c0,2.45-.08,4.39-.08,5.84v4.57a4,4,0,0,0,.15.7c-.06.33-.16.49-.29.49H214c-.18,0-.28-.63-.28-1.9q0-12.19.42-16.81v-2a18.84,18.84,0,0,0-.21-3C213.88,99.14,214,99,214.16,98.92Z" transform="translate(-120 -73.64)"/><path d="M225.84,98.64h.28c.07,0,.14.1.21.28l-2.11,18.86a28.71,28.71,0,0,1-.42,5l-.14.07h-.21c-.22,0-.48-1.33-.77-4a125.47,125.47,0,0,1-1.83-18.57l-.21-.91c0-.07.09-.17.28-.28h.14c.42,0,.63,1.82.63,5.48q.9,10.07,1.69,14.71h.07q0-1.45,2-18.22Q225.56,98.64,225.84,98.64Z" transform="translate(-120 -73.64)"/><path d="M233.63,98.84h.07a4,4,0,0,1,1.71,2.48,75.74,75.74,0,0,1,2.88,15.46,27.65,27.65,0,0,1,.62,5.36c-.06.15-.22.23-.48.23a36.22,36.22,0,0,1-.84-5.59c-.11-.37-.34-1.92-.7-4.66l-.55-.07c-2.53.23-3.8.49-3.8.77v2.73l-.47,6.52a.91.91,0,0,1,.16.46c0,.08-.11.19-.32.31-.41,0-.62-.25-.62-.77q.56-7.42.55-8.93c-.05-.65-.07-1.3-.07-2a79,79,0,0,1,.84-10.71C232.84,99.38,233.18,98.84,233.63,98.84Zm0,.93a41.76,41.76,0,0,0-1,10.18,8.5,8.5,0,0,0-.07,1.71v.23a16,16,0,0,1,4.28-.62v-.09q0-2.15-2.34-10.16C234.14,100.28,233.86,99.86,233.63,99.77Z" transform="translate(-120 -73.64)"/><path d="M244.91,97.59H245c.07,0,.16.09.28.28s0,.35-.14.35l.07.14q.5,7.67.49,13a40.74,40.74,0,0,1,.21,4.71v6.12h3.8q.1,0,.21.21v.21c0,.19-.4.28-1.19.28h-3.24c-.07,0-.16-.09-.28-.28v-.42c0-.33,0-.49.07-.49l-.07-.85v-5.13q-.28-9.27-.56-15.41l-.22-2.32A.48.48,0,0,1,244.91,97.59Z" transform="translate(-120 -73.64)"/><path d="M267,99.77h.14a2.55,2.55,0,0,1,2.11,1v.14c0,.08-.09.17-.28.29a3.56,3.56,0,0,1-.91-.5,2.38,2.38,0,0,0-1-.21h-.28q-2.12.51-2.11,12a21.15,21.15,0,0,0,1.27,8.3,2.87,2.87,0,0,0,1.61,1.34h.29c.84-.16,1.26-.52,1.26-1,.17,0,.4-1.41.71-4.23v-3.44l-.07-.35s-.07,0-.07.07c-1.88-.14-2.82-.29-2.82-.43l-.07-.35v-.07q0-.11.21-.21h.21a13.26,13.26,0,0,0,3,.42,2.08,2.08,0,0,1,.28,1.34v1.76a11.18,11.18,0,0,1-.07,1.12.55.55,0,0,1,.07.21q-.48,5.56-1.62,5.56c0,.1-.35.21-1.05.35h-.29a3.76,3.76,0,0,1-2-1.33q-1.55-2.94-1.54-9.08,0-11.58,2.32-12.59Z" transform="translate(-120 -73.64)"/><path d="M276.37,96.88h.14a2.35,2.35,0,0,0,1.27.43,4.48,4.48,0,0,1,2.18,2,12.71,12.71,0,0,1,1.19,4.29v.7q0,4.61-2.67,6.68c2.07.5,3.26,2.94,3.59,7.32v2.67c0,.4,0,1,.07,1.76l-.21.14h-.21l-.28-.21c-.05-.93-.07-1.64-.07-2.11V118a10.76,10.76,0,0,0-1.62-5.42,3.16,3.16,0,0,0-2-1h-.07c0,1,.07,1.76.07,2.25v2.67c.09,2.32.14,3.64.14,3.94v.14a.45.45,0,0,1-.42.28c-.07,0-.19-.09-.35-.28l.07-.49c-.1-2-.15-3.29-.15-3.94v-4.22a.43.43,0,0,1-.42-.28v-.21c.1-.19.21-.28.35-.28q-.35-9.66-.91-14Zm.56,1c.29,3.42.54,7.67.78,12.73q2.75-1.86,2.74-6v-1a10.56,10.56,0,0,0-1.55-4.72,3.3,3.3,0,0,0-1.75-1Z" transform="translate(-120 -73.64)"/><path d="M289.74,98.71q2,0,3.16,9.5c.05.6.07,1.37.07,2.32v.28a3.43,3.43,0,0,1-.07.64,1,1,0,0,1,.07.49V112a1,1,0,0,1-.07.49,3.88,3.88,0,0,1,.07.42q0,7.42-2,9.15a3.34,3.34,0,0,1-1,.28h-.49q-2.54-.61-3.17-6.54l-.21-2.89q0-9.9,2.46-13.71A2.06,2.06,0,0,1,289.74,98.71Zm-3,14a20.76,20.76,0,0,0,1.06,7c.66,1.31,1.24,2,1.76,2h.07c.95,0,1.56-.66,1.83-2q.76-1.83.77-7.81v-1.41a36.06,36.06,0,0,0-1.48-9.49,3.72,3.72,0,0,0-1.05-1.55,1.56,1.56,0,0,0-1,.77Q286.78,104.36,286.78,112.71Z" transform="translate(-120 -73.64)"/><path d="M297.92,98.56c.25,0,1.32,3.19,3.18,9.58q.4,2.27,3.41,11.4h.2v-.6q-.4-8.55-.41-9.6c0-.21,0-.93.09-2.15,0-.14,0-.41,0-.83.09-.92.14-1.66.14-2.21v-5c0-.27.17-.4.39-.4l.4.21q-.19,4-.19,6v2q0,6.12.39,15.79l-.39.19q-.41,0-5-15.58L298.27,101l-.14-.23,0,.39c.08,1,.12,1.76.12,2.32l0,.6c-.09,2.6-.14,4.42-.14,5.47a114.84,114.84,0,0,0,.6,13h-.41a.34.34,0,0,1-.38-.39c-.27-4.09-.41-7.76-.41-11V99C297.56,98.69,297.69,98.56,297.92,98.56Z" transform="translate(-120 -73.64)"/><path d="M311.11,98.92h.14c.33,0,.49,1.25.49,3.73v.92q0,1.37-.42,7.1a2.22,2.22,0,0,0,.07.57c-.05,2.45-.07,4.39-.07,5.84v4.57a3.57,3.57,0,0,0,.14.7c-.06.33-.15.49-.28.49h-.28c-.19,0-.28-.63-.28-1.9q0-12.19.42-16.81v-2a18.84,18.84,0,0,0-.21-3C310.83,99.14,310.92,99,311.11,98.92Z" transform="translate(-120 -73.64)"/><path d="M317.4,98.56q.39,0,3.19,9.58.41,2.27,3.41,11.4h.19v-.6q-.4-8.55-.4-9.6c0-.21,0-.93.09-2.15a8.05,8.05,0,0,1,0-.83c.09-.92.14-1.66.14-2.21v-5c0-.27.16-.4.39-.4l.4.21q-.19,4-.19,6v2q0,6.12.38,15.79l-.38.19q-.41,0-5-15.58L317.75,101l-.14-.23v.39c.08,1,.12,1.76.12,2.32l0,.6c-.1,2.6-.14,4.42-.14,5.47a117.59,117.59,0,0,0,.59,13h-.4a.34.34,0,0,1-.39-.39c-.27-4.09-.4-7.76-.4-11V99C317.05,98.69,317.18,98.56,317.4,98.56Z" transform="translate(-120 -73.64)"/><path d="M332.76,99.77h.14a2.56,2.56,0,0,1,2.11,1v.14c0,.08-.1.17-.28.29a3.53,3.53,0,0,1-.92-.5,2.3,2.3,0,0,0-1-.21h-.28q-2.12.51-2.11,12a21.37,21.37,0,0,0,1.26,8.3,2.86,2.86,0,0,0,1.62,1.34h.28c.85-.16,1.27-.52,1.27-1,.16,0,.4-1.41.7-4.23v-3.44l-.07-.35c-.05,0-.07,0-.07.07-1.88-.14-2.81-.29-2.81-.43l-.07-.35v-.07q0-.11.21-.21H333a13.11,13.11,0,0,0,3,.42,2.08,2.08,0,0,1,.28,1.34v1.76a11.18,11.18,0,0,1-.07,1.12.55.55,0,0,1,.07.21q-.47,5.56-1.61,5.56c0,.1-.35.21-1.06.35h-.28a3.76,3.76,0,0,1-2-1.33q-1.54-2.94-1.55-9.08,0-11.58,2.32-12.59Z" transform="translate(-120 -73.64)"/><path d="M344.79,98.59l.14.07a.06.06,0,0,0,.07-.07c1.5.14,2.25.31,2.25.49v.07c-.08.24-.2.36-.35.36l-2-.22-1.41.07.07.85c0,.76.12,3.86.35,9.28h.49a4.45,4.45,0,0,0,.92-.07c1.05.1,1.83.15,2.32.15l.21.28v.21c0,.14-.09.21-.28.21-.41,0-1.09,0-2-.14-.63.05-1.17.07-1.62.07v.28c0,3.31.17,7.13.49,11.47.05,0,.08,0,.08.07,1.77-.1,2.82-.14,3.16-.14a.62.62,0,0,1,.42.35v.07c0,.07-.09.16-.28.28-1.78,0-2.86.09-3.23.14-.57,0-.85-.3-.85-.91q-.5-6.72-.49-11.19v-2.25c-.24-4.13-.35-6.92-.35-8.37-.14-.71-.21-1.08-.21-1.13l.28-.21h.77C343.93,98.66,344.31,98.64,344.79,98.59Z" transform="translate(-120 -73.64)"/><path d="M352.42,98.56q.39,0,3.18,9.58.4,2.27,3.42,11.4h.19v-.6q-.4-8.55-.41-9.6c0-.21,0-.93.09-2.15,0-.14,0-.41,0-.83a21.55,21.55,0,0,0,.15-2.21v-5c0-.27.16-.4.38-.4l.41.21q-.19,4-.2,6v2q0,6.12.39,15.79l-.39.19q-.41,0-5-15.58L352.77,101l-.14-.23,0,.39c.09,1,.13,1.76.13,2.32v.6c-.09,2.6-.14,4.42-.14,5.47a114.84,114.84,0,0,0,.6,13h-.4a.34.34,0,0,1-.39-.39c-.27-4.09-.4-7.76-.4-11V99C352.06,98.69,352.2,98.56,352.42,98.56Z" transform="translate(-120 -73.64)"/><path d="M219.06,82.59a10.78,10.78,0,0,0,.65,2,5.71,5.71,0,0,0,1.49,1.58A20.87,20.87,0,0,1,219.69,78a25.47,25.47,0,0,1,.52-4.14c.19,2.55-.08,5.15.88,7.75l.52-2.69h.26c-.16,2.85-.17,5.66,2.22,8a27.93,27.93,0,0,1,0-4.42,13.72,13.72,0,0,1,1.47-3.8c-.51,2.83-1.34,5.67.42,8.31a14.1,14.1,0,0,0,5.39,4.34l.27-.17-1.05-2.54.1-.1a14.47,14.47,0,0,1,1.49,1.76,5.69,5.69,0,0,0,2.51,2.44c.73.32.84.86.33,1.43a1,1,0,0,1-.87.24c-2.15-1.15-4.31-2.29-6.38-3.57a7,7,0,0,0-4.1-1.29,6.61,6.61,0,0,1-4.78-1.71c1.5.3,2.83,1.19,4.41.24-3.43-.28-4.26-2.61-4.64-5.29Z" transform="translate(-120 -73.64)"/><path d="M259.31,73.64c1.09,4.12.18,8.06-1.23,12.09,1.53-.79,1.54-2.42,2.39-3.61a6.14,6.14,0,0,1-3.07,5.54,18.75,18.75,0,0,0-3.26,2A19.71,19.71,0,0,1,247.77,93a19,19,0,0,0-2.29.83c-.84.4-1.26-.1-1.48-.72-.06-.17.46-.64.79-.86a5,5,0,0,1,1.22-.5,6.07,6.07,0,0,0,3.75-3.22,1.61,1.61,0,0,1,.71-.76L249.42,91a12.24,12.24,0,0,0,1.3-.63,7.16,7.16,0,0,0,2.92-3.94,2.89,2.89,0,0,0-.24-1.63,22.36,22.36,0,0,1-1.09-3.33L253.84,84a3.8,3.8,0,0,0,.88-3.74c1,1.92.41,4,.64,6,2.29-2.1,2.24-4.85,2.42-7.61l.5,2.51A32.11,32.11,0,0,0,259.31,73.64Z" transform="translate(-120 -73.64)"/></svg>
