<?xml version="1.0" encoding="utf-8"?>
<!-- Generator: Adobe Illustrator 24.1.0, SVG Export Plug-In . SVG Version: 6.00 Build 0)  -->
<svg version="1.1" id="Layer_1" xmlns="http://www.w3.org/2000/svg" xmlns:xlink="http://www.w3.org/1999/xlink" x="0px" y="0px"
	 viewBox="0 0 30.8 50" style="enable-background:new 0 0 30.8 50;" xml:space="preserve">
<style type="text/css">
	.st0{fill:#FFFFFF;}
	.st1{fill:#303030;}
</style>
<circle class="st0" cx="15.4" cy="25" r="15.4"/>
<g>
	<path class="st1" d="M4.3,24.2c0.1,0.4,0.2,0.7,0.4,1.1c0.2,0.3,0.5,0.6,0.8,0.9c-0.6-1.4-0.9-2.9-0.8-4.4C4.8,21,4.8,20.2,5,19.5
		c0.1,1.4-0.1,2.8,0.5,4.2l0.3-1.4h0.2c-0.1,1.5-0.1,3,1.2,4.3C7,25.8,7,25,7.1,24.2c0.2-0.7,0.4-1.4,0.8-2.1
		c-0.3,1.5-0.7,3.1,0.2,4.5c0.7,1,1.8,1.8,2.9,2.3l0.2-0.1l-0.6-1.4l0.1-0.1c0.3,0.3,0.6,0.6,0.8,1c0.3,0.6,0.8,1,1.3,1.3
		c0.4,0.2,0.5,0.5,0.2,0.8c-0.1,0.1-0.3,0.2-0.5,0.1c-1.2-0.6-2.3-1.2-3.5-1.9C8.4,28.2,7.6,28,6.8,28c-1,0.1-1.9-0.3-2.6-0.9
		c0.8,0.2,1.5,0.6,2.4,0.1c-1.9-0.2-2.3-1.4-2.5-2.9L4.3,24.2z"/>
	<path class="st1" d="M26,19.4c0.6,2.2,0.1,4.4-0.6,6.5c0.9-0.4,0.9-1.3,1.3-2c0.1,1.2-0.6,2.4-1.6,3c-0.6,0.3-1.2,0.6-1.8,1.1
		c-1,0.8-2.2,1.4-3.5,1.8c-0.4,0.1-0.9,0.3-1.2,0.4c-0.5,0.2-0.7-0.1-0.8-0.4c-0.1-0.1,0.3-0.3,0.4-0.5c0.2-0.1,0.4-0.2,0.6-0.3
		c0.9-0.3,1.6-0.9,2-1.8c0.1-0.2,0.2-0.3,0.4-0.4l-0.6,1.8c0.3-0.1,0.5-0.2,0.7-0.3c0.7-0.5,1.3-1.3,1.6-2.1c0.1-0.3,0-0.6-0.1-0.9
		c-0.3-0.6-0.4-1.2-0.6-1.8l0.9,1.4c0.5-0.5,0.7-1.3,0.5-2c0.5,1,0.2,2.2,0.3,3.2c1.2-1.1,1.2-2.6,1.3-4.1l0.3,1.3
		C25.8,22.2,26,20.8,26,19.4z"/>
</g>
</svg>
