<svg xmlns="http://www.w3.org/2000/svg" width="612.2" height="125.9" viewBox="0 0 612.2 125.9"><path d="M23.9,66.6h.5c.3,0,.3.3.5.5-1.3,25.9-2.3,44-2.5,53.8-.3,2-.8,3.3-1.3,3.3h-.3c-.8,0-1.8-3-3.5-9.1-1.8-5.5-3.5-11.1-4.8-16.6h0c-1,13.8-1.5,22.9-1.5,26.7l-.5.3H10q-.75,0-1.5-6C6,107.1,3.3,91,.8,71.4c-.3-.8-.5-1.8-.8-2.5,0-.3.3-.5.8-.8h.8c.5,0,1.3,3.5,2,10.3,2.3,14.3,3.5,23.4,4.3,27.2l1.8,9.8H10c1-15.8,1.5-24.1,2-24.9l.8-.3c.5,0,1.3,2.3,1.5,7,.5,3,2,8.5,4.8,16.6l1.5,5.8.3-.3c.8-21.4,1.5-39,2.5-52.3Z" fill="#fff"/><path d="M40.7,64.6H41c.8,0,1.3,3.3,1.3,9.6v2.3c0,2.3-.3,8.3-1,18.1a2.7,2.7,0,0,0,.3,1.5c-.3,6.3-.3,11.3-.3,14.8v11.6c0,.5.3,1.3.3,1.8-.3.8-.5,1.3-.8,1.3h-.5c-.5,0-.8-1.5-.8-4.8,0-20.6.3-34.9,1-42.7v-5c0-2.5-.3-5-.5-7.5C40,65.1,40.2,64.9,40.7,64.6Z" fill="#fff"/><path d="M57.6,61.1h0c.3,0,.5.3,1,.8.3.5,0,1-.3,1l.3.3c.8,13.1,1.3,24.1,1.3,33.2a97.15,97.15,0,0,1,.5,12.1V124h9.8c.3,0,.3.3.5.5v.5c0,.5-1,.8-3,.8H59.4c-.3,0-.5-.3-.8-.8v-1c0-.8,0-1.3.3-1.3l-.3-2.3V107.3c-.5-15.8-1-28.9-1.5-39.2l-.5-6C56.3,61.6,57.1,61.1,57.6,61.1Z" fill="#fff"/><path d="M81.7,61.4h0a20,20,0,0,1,11.1,9.1,52.87,52.87,0,0,1,5.8,24.1v.8a35.87,35.87,0,0,1-12.8,28.7,6.35,6.35,0,0,1-2.3.5c-.3,0-.5-1-.8-2.8l.3-.3a90.44,90.44,0,0,1-.8-11.6h.3l-.3-.3v-.5c0-4.8,0-9.1.3-12.8Zm1.8,2.5h0c.3,13.6.3,24.4.8,32.2,0,3.3-.3,6.5-.3,9.8v2.3c0,4.5.3,9.3.8,14.3a39.3,39.3,0,0,0,7.5-9.3,40.82,40.82,0,0,0,4-17.1v-2a51.84,51.84,0,0,0-5.5-22.9,16.61,16.61,0,0,0-7.3-7.3Z" fill="#fff"/><path d="M134.3,64.9c4.8.3,8.5.3,10.8.3l.3.5c0,.8-.3,1.3-1,1.3-3,0-6.5-.3-10.3-.3l1,22.4v.3l.3,2.3a31.42,31.42,0,0,1,5.3-.3h4.8c.3,0,.5.3.5,1l-1,.8h-5c-3,0-4.5.3-4.5.8v2c0,1.8,0,8.8.3,21.6v1.8l.3,1a.29.29,0,0,1-.3.3h0l.3,1.8v2c0,.3-.3.3-.5.5h-.5c-.3,0-.5-.3-.8-.8-.5-25.1-.8-37.7-1-37.7h.3L133,86c-.5-9.3-.8-16.3-.8-20.6C133,64.9,133.8,64.6,134.3,64.9Z" fill="#fff"/><path d="M164.2,63.6l.3.3c.3,0,.3,0,.3-.3,3.8.3,5.8.8,5.8,1.3v.3c-.3.5-.5,1-1,1l-5-.5h-3.5l.3,2.3c0,2,.3,9.8,1,23.6h1.3a6.08,6.08,0,0,0,2.3-.3c2.8.3,4.8.5,6,.5l.5.8V93c0,.3-.3.5-.8.5a35.58,35.58,0,0,1-5-.3,20.34,20.34,0,0,1-4,.3V94c0,8.5.5,18.4,1.3,29.2.3,0,.3,0,.3.3,4.5-.3,7.3-.3,8-.3.5,0,.8.5,1,1h0c0,.3-.3.5-.8.8-4.5,0-7.3.3-8.3.3a2.06,2.06,0,0,1-2.3-2.3c-.8-11.3-1.3-20.9-1.3-28.4V88.8c-.5-10.6-1-17.6-1-21.4-.3-1.8-.5-2.8-.5-2.8l.8-.5h2C162.4,63.9,163.4,63.9,164.2,63.6Z" fill="#fff"/><path d="M192.6,64.9l.5.8V66c0,.3-.3.5-1,.8h-1.8a6.69,6.69,0,0,0-6.5,3.5,26.25,26.25,0,0,0-1.5,8.8,35.78,35.78,0,0,0,2.5,9.6,60.54,60.54,0,0,0,9.8,9.8,21.09,21.09,0,0,1,2.2,22.6,8.86,8.86,0,0,1-5.5,3.8,5.21,5.21,0,0,1-2.5.8,1.56,1.56,0,0,1-1.3-.8v-.5c0-.3.8-.5,2-.8,4-1.5,6-3,6-4.8a14.87,14.87,0,0,0,1.5-8.3,20.74,20.74,0,0,0-6-13.3,31,31,0,0,1-7-7,23.57,23.57,0,0,1-3.3-9.3,6.08,6.08,0,0,0-.3-2.3,24.91,24.91,0,0,1,2.3-10.3C184.6,66.1,187.8,64.9,192.6,64.9Z" fill="#fff"/><path d="M225.5,67.1l.5.8v.5c0,.5-1.8.8-5,.8h-5c-.3,0-.3.3-.5.5l.3,8.3a2.71,2.71,0,0,1-.3,1.3c1,18.1,1.5,31.2,1.5,39,0,.3.3.3.3.5,0,0-.3.3-.3.5l.3,1c-.3.5-.3.8-.5.8h-.5l-.8-.8c-.3-.5,0-.8.3-1.8,0-2.5-.5-15.3-1.5-38.7,0-3.8,0-7.3-.3-10.3l-.3-.3h-.5l-5.8.5a3,3,0,0,1-.5-1.5c0-.3.3-.5.8-.5a2.7,2.7,0,0,0,1.5.3,35.41,35.41,0,0,1,4.8-.3h7.3A38.47,38.47,0,0,0,225.5,67.1Z" fill="#fff"/><path d="M240.1,64.6h.3c.8,0,1.3,3.3,1.3,9.6v2.3c0,2.3-.3,8.3-1,18.1a2.7,2.7,0,0,0,.3,1.5c0,6.3-.3,11.3-.3,14.8v11.6a6.07,6.07,0,0,0,.5,1.8c-.3.8-.5,1.3-.8,1.3h-.5c-.5,0-.8-1.5-.8-4.8,0-20.6.3-34.9,1-42.7v-5c0-2.5-.3-5-.5-7.5C239.4,65.1,239.6,64.9,240.1,64.6Z" fill="#fff"/><path d="M270,63.9h.8c.3,0,.3.3.5.8l-5.3,48a78.86,78.86,0,0,1-1,12.8l-.3.3h-.5c-.5,0-1.3-3.3-2-10.3a325.4,325.4,0,0,1-4.8-47.3l-.5-2.3c0-.3.3-.5.8-.8h.3c1,0,1.5,4.5,1.5,14.1,1.5,17.1,3,29.7,4.3,37.5h.3c0-2.5,1.8-17.9,5-46.5C269,65.9,269.5,63.9,270,63.9Z" fill="#fff"/><path d="M289.9,64.4h0a9.45,9.45,0,0,1,4.5,6.3,188.44,188.44,0,0,1,7.3,39.5,63,63,0,0,1,1.5,13.6c-.3.5-.5.5-1.3.5-1-4.8-1.8-9.6-2.3-14.3-.3-1-.8-4.8-1.8-11.8l-1.5-.3c-6.5.5-9.8,1.3-9.8,2v7l-1.3,16.6a1.9,1.9,0,0,1,.5,1.3c0,.3-.3.5-.8.8-1,0-1.5-.8-1.5-2,1-12.6,1.5-20.1,1.5-22.9a28.54,28.54,0,0,1-.3-5,168,168,0,0,1,2.3-27.4C287.9,65.9,288.7,64.4,289.9,64.4Zm0,2.2a98.6,98.6,0,0,0-2.5,25.9,21.73,21.73,0,0,0-.3,4.3v.5a40.19,40.19,0,0,1,10.8-1.5v-.3c0-3.8-2-12.3-6-25.9A8.32,8.32,0,0,0,289.9,66.6Z" fill="#fff"/><path d="M318.6,61.1h0a1.05,1.05,0,0,1,1,.8c.3.5,0,1-.3,1l.3.3c.8,13.1,1.3,24.1,1.3,33.2a97.15,97.15,0,0,1,.5,12.1V124h9.8c.3,0,.3.3.5.5v.5c0,.5-1,.8-3,.8h-8.3c-.3,0-.5-.3-.8-.8v-1c0-.8,0-1.3.3-1.3l-.3-2.3V107.3c-.5-15.8-1-28.9-1.5-39.2l-.5-6C317.3,61.6,318.1,61.1,318.6,61.1Z" fill="#fff"/><path d="M374.9,66.6h.3a7.23,7.23,0,0,1,5.3,2.5v.3c0,.3-.3.5-.8.8a13.39,13.39,0,0,1-2.3-1.3,7.93,7.93,0,0,0-2.5-.5h-.8c-3.5.8-5.3,11.1-5.3,30.7a54,54,0,0,0,3.3,21.1,9.06,9.06,0,0,0,4,3.5h.8c2.3-.5,3.3-1.3,3.3-2.5.5,0,1-3.5,1.8-10.8v-8.8l-.3-1a.29.29,0,0,0-.3.3c-4.8-.3-7.3-.8-7.3-1l-.3-1v-.3c0-.3.3-.3.5-.5h.5a24.21,24.21,0,0,0,7.5,1,8.17,8.17,0,0,1,.8,3.5v4.5a8.31,8.31,0,0,1-.3,2.8c0,.3.3.3.3.5-.8,9.6-2.3,14.1-4,14.1,0,.3-1,.5-2.8,1h-.8a9.62,9.62,0,0,1-5-3.3c-2.5-5-4-12.8-4-23.1,0-19.6,2-30.4,6-32.2Z" fill="#fff"/><path d="M398.8,59.3h.3a4.81,4.81,0,0,0,3.3,1,11.62,11.62,0,0,1,5.5,5,26.22,26.22,0,0,1,3,11.1v1.8c0,7.8-2.3,13.6-6.8,17.1,5.3,1.3,8.3,7.5,9.1,18.6v6.8a28.33,28.33,0,0,0,.3,4.5l-.5.3h-.5l-.8-.5a40.17,40.17,0,0,1-.3-5.3v-6.5a27.27,27.27,0,0,0-4-13.8,8,8,0,0,0-5-2.5H402c0,2.5.3,4.5.3,5.8v6.8c.3,6,.3,9.3.3,10.1v.3c-.3.5-.5.8-1,.8-.3,0-.5-.3-1-.8l.3-1.3c-.3-5-.5-8.3-.5-10.1V97.6a.91.91,0,0,1-1-.8v-.3c.3-.5.5-.8,1-.8-.5-16.3-1.3-28.4-2.3-35.7Zm1.5,2.6c.8,8.8,1.3,19.6,2,32.4,4.8-3.3,7-8.3,7-15.3V76.5a28,28,0,0,0-4-12.1,7.85,7.85,0,0,0-4.5-2.5Z" fill="#fff"/><path d="M433,64.1c3.5,0,6,8,8,24.1a34,34,0,0,1,.3,6V95a2.7,2.7,0,0,1-.3,1.5,2.08,2.08,0,0,1,.3,1.3v.3a2.08,2.08,0,0,1-.3,1.3c0,.3.3.8.3,1,0,12.6-1.8,20.4-5,23.4-.8.3-1.8.5-2.5.8h-1.3c-4.3-1-7-6.5-8-16.6l-.5-7.3c0-16.8,2-28.4,6.3-34.9A2.55,2.55,0,0,1,433,64.1Zm-7.8,35.7a47.93,47.93,0,0,0,2.8,17.9c1.8,3.3,3.3,5,4.5,5h.3c2.5,0,4-1.8,4.8-5,1.3-3,2-9.8,2-19.9V94a97,97,0,0,0-3.8-24.1,9.75,9.75,0,0,0-2.8-4,4.14,4.14,0,0,0-2.5,2c-3.6,7-5.1,17.6-5.3,31.9Z" fill="#fff"/><path d="M453.8,63.6c.8,0,3.3,8,8,24.4.8,3.8,3.5,13.6,8.8,29.2h.5v-1.5c-.8-14.6-1-22.6-1-24.4,0-.5,0-2.3.3-5.5v-2a41.28,41.28,0,0,0,.3-5.5V65.4a.89.89,0,0,1,1-1l1,.5c-.3,6.8-.5,11.8-.5,15.3v5c0,10.3.3,23.9,1,40.2l-1,.5c-.8,0-5-13.3-12.8-39.7l-4.8-16.3-.3-.5v1a47.46,47.46,0,0,1,.3,6v1.5c-.3,6.5-.3,11.3-.3,13.8,0,11.1.5,22.1,1.5,33.2h-1a.91.91,0,0,1-1-.8V124c-.8-10.3-1-19.9-1-28.2V64.9C452.8,64.1,453.1,63.6,453.8,63.6Z" fill="#fff"/><path d="M487.3,64.6h.3c.8,0,1.3,3.3,1.3,9.6v2.3c0,2.3-.3,8.3-1,18.1a2.7,2.7,0,0,0,.3,1.5c-.3,6.3-.3,11.3-.3,14.8v11.6c0,.5.3,1.3.3,1.8-.3.8-.5,1.3-.8,1.3h-.8c-.5,0-.8-1.5-.8-4.8,0-20.6.3-34.9,1-42.7v-5c0-2.5-.3-5-.5-7.5A2,2,0,0,1,487.3,64.6Z" fill="#fff"/><path d="M503.4,63.6c.8,0,3.3,8,8,24.4.8,3.8,3.5,13.6,8.8,29.2h.5v-1.5c-.8-14.6-1-22.6-1-24.4,0-.5,0-2.3.3-5.5v-2a41.28,41.28,0,0,0,.3-5.5V65.4a.89.89,0,0,1,1-1l1,.5c-.3,6.8-.5,11.8-.5,15.3v5c0,10.3.3,23.9,1,40.2l-1,.5c-.8,0-5-13.3-12.8-39.7l-4.8-16.3-.3-.5v1a47.46,47.46,0,0,1,.3,6v1.5c-.3,6.5-.3,11.3-.3,13.8,0,11.1.5,22.1,1.5,33.2h-1a.91.91,0,0,1-1-.8V124c-.8-10.3-1-19.9-1-28.2V64.9C502.6,64.1,502.9,63.6,503.4,63.6Z" fill="#fff"/><path d="M542.6,66.6h.3a7.23,7.23,0,0,1,5.3,2.5v.3c0,.3-.3.5-.8.8a13.39,13.39,0,0,1-2.3-1.3,7.93,7.93,0,0,0-2.5-.5h-.8c-3.5.8-5.3,11.1-5.3,30.7a54,54,0,0,0,3.3,21.1,9.06,9.06,0,0,0,4,3.5h.8c2.3-.5,3.3-1.3,3.3-2.5.5,0,1-3.5,1.8-10.8v-8.8l-.3-1c-.3,0-.3,0-.3.3-4.8-.3-7-.8-7-1l-.3-1v-.3c0-.3.3-.3.5-.5h.8a24.21,24.21,0,0,0,7.5,1,8.17,8.17,0,0,1,.8,3.5v4.5a8.31,8.31,0,0,1-.3,2.8c0,.3.3.3.3.5-.8,9.6-2.3,14.1-4,14.1,0,.3-1,.5-2.8,1h-.8a9.62,9.62,0,0,1-5-3.3c-2.5-5-4-12.8-4-23.1,0-19.6,2-30.4,6-32.2Z" fill="#fff"/><path d="M573.3,63.6l.3.3h.3c3.8.3,5.8.8,5.8,1.3v.3c-.3.5-.5,1-1,1l-5-.5-3.5.3.3,2.3c0,2,.3,9.8,1,23.6h1.3a6.08,6.08,0,0,0,2.3-.3c2.8.3,4.8.5,6,.5l.5.8v.5c0,.3-.3.5-.8.5a35.58,35.58,0,0,1-5-.3,20.34,20.34,0,0,1-4,.3h0c0,8.5.5,18.1,1.3,29.2.3,0,.3,0,.3.3,4.5-.3,7.3-.3,8-.3.5,0,.8.5,1,1h0c0,.3-.3.5-.8.8-4.5,0-7.3.3-8.3.3a2.06,2.06,0,0,1-2.3-2.3c-.8-11.3-1.3-20.9-1.3-28.4V89c-.5-10.6-1-17.6-1-21.4-.3-1.8-.5-2.8-.5-2.8l.8-.5h2C571,63.9,572,63.9,573.3,63.6Z" fill="#fff"/><path d="M592.6,63.6c.8,0,3.3,8,8,24.4.8,3.8,3.5,13.6,8.8,29.2h.5v-1.5c-.8-14.6-1-22.6-1-24.4,0-.5,0-2.3.3-5.5v-2c.3-1.8.3-3.8.5-5.5V65.4a.89.89,0,0,1,1-1l1,.5c-.3,6.8-.5,11.8-.5,15.3v5c0,10.3.3,23.9,1,40.2l-1,.5c-.8,0-5-13.3-12.8-39.7l-4.8-16.3-.3-.5v1a47.46,47.46,0,0,1,.3,6v1.5c-.3,6.5-.3,11.3-.3,13.8,0,11.1.5,22.1,1.5,33.2h-1a.91.91,0,0,1-1-.8V124c-.8-10.3-1-19.9-1-28.2V64.9C591.9,64.1,592.1,63.6,592.6,63.6Z" fill="#fff"/><path d="M252.7,22.9a24.58,24.58,0,0,0,1.8,5,14.49,14.49,0,0,0,3.8,4A49.18,49.18,0,0,1,254.5,11,78.61,78.61,0,0,1,255.8.4c.5,6.5-.3,13.1,2.3,19.9l1.3-6.8h.8c-.5,7.3-.5,14.3,5.8,20.4a71.05,71.05,0,0,1,0-11.3,33.29,33.29,0,0,1,3.8-9.8c-1.3,7.3-3.5,14.6,1,21.1A35.78,35.78,0,0,0,284.6,45l.8-.5L282.6,38l.3-.3a30.29,30.29,0,0,1,3.8,4.5,16.57,16.57,0,0,0,6.3,6.3c1.8.8,2.3,2.3.8,3.8a2.34,2.34,0,0,1-2.3.5c-5.5-3-11.1-5.8-16.3-9.1a17.34,17.34,0,0,0-10.6-3.3,16.31,16.31,0,0,1-12.1-4.3c3.8.8,7.3,3,11.3.5C255,35.8,253,30.1,252,23Z" fill="#fff"/><path d="M355.3,0c2.8,10.6.5,20.6-3,30.9,4-2,4-6.3,6-9.3a15.35,15.35,0,0,1-7.8,14.1,45.72,45.72,0,0,0-8.3,5,47.06,47.06,0,0,1-16.3,8.5,49.38,49.38,0,0,0-5.8,2c-2.3,1-3.3-.3-3.8-1.8-.3-.5,1.3-1.5,2-2.3a19.45,19.45,0,0,1,3-1.3,15.29,15.29,0,0,0,9.6-8.3,4.32,4.32,0,0,1,1.8-2l-2.8,8.3a35.19,35.19,0,0,0,3.3-1.5,18.62,18.62,0,0,0,7.5-10.1,8,8,0,0,0-.5-4.3,49.77,49.77,0,0,1-2.8-8.5l4,6.5a9.72,9.72,0,0,0,2.3-9.6c2.5,4.8,1,10.3,1.5,15.3,5.8-5.3,5.8-12.3,6.3-19.4l1.3,6.3A71.32,71.32,0,0,0,355.3,0Z" fill="#fff"/></svg>
