<svg xmlns="http://www.w3.org/2000/svg" width="240" height="150.24" viewBox="0 0 240 150.24"><path d="M756,522.88v13a161.28,161.28,0,0,0,27.33,2.18,169.22,169.22,0,0,0,28.28-2.25V522.85c-8.52.61-18.39.92-28.28.92C773.85,523.77,764.36,523.48,756,522.88Zm55.61-19c-8.51-.6-18.38-.91-28.28-.91-9.47,0-19,.28-27.33.89v18.17c8.36.6,17.86.89,27.33.89,9.9,0,19.77-.31,28.28-.91Zm0-13.76a170.28,170.28,0,0,0-28.28-2.25A160.23,160.23,0,0,0,756,490.1v13c8.37-.6,17.86-.88,27.33-.88,9.89,0,19.76.31,28.28.91Zm0,54v-7.5a170.67,170.67,0,0,1-28.28,2.24A161.65,161.65,0,0,1,756,536.69v7.44c-1.36-.33-2.68-.69-4-1.07v-7.15c-1-.23-2.08-.46-3.08-.72v6.89c-1.37-.48-2.68-1-3.92-1.53C762.53,548.37,791.14,549.09,811.6,544.12ZM745,485.43a41.09,41.09,0,0,0-5.56,3V494a54,54,0,0,1,5.56-2.07Zm7,5.45c-1,.23-2.08.47-3.08.72v12.09l3.08-.29ZM749,534.36c1,.26,2,.5,3.08.73V522.56l-3.08-.29ZM752,504.21c-1,.09-2.08.19-3.08.3v17l3.08.29Zm61.18,39.5-1.61.41v0C812.15,544,812.67,543.85,813.21,543.71Zm2.35-.65-.41.12.41-.11ZM747,484.57h0l.08,0S747,484.56,747,484.57Zm5,5.48v-7.2c-1.06.32-2.08.67-3.08,1v6.89C750,490.52,751,490.28,752,490.05Zm63.53,45q1.61-.35,3.12-.72V522.26l-3.12.29Zm3.12-30.52-3.12-.29v17.5c1.07-.09,2.11-.18,3.12-.29Zm-7.08-22.7v0l1.52.39C812.61,482.1,812.12,482,811.6,481.82ZM749,483.87c-.63.22-1.25.44-1.85.67.6-.23,1.23-.44,1.85-.66Zm7,5.41a161.62,161.62,0,0,1,27.33-2.18,169.57,169.57,0,0,1,28.28,2.25v-7.51c-17.82-4.33-41.8-4.32-59.26.92,1.18-.34,2.39-.67,3.65-1Zm-4-6.43h0l.31-.09Zm66.65,8.79c-1-.25-2-.49-3.12-.71v12.49l3.12.29ZM828.27,521c-1.68.31-3.57.59-5.63.84v11.42a48.36,48.36,0,0,0,5.63-2.1Zm0,11a52,52,0,0,1-5.63,2.05v6.46a39,39,0,0,0,5.63-3Zm-12.71-49.13-.33-.09.33.11Zm12.71,22.93c-1.68-.31-3.57-.59-5.63-.85v16c2.06-.26,4-.54,5.63-.85Zm0-17.4a39,39,0,0,0-5.63-3v6.45a52,52,0,0,1,5.63,2.06Zm0,6.41a50.29,50.29,0,0,0-5.63-2.09v11.42c2.06.25,4,.53,5.63.83Zm-9.59-4v-6.92c-1-.35-2.06-.67-3.12-1v7.19C816.63,490.33,817.67,490.56,818.68,490.81Zm0,44.34c-1,.25-2,.49-3.12.71v7.2c1.06-.32,2.12-.64,3.12-1ZM745,521.82c-2-.26-3.86-.54-5.56-.85v10.16a49,49,0,0,0,5.56,2.1ZM745,505c-2,.26-3.87.54-5.56.86v14.33c1.7.31,3.56.59,5.56.85Zm0,29.12a51.82,51.82,0,0,1-5.56-2.06v5.53a41.06,41.06,0,0,0,5.56,3Zm0-41.35a53.08,53.08,0,0,0-5.56,2.1V505c1.7-.31,3.56-.59,5.56-.84Zm-17.32,88a10.37,10.37,0,0,0-2.81-6,6.81,6.81,0,0,0-4.78-2.05h-1.35a3.64,3.64,0,0,0-1.28.36c-.56.25-.85.5-.85.78s.18.27.53.27a7.57,7.57,0,0,0,1.62-.27,8.94,8.94,0,0,1,1.24-.09,4.94,4.94,0,0,1,4.09,1.87,8.87,8.87,0,0,1,1.48,5.58,23.57,23.57,0,0,1-2.24,9,23.18,23.18,0,0,1-7.26,8.87q-4.86,3.88-8.14,3.88c-2.35,0-3.52-1.44-3.52-4.34a18,18,0,0,1,.23-2.45,37.13,37.13,0,0,1,2.33-6.72c1.4-3.39,2.18-5.34,2.35-5.82a5,5,0,0,0,.25-1.65,1.25,1.25,0,0,0-.59-1.23,1.27,1.27,0,0,0-.46-.1q-1,0-2.28,1.83t-4.48,7.23q-3.16,5.39-6.08,9.46a19.69,19.69,0,0,1-5.4,5.53,2.67,2.67,0,0,1-1.42.55q-1.14,0-1.14-1.65,0-2.32,2.75-10c1.27-3.59,2.62-7,4-10.1q3.06-6.95,3.06-11.43,0-5.44-4.39-7.36a15.13,15.13,0,0,0-5.39-.91,18.29,18.29,0,0,0-6.45,1.32A36.4,36.4,0,0,0,675,568.3a27.14,27.14,0,0,0-5.58,4.89,24.53,24.53,0,0,0-4,6.34,15.91,15.91,0,0,0-1.48,6.33,10.67,10.67,0,0,0,.09,1.41,11,11,0,0,0,2.38,5.67,8.75,8.75,0,0,0,7.13,3.2,7.55,7.55,0,0,0,3-.68,14.93,14.93,0,0,0,8.37-7.87,9.65,9.65,0,0,0,.87-3.61,5.1,5.1,0,0,0-.69-2.69,3.76,3.76,0,0,0-3.48-1.83,8.12,8.12,0,0,0-2.37.36c-.8.25-1.21.48-1.24.69s.23.27.78.18a8.91,8.91,0,0,1,1.37-.14q3.35,0,3.34,3.75a10.58,10.58,0,0,1-1.6,5.12q-3.1,5.54-8.41,5.53a6.25,6.25,0,0,1-5-2.05,6.65,6.65,0,0,1-1.34-2.47,8.46,8.46,0,0,1-.39-2.36,25.69,25.69,0,0,1,.16-2.6,22,22,0,0,1,1.35-4.85,22.23,22.23,0,0,1,4.29-6.83,25.81,25.81,0,0,1,14.36-8.73,11.33,11.33,0,0,1,2.19-.23,7.63,7.63,0,0,1,4.19,1.12c1.17.75,1.76,2.09,1.76,4q0,4.53-3.75,13.58-6,14.22-6,18.84,0,3.93,3.24,3.93a7.29,7.29,0,0,0,4-1.79,27.16,27.16,0,0,0,4.39-4.25,77,77,0,0,0,6.4-8.91,18.49,18.49,0,0,0-1,5.12,11.71,11.71,0,0,0,.32,3.11c.73,2.92,2.68,4.39,5.85,4.39s6.39-1.33,10-4a21.73,21.73,0,0,0,7.7-9.65,22.22,22.22,0,0,0,1.6-7.68A14,14,0,0,0,727.67,580.74Zm5.85,2.69a2.16,2.16,0,0,0,1.42-.54,2.25,2.25,0,0,0,.77-1.33,1.53,1.53,0,0,0-.34-1.33,1.61,1.61,0,0,0-1.26-.54,2.11,2.11,0,0,0-1.41.54,2.21,2.21,0,0,0-.78,1.33,1.71,1.71,0,0,0,.36,1.33A1.55,1.55,0,0,0,733.52,583.43Zm34.26-11.26q-.75-.12-.87-.12h-.64a2,2,0,0,0-1.14.44,4.64,4.64,0,0,0-1.26,1.94q-2.19,5-5.3,10.83a6.42,6.42,0,0,0-2.9-.82,7.31,7.31,0,0,0-2.27.32,9.17,9.17,0,0,0-4.52,3,18.19,18.19,0,0,0-2.9,4.68,1,1,0,0,0-.06.16,44.92,44.92,0,0,1-2.94,5c-1,1.48-2.1,2.22-3.2,2.22a1.53,1.53,0,0,1-1.46-.85,3.7,3.7,0,0,1-.46-1.82,7.83,7.83,0,0,1,.25-2c.17-.65.38-1.34.62-2.06s.38-1.13.41-1.25a41.35,41.35,0,0,0,9.37-13.72,9.89,9.89,0,0,0,1.1-3.93,4.44,4.44,0,0,0-.05-.69q-.36-1.5-1.41-1.5a4.35,4.35,0,0,0-3.07,1.64,20.31,20.31,0,0,0-2.12,3.09,61.41,61.41,0,0,0-3.29,6.74,63.39,63.39,0,0,0-3,8.22,1.6,1.6,0,0,0-.11.19,29.27,29.27,0,0,1-4.3,6.91,2.84,2.84,0,0,1-1.82.86c-1,0-1.42-.44-1.42-1.32a7.17,7.17,0,0,1,.78-2.88l3.65-8.55c.31-.55.4-.95.28-1.21s-.54-.39-1.24-.39l-2.51,0a2.29,2.29,0,0,1,.55,1.19,2.37,2.37,0,0,1-.09.73l-2.93,7.46a7.09,7.09,0,0,0-.59,2.69,3.69,3.69,0,0,0,.73,2.24,2.75,2.75,0,0,0,2.4,1c1.11,0,2.29-.72,3.54-2.15a14.31,14.31,0,0,0,1.53-2.22c.25-.41.44-.76.62-1.07,0,.3-.11.6-.14.91,0,.58,0,1.05,0,1.42a5.56,5.56,0,0,0,.16,1.26,2.35,2.35,0,0,0,.93,1.32,3.47,3.47,0,0,0,2.2.62,5.69,5.69,0,0,0,3-1,5.9,5.9,0,0,0,1.26-1.12c.44-.51.79-.92,1.05-1.24a9.57,9.57,0,0,0,.81-1.27,7.13,7.13,0,0,0,0,.79c0,2,.74,3.17,2.24,3.57a3.88,3.88,0,0,0,1,.13,2.81,2.81,0,0,0,1.07-.22q1.92-.6,4.57-5a8.3,8.3,0,0,0-.23,2,3.94,3.94,0,0,0,.73,2.17,2.27,2.27,0,0,0,2,1.1q3.75,0,7.41-8.5a1,1,0,0,0,.09-.67c-.06-.13-.18-.17-.35-.11a.61.61,0,0,0-.36.36c-.08.19-.16.37-.25.55q-3.57,7.19-5.72,7.18c-.79,0-1.19-.49-1.19-1.46a7.25,7.25,0,0,1,.46-2.2q1.19-3.55,7-14.26,4.53-8.37,5.58-9.33A4.56,4.56,0,0,1,767.78,572.17Zm-24.73,10a46,46,0,0,1,3.45-6.49c.85-1.21,1.43-1.81,1.74-1.81s.32.31.32.91a11.34,11.34,0,0,1-1.08,3.46,42.7,42.7,0,0,1-3.36,6.14,35.89,35.89,0,0,1-4.61,6C740.42,588,741.6,585.3,743.05,582.18Zm9.17,13.92q-2.29,3.2-3.84,3.2a1,1,0,0,1-.94-.6,2.85,2.85,0,0,1-.3-1.32,9.08,9.08,0,0,1,1.33-4.07,21.18,21.18,0,0,1,5.07-6.31,5.53,5.53,0,0,1,3-1.6,2.26,2.26,0,0,1,1.66.59A99.81,99.81,0,0,1,752.22,596.1Zm70.67-10.33q0-.37-1.35-.3c-.87,0-2,.07-3.54.07a34.88,34.88,0,0,1-4.89-.37c.09-.21.42-1,1-2.51q2.7-6.58,5.08-9.28l1.28.64c.79.39,1.6.77,2.42,1.14a33.56,33.56,0,0,0,3.2,1.19,21.7,21.7,0,0,0,3.2.84,13.63,13.63,0,0,0,2.29.21,5.13,5.13,0,0,0,2.24-.59,3.05,3.05,0,0,0,1.92-2.84v-.36c0-.22-.13-.27-.3-.16a2,2,0,0,0-.57.84,3,3,0,0,1-2.61,1.51c-.36,0-.9.05-1.6.05a13.09,13.09,0,0,1-2.83-.42,40.57,40.57,0,0,1-8-2.88,3,3,0,0,1,2.06-1,1.84,1.84,0,0,1,.69.14,1,1,0,0,0,.5.36c.24,0,.35-.12.32-.46q0-1.14-1.74-1.14a4,4,0,0,0-2.92,1.56,44.4,44.4,0,0,0-12.26-5.31,19.12,19.12,0,0,0-5.35-.77,13.28,13.28,0,0,0-9.14,3.33q-3.75,3.35-3.75,7.41a5.41,5.41,0,0,0,2.93,5,5.93,5.93,0,0,0,3.15,1,9.61,9.61,0,0,0,3.11-.51,6.48,6.48,0,0,0,4.48-4.43,1.9,1.9,0,0,0,.14-.64c0-.3-.15-.37-.43-.18a1.09,1.09,0,0,0-.44,1c0,.49-.49,1.13-1.46,1.92a8.71,8.71,0,0,1-3.57,1.69,4.78,4.78,0,0,1-1.19.14,6.92,6.92,0,0,1-3.38-1A2.9,2.9,0,0,1,790.3,578c0-2.34,1.2-4.54,3.61-6.58a14.1,14.1,0,0,1,9.41-3.2q5.63,0,14.86,4.57a39.28,39.28,0,0,0-3,4.76,59,59,0,0,0-3.59,7.22,39.28,39.28,0,0,0-4.87-.41,7.76,7.76,0,0,0-3.63,1,6.41,6.41,0,0,0-2.83,3.15.56.56,0,0,0,.06.67c.17.16.39.08.67-.26q1.68-2.46,7-2.46l2.92,0a38.63,38.63,0,0,1-8.68,12.89,18.63,18.63,0,0,1-5.85,3.84,17,17,0,0,1-12.35.23q-5.89-2.28-7.77-7.13a9.2,9.2,0,0,1-.69-3.29,13.76,13.76,0,0,1,.23-2.65,8.21,8.21,0,0,1,3.52-5.31,8.39,8.39,0,0,0,1.58-1.23c.05-.12-.27-.08-.94.11a7.23,7.23,0,0,0-2.49,1.63,6.74,6.74,0,0,0-2,3.06,17.71,17.71,0,0,0-.78,5,11.71,11.71,0,0,0,5.9,10.56,17.24,17.24,0,0,0,9.46,2.47,20.67,20.67,0,0,0,10.1-2.47,16.63,16.63,0,0,0,3.8-2.76,29.22,29.22,0,0,0,3-3.27q2.83-3.75,5.67-11.52a27.32,27.32,0,0,0,3.52.18Q822.94,586.77,822.89,585.77Zm36.89-2.34a2.16,2.16,0,0,0,1.42-.54,2.25,2.25,0,0,0,.77-1.33,1.5,1.5,0,0,0-.34-1.33,1.61,1.61,0,0,0-1.26-.54,2.13,2.13,0,0,0-1.41.54,2.21,2.21,0,0,0-.78,1.33,1.68,1.68,0,0,0,.37,1.33A1.52,1.52,0,0,0,859.78,583.43Zm15.27,1.28a.65.65,0,0,0-.73-.73,2,2,0,0,0-.69.14,4.56,4.56,0,0,0-2.6,3.25,6.36,6.36,0,0,0-.28,2,6.56,6.56,0,0,0,.64,2.59,23.36,23.36,0,0,1-3,5.67c-1,1.28-1.9,1.92-2.69,1.92a1.82,1.82,0,0,1-.83-.21c-.27-.14-.41-.64-.41-1.51a18.53,18.53,0,0,1,1.44-5.1,19,19,0,0,0,1.44-6.58,3,3,0,0,0-.11-.82.58.58,0,0,0-.57-.39,28.9,28.9,0,0,0-3.2.43c.48.22.73.92.73,2.11a8,8,0,0,1-.87,3.56l-.82,1.56s0,0,0,0a27.78,27.78,0,0,1-3.93,6.2,2.84,2.84,0,0,1-1.83.86c-1,0-1.42-.44-1.42-1.32a7.17,7.17,0,0,1,.78-2.88l3.65-8.55c.31-.55.4-.95.28-1.21s-.53-.39-1.24-.39l-2.51,0a2.21,2.21,0,0,1,.55,1.19,2.37,2.37,0,0,1-.09.73l-2,5.16c-1.67,3.24-3.21,5.41-4.6,6.46a3.62,3.62,0,0,1-1.74.54,1,1,0,0,1-1-.59,2.37,2.37,0,0,1-.32-1.16,5.24,5.24,0,0,1,.13-1.17l1.05-4.66a33,33,0,0,0,6.08-7.55H857a.36.36,0,0,0,.34-.25.72.72,0,0,0,0-.5.28.28,0,0,0-.29-.25h-2.2q1-1.92,2.06-4.16a9.39,9.39,0,0,0,1.05-3.82,2.08,2.08,0,0,0-1.05-2.08,2.21,2.21,0,0,0-.75-.09,3.76,3.76,0,0,0-1.72.84,10.79,10.79,0,0,0-2.6,3.27q-1.43,2.43-3.07,6H846a.36.36,0,0,0-.34.25.73.73,0,0,0,0,.5.3.3,0,0,0,.3.25h2.38a69.57,69.57,0,0,0-3,8.5,36.74,36.74,0,0,1-2.88,4.94,4.85,4.85,0,0,1-3.61,2.15,6.64,6.64,0,0,1-.82-.09,8.54,8.54,0,0,0,2.29-2.38,5.34,5.34,0,0,0,1-3,10,10,0,0,0-1.06-3.88c-.3-.64-.57-1.24-.82-1.79a5.28,5.28,0,0,1-.36-2.1c0-1.61.51-2.67,1.55-3.15a1.31,1.31,0,0,1,.64-.14,2.25,2.25,0,0,1,.87.23c.33.15.55.1.66-.14s0-.46-.46-.66a2.83,2.83,0,0,0-1.25-.3q-2.43,0-4.25,3.89c-.76,1.63-1.66,3.45-2.63,5.35a2.08,2.08,0,0,0-.21.31c-.17.41-.36.78-.54,1.16s-.38.76-.6,1.18a1.7,1.7,0,0,0-1.21.82,2.71,2.71,0,0,0-.57,1.62c0,.11,0,.2,0,.3-1.46,1.81-3,2.74-4.63,2.74a1.91,1.91,0,0,1-1.62-.75,3.23,3.23,0,0,1-.57-2,9,9,0,0,1,.64-3.47,9.63,9.63,0,0,0,2.78-.62,9.74,9.74,0,0,0,2.84-1.39q3.28-2.52,3.29-5.26a1.84,1.84,0,0,0-.78-1.42,3.19,3.19,0,0,0-1.78-.55,5.12,5.12,0,0,0-2,.46,10.38,10.38,0,0,0-3.89,2.9,16.56,16.56,0,0,0-2.67,4.3,11.13,11.13,0,0,0-1,4.37,4.18,4.18,0,0,0,1.29,3.24,4.34,4.34,0,0,0,3.1,1.19,6.7,6.7,0,0,0,5.15-2.5c.47,1.66,1.77,2.5,3.9,2.5a4.86,4.86,0,0,0,1.88-.45,5.53,5.53,0,0,0,3.29-.1,4.39,4.39,0,0,0,1.83-1.09l1-1a5.15,5.15,0,0,0,.91-1.14c.31-.49.56-.9.76-1.24v0a11.14,11.14,0,0,0-.08,1.22,3.88,3.88,0,0,0,.91,2.65,2.93,2.93,0,0,0,2.33,1.05c1.86,0,3.62-1.32,5.26-4l.16-.25a5,5,0,0,0-.11.93,3.69,3.69,0,0,0,.73,2.24,2.78,2.78,0,0,0,2.4,1c1.11,0,2.29-.72,3.54-2.15a14.31,14.31,0,0,0,1.53-2.22c.57-1,1-1.65,1.15-2.08l.58-1.27a1.66,1.66,0,0,0,.17-.24,20.2,20.2,0,0,0-1.37,5.81c0,1.65.85,2.47,2.56,2.47q3.15,0,6-4.85a55.8,55.8,0,0,0,4.3-10.6Zm-20-8.36c.69-1,1.2-1.46,1.53-1.46s.32.3.32.91q0,2.1-3,7.5h-2.29A52.52,52.52,0,0,1,855,576.35Zm-3.91,7.95h2.15a34.7,34.7,0,0,1-4.61,6.08C849.91,587.18,850.73,585.16,851.09,584.3Zm-23.17,4.25q2.61-3.15,3.88-3.15c.49,0,.74.31.74.91a6,6,0,0,1-2.52,4.53,8.53,8.53,0,0,1-2.58,1.46,7.15,7.15,0,0,1-2.26.55A23.35,23.35,0,0,1,827.92,588.55Zm6.85,11.52a1.6,1.6,0,0,1-1.69-1.23,4.18,4.18,0,0,1,0-.59,2.5,2.5,0,0,1,.82-1.79,4,4,0,0,0,1.83,3.43A2.1,2.1,0,0,1,834.77,600.07Zm1.7-.59c-1.28-.61-1.92-1.81-1.92-3.61,0-.88-.31-1.32-.9-1.36.08-.16.16-.28.23-.45l.49-1c.75-1.47,1.92-3.78,3.51-7a10.55,10.55,0,0,0,0,1.19,30.22,30.22,0,0,0,.32,3.34,32.69,32.69,0,0,1,.32,3.88C838.48,596.77,837.81,598.44,836.47,599.48ZM893,593.1c.24-.71.38-1.13.41-1.25a41.35,41.35,0,0,0,9.37-13.72,9.89,9.89,0,0,0,1.1-3.93,4.44,4.44,0,0,0-.05-.69q-.36-1.5-1.41-1.5a4.35,4.35,0,0,0-3.07,1.64,19.59,19.59,0,0,0-2.12,3.09,61.41,61.41,0,0,0-3.29,6.74,63.78,63.78,0,0,0-3,8.27.7.7,0,0,1,0,.12v0a32.36,32.36,0,0,1-3.71,6.08c-.85,1.07-1.57,1.6-2.15,1.6s-.68-.29-.68-.89a12,12,0,0,1,.3-2.33,18.89,18.89,0,0,1,1.8-4.34,17.6,17.6,0,0,1,2.33-3.73,2.77,2.77,0,0,1-1.12,0,7.28,7.28,0,0,0-.93-.13,2,2,0,0,0-1.51.61,10.81,10.81,0,0,0-1.47,2.31q-4.43,8.41-7.17,8.41c-.76,0-1.15-.59-1.15-1.78a10.15,10.15,0,0,1,1.79-4.75,24.49,24.49,0,0,1,3.06-4.3q2.88-3.11,4.85-3.11a2.11,2.11,0,0,1,2.19,1.65.63.63,0,0,0,.78-.37.9.9,0,0,0-.28-1,4.85,4.85,0,0,0-3.56-1.46,6.61,6.61,0,0,0-1.65.23,10.12,10.12,0,0,0-5.39,3.33q-3.88,4.62-3.89,9.1a3.74,3.74,0,0,0,1.37,3.29,2.11,2.11,0,0,0,1.33.46q2.65,0,6.31-5.9a10.57,10.57,0,0,0-.46,2.79,3.59,3.59,0,0,0,.41,1.83,2.49,2.49,0,0,0,2.15,1.28c1.57,0,3.44-1.93,5.6-5.72-.06.37-.12.73-.16,1.1,0,.58-.05,1.05-.05,1.42a6.2,6.2,0,0,0,.16,1.26,2.43,2.43,0,0,0,.94,1.32,3.47,3.47,0,0,0,2.2.62,5.69,5.69,0,0,0,3-1,5.9,5.9,0,0,0,1.26-1.12c.44-.51.79-.92,1-1.24a9.77,9.77,0,0,0,.92-1.46l.73-1.37c.13-.26.35-.72.64-1.38l.57-1.28a.35.35,0,0,0-.09-.47c-.22-.1-.44.07-.69.5a46.38,46.38,0,0,1-3.29,5.64c-1,1.48-2.1,2.22-3.2,2.22a1.53,1.53,0,0,1-1.46-.85,3.7,3.7,0,0,1-.46-1.82,7.83,7.83,0,0,1,.25-2C892.52,594.51,892.72,593.82,893,593.1Zm4.32-10.92a46,46,0,0,1,3.45-6.49c.85-1.21,1.43-1.81,1.74-1.81s.32.31.32.91a11.34,11.34,0,0,1-1.08,3.46,42.7,42.7,0,0,1-3.36,6.14,35.89,35.89,0,0,1-4.61,6C894.66,588,895.84,585.3,897.29,582.18Zm-152,39.12v.52h2.09v5.42a1.56,1.56,0,0,1-.6.56,2.22,2.22,0,0,1-1.16.28,2.47,2.47,0,0,1-1.48-.42,3.05,3.05,0,0,1-.94-1.75,16,16,0,0,1-.35-3.89,14.78,14.78,0,0,1,.39-3.84,3.52,3.52,0,0,1,1.11-1.92,3,3,0,0,1,1.82-.54,2.68,2.68,0,0,1,1.74.57,1.31,1.31,0,0,0,.14-.59c0-.22-.2-.41-.59-.58a3.62,3.62,0,0,0-1.45-.26,3.8,3.8,0,0,0-2.2.6,3.93,3.93,0,0,0-1.38,2.17,15.05,15.05,0,0,0-.5,4.43,15.88,15.88,0,0,0,.44,4.3,3.62,3.62,0,0,0,1.22,2,3.43,3.43,0,0,0,2,.54,3.14,3.14,0,0,0,2.64-1.19V621h-2.66A.24.24,0,0,0,745.27,621.3Zm11.94,0a5.16,5.16,0,0,0,.56-2.59A4.15,4.15,0,0,0,757,616a3,3,0,0,0-2.55-1h-2.07a.21.21,0,0,0-.19.09.3.3,0,0,0,0,.14v13.45h.59a.7.7,0,0,0,.26,0,.36.36,0,0,0,0-.18v-5.65h1.33l.43,0A8.51,8.51,0,0,1,755.9,625a14.47,14.47,0,0,1,.87,3.79l.49,0a1,1,0,0,0,.35-.06.27.27,0,0,0,.08-.23,11.72,11.72,0,0,0-2.06-5.81A2.88,2.88,0,0,0,757.21,621.32Zm-2.85.72H753v-6.18h1.47a2.08,2.08,0,0,1,1.83.76,3.53,3.53,0,0,1,.54,2.07,4.26,4.26,0,0,1-.62,2.49A2.14,2.14,0,0,1,754.36,622Zm12.6-6.51a2.93,2.93,0,0,0-2-.67,3,3,0,0,0-2.86,1.62,11.4,11.4,0,0,0-.91,5.32,19.87,19.87,0,0,0,.36,4.29,4,4,0,0,0,1.13,2.2,3.15,3.15,0,0,0,2.07.65,3.09,3.09,0,0,0,2.11-.7A4.31,4.31,0,0,0,768,626a18.05,18.05,0,0,0,.38-4.19,19,19,0,0,0-.34-4.09A4.06,4.06,0,0,0,767,615.53Zm.22,9.91a4,4,0,0,1-.88,2,2.06,2.06,0,0,1-1.57.62,2,2,0,0,1-1.53-.59,3.75,3.75,0,0,1-.83-1.87,17.86,17.86,0,0,1-.26-3.48,18.41,18.41,0,0,1,.3-3.72,4,4,0,0,1,.91-2,2.12,2.12,0,0,1,1.58-.62,2,2,0,0,1,1.5.57,3.66,3.66,0,0,1,.81,1.88,19.53,19.53,0,0,1,.25,3.55A18.89,18.89,0,0,1,767.18,625.44Zm11-10.32s0,.08,0,.17V620q0,4.13,0,6.94l-.24-.55-1.23-3c-.48-1.17-.87-2.13-1.17-2.89l-2.39-5.43h-.6a.21.21,0,0,0-.24.23v13.45h.59a.58.58,0,0,0,.25,0,.26.26,0,0,0,0-.18V623.7l-.06-6.86,1,2.34,1.64,4,2.45,5.53h.58c.17,0,.26-.07.26-.23V615.06h-.59C778.29,615.07,778.2,615.09,778.18,615.12Zm5.14.06a.94.94,0,0,0,0,.35v13.21h.59a.5.5,0,0,0,.26-.06.26.26,0,0,0,0-.17V615.06a5,5,0,0,0-.65,0A.25.25,0,0,0,783.32,615.18Zm11-.06s0,.08,0,.17V620q0,4.13,0,6.94l-.24-.55c-.33-.82-.75-1.82-1.23-3s-.87-2.13-1.17-2.89l-2.39-5.43h-.6a.21.21,0,0,0-.24.23v13.45H789a.58.58,0,0,0,.25,0,.26.26,0,0,0,0-.18V623.7l-.06-6.86,1,2.34,1.64,4,2.45,5.53h.59c.16,0,.25-.07.25-.23V615.06h-.59C794.42,615.07,794.33,615.09,794.31,615.12Zm8.11,6.18v.52h2.1v5.42a1.69,1.69,0,0,1-.61.56,2.18,2.18,0,0,1-1.15.28,2.5,2.5,0,0,1-1.49-.42,3.11,3.11,0,0,1-.94-1.75A16.47,16.47,0,0,1,800,622a14.78,14.78,0,0,1,.39-3.84,3.47,3.47,0,0,1,1.12-1.92,2.93,2.93,0,0,1,1.81-.54,2.68,2.68,0,0,1,1.74.57,1.31,1.31,0,0,0,.14-.59c0-.22-.19-.41-.59-.58a3.6,3.6,0,0,0-1.44-.26,3.81,3.81,0,0,0-2.21.6,3.93,3.93,0,0,0-1.38,2.17,15.4,15.4,0,0,0-.5,4.43,16.3,16.3,0,0,0,.44,4.3,3.62,3.62,0,0,0,1.22,2,3.45,3.45,0,0,0,2,.54,3.16,3.16,0,0,0,2.64-1.19V621H802.7C802.51,621,802.42,621.13,802.42,621.3Zm11.64-5.42a.13.13,0,0,0,.15-.13,5,5,0,0,0,0-.69h-4.67a.23.23,0,0,0-.2.09.3.3,0,0,0-.05.14v13.45H814a.16.16,0,0,0,.18-.12,4.58,4.58,0,0,0,0-.7h-4v-6.25h3.42a.15.15,0,0,0,.16-.14,4.43,4.43,0,0,0,0-.68h-3.61v-5Zm9.75-.76a.29.29,0,0,0,0,.17V620q0,4.13,0,6.94l-.23-.55-1.23-3c-.48-1.17-.88-2.13-1.18-2.89l-2.38-5.43h-.61a.21.21,0,0,0-.23.23v13.45h.58a.65.65,0,0,0,.26,0,.26.26,0,0,0,0-.18V623.7l-.06-6.86,1,2.34,1.64,4,2.44,5.53h.59c.17,0,.25-.07.25-.23V615.06h-.58A.44.44,0,0,0,823.81,615.12Z" transform="translate(-663.85 -478.7)" fill="#333333"/></svg>
