<?xml version="1.0" encoding="utf-8"?>
<!-- Generator: Adobe Illustrator 24.1.0, SVG Export Plug-In . SVG Version: 6.00 Build 0)  -->
<svg version="1.1" id="Layer_1" xmlns="http://www.w3.org/2000/svg" xmlns:xlink="http://www.w3.org/1999/xlink" x="0px" y="0px"
	 viewBox="0 0 612.3 126" style="enable-background:new 0 0 612.3 126;" xml:space="preserve">
<style type="text/css">
	.st0{fill:#FFFFFF;}
</style>
<g>
	<path class="st0" d="M23.9,66.6h0.5c0.3,0,0.3,0.3,0.5,0.5c-1.3,25.9-2.3,44-2.5,53.8c-0.3,2-0.8,3.3-1.3,3.3h-0.3
		c-0.8,0-1.8-3-3.5-9.1c-1.8-5.5-3.5-11.1-4.8-16.6l0,0c-1,13.8-1.5,22.9-1.5,26.7l-0.5,0.3h-0.5c-0.5,0-1-2-1.5-6
		C6,107.1,3.3,91,0.8,71.4c-0.3-0.8-0.5-1.8-0.8-2.5c0-0.3,0.3-0.5,0.8-0.8h0.8c0.5,0,1.3,3.5,2,10.3c2.3,14.3,3.5,23.4,4.3,27.2
		l1.8,9.8h0.3c1-15.8,1.5-24.1,2-24.9l0.8-0.3c0.5,0,1.3,2.3,1.5,7c0.5,3,2,8.5,4.8,16.6l1.5,5.8l0.3-0.3c0.8-21.4,1.5-39,2.5-52.3
		L23.9,66.6z"/>
	<path class="st0" d="M40.7,64.6H41c0.8,0,1.3,3.3,1.3,9.6v2.3c0,2.3-0.3,8.3-1,18.1c0,0.5,0,1,0.3,1.5c-0.3,6.3-0.3,11.3-0.3,14.8
		v11.6c0,0.5,0.3,1.3,0.3,1.8c-0.3,0.8-0.5,1.3-0.8,1.3h-0.5c-0.5,0-0.8-1.5-0.8-4.8c0-20.6,0.3-34.9,1-42.7v-5c0-2.5-0.3-5-0.5-7.5
		C40,65.1,40.2,64.9,40.7,64.6z"/>
	<path class="st0" d="M57.6,61.1L57.6,61.1c0.3,0,0.5,0.3,1,0.8c0.3,0.5,0,1-0.3,1l0.3,0.3c0.8,13.1,1.3,24.1,1.3,33.2
		c0.5,4,0.5,8,0.5,12.1V124h9.8c0.3,0,0.3,0.3,0.5,0.5v0.5c0,0.5-1,0.8-3,0.8h-8.3c-0.3,0-0.5-0.3-0.8-0.8v-1c0-0.8,0-1.3,0.3-1.3
		l-0.3-2.3v-13.1c-0.5-15.8-1-28.9-1.5-39.2l-0.5-6C56.3,61.6,57.1,61.1,57.6,61.1z"/>
	<path class="st0" d="M81.7,61.4L81.7,61.4c4.8,1.5,8.5,4.8,11.1,9.1c3.8,7.5,5.8,15.6,5.8,24.1v0.8c0.3,11.1-4.3,21.6-12.8,28.7
		c-0.8,0.3-1.5,0.5-2.3,0.5c-0.3,0-0.5-1-0.8-2.8l0.3-0.3c-0.5-3.8-0.8-7.8-0.8-11.6h0.3l-0.3-0.3v-0.5c0-4.8,0-9.1,0.3-12.8
		L81.7,61.4z M83.5,63.9L83.5,63.9c0.3,13.6,0.3,24.4,0.8,32.2c0,3.3-0.3,6.5-0.3,9.8v2.3c0,4.5,0.3,9.3,0.8,14.3
		c3-2.8,5.5-5.8,7.5-9.3c2.5-5.3,4-11.3,4-17.1v-2c0-8-2-15.8-5.5-22.9C89.3,68.1,86.7,65.6,83.5,63.9L83.5,63.9z"/>
	<path class="st0" d="M134.3,64.9c4.8,0.3,8.5,0.3,10.8,0.3l0.3,0.5c0,0.8-0.3,1.3-1,1.3c-3,0-6.5-0.3-10.3-0.3l1,22.4v0.3l0.3,2.3
		c1.8-0.3,3.5-0.3,5.3-0.3h4.8c0.3,0,0.5,0.3,0.5,1l-1,0.8h-5c-3,0-4.5,0.3-4.5,0.8v2c0,1.8,0,8.8,0.3,21.6v1.8l0.3,1
		c0,0,0,0.3-0.3,0.3l0,0l0.3,1.8v2c0,0.3-0.3,0.3-0.5,0.5h-0.5c-0.3,0-0.5-0.3-0.8-0.8c-0.5-25.1-0.8-37.7-1-37.7h0.3L133,86
		c-0.5-9.3-0.8-16.3-0.8-20.6C133,64.9,133.8,64.6,134.3,64.9z"/>
	<path class="st0" d="M164.2,63.6l0.3,0.3c0.3,0,0.3,0,0.3-0.3c3.8,0.3,5.8,0.8,5.8,1.3v0.3c-0.3,0.5-0.5,1-1,1l-5-0.5h-3.5l0.3,2.3
		c0,2,0.3,9.8,1,23.6h1.3c0.8,0,1.5,0,2.3-0.3c2.8,0.3,4.8,0.5,6,0.5l0.5,0.8V93c0,0.3-0.3,0.5-0.8,0.5c-1,0-2.8,0-5-0.3
		c-1.5,0.3-3,0.3-4,0.3V94c0,8.5,0.5,18.4,1.3,29.2c0.3,0,0.3,0,0.3,0.3c4.5-0.3,7.3-0.3,8-0.3c0.5,0,0.8,0.5,1,1l0,0
		c0,0.3-0.3,0.5-0.8,0.8c-4.5,0-7.3,0.3-8.3,0.3c-1.5,0-2.3-0.8-2.3-2.3c-0.8-11.3-1.3-20.9-1.3-28.4v-5.8c-0.5-10.6-1-17.6-1-21.4
		c-0.3-1.8-0.5-2.8-0.5-2.8l0.8-0.5h2C162.4,63.9,163.4,63.9,164.2,63.6z"/>
	<path class="st0" d="M192.6,64.9l0.5,0.8v0.3c0,0.3-0.3,0.5-1,0.8h-1.8c-2.8-0.3-5.3,1.3-6.5,3.5c-1,2.8-1.5,5.8-1.5,8.8
		c0.3,3.3,1.3,6.5,2.5,9.6c2.8,3.5,6,6.8,9.8,9.8c2.8,3.8,4.3,8,4.5,12.8c0,3.3-0.8,6.8-2.3,9.8c-1.3,2-3.3,3.3-5.5,3.8
		c-0.8,0.5-1.8,0.8-2.5,0.8c-0.5,0-1-0.3-1.3-0.8v-0.5c0-0.3,0.8-0.5,2-0.8c4-1.5,6-3,6-4.8c1.3-2.5,1.8-5.5,1.5-8.3
		c-0.3-5-2.5-9.8-6-13.3c-2.8-2-5-4.3-7-7c-1.8-2.8-2.8-6-3.3-9.3c0-0.8,0-1.5-0.3-2.3c0-3.5,0.8-7,2.3-10.3
		C184.6,66.1,187.8,64.9,192.6,64.9z"/>
	<path class="st0" d="M225.5,67.1l0.5,0.8v0.5c0,0.5-1.8,0.8-5,0.8h-5c-0.3,0-0.3,0.3-0.5,0.5l0.3,8.3c0,0.8-0.3,1.3-0.3,1.3
		c1,18.1,1.5,31.2,1.5,39c0,0.3,0.3,0.3,0.3,0.5c0,0-0.3,0.3-0.3,0.5l0.3,1c-0.3,0.5-0.3,0.8-0.5,0.8h-0.5c0,0-0.3-0.3-0.8-0.8
		c-0.3-0.5,0-0.8,0.3-1.8c0-2.5-0.5-15.3-1.5-38.7c0-3.8,0-7.3-0.3-10.3l-0.3-0.3h-0.5l-5.8,0.5c-0.3-0.5-0.5-1-0.5-1.5
		c0-0.3,0.3-0.5,0.8-0.5c0.5,0.3,1,0.3,1.5,0.3c2.3-0.3,4-0.3,4.8-0.3h7.3C222.5,67.6,224,67.4,225.5,67.1z"/>
	<path class="st0" d="M240.1,64.6h0.3c0.8,0,1.3,3.3,1.3,9.6v2.3c0,2.3-0.3,8.3-1,18.1c0,0.5,0,1,0.3,1.5c0,6.3-0.3,11.3-0.3,14.8
		v11.6c0,0.5,0.3,1.3,0.5,1.8c-0.3,0.8-0.5,1.3-0.8,1.3h-0.5c-0.5,0-0.8-1.5-0.8-4.8c0-20.6,0.3-34.9,1-42.7v-5c0-2.5-0.3-5-0.5-7.5
		C239.4,65.1,239.6,64.9,240.1,64.6z"/>
	<path class="st0" d="M270,63.9h0.8c0.3,0,0.3,0.3,0.5,0.8l-5.3,48c0,4.3-0.3,8.5-1,12.8l-0.3,0.3h-0.5c-0.5,0-1.3-3.3-2-10.3
		c-2.8-15.6-4.3-31.4-4.8-47.3l-0.5-2.3c0-0.3,0.3-0.5,0.8-0.8h0.3c1,0,1.5,4.5,1.5,14.1c1.5,17.1,3,29.7,4.3,37.5h0.3
		c0-2.5,1.8-17.9,5-46.5C269,65.9,269.5,63.9,270,63.9z"/>
	<path class="st0" d="M289.9,64.4L289.9,64.4c2.5,1.5,4,3.8,4.5,6.3c3.8,12.8,6.3,26.1,7.3,39.5c1,4.5,1.5,9.1,1.5,13.6
		c-0.3,0.5-0.5,0.5-1.3,0.5c-1-4.8-1.8-9.6-2.3-14.3c-0.3-1-0.8-4.8-1.8-11.8l-1.5-0.3c-6.5,0.5-9.8,1.3-9.8,2v7l-1.3,16.6
		c0.3,0.3,0.5,0.8,0.5,1.3c0,0.3-0.3,0.5-0.8,0.8c-1,0-1.5-0.8-1.5-2c1-12.6,1.5-20.1,1.5-22.9c-0.3-1.8-0.3-3.3-0.3-5
		c0-9.1,0.8-18.4,2.3-27.4C287.9,65.9,288.7,64.4,289.9,64.4z M289.9,66.6c-2,8.5-2.8,17.3-2.5,25.9c-0.3,1.5-0.3,3-0.3,4.3v0.5
		c3.5-1,7.3-1.5,10.8-1.5v-0.3c0-3.8-2-12.3-6-25.9C291.2,68.1,290.4,66.9,289.9,66.6z"/>
	<path class="st0" d="M318.6,61.1L318.6,61.1c0.5,0,0.8,0.3,1,0.8c0.3,0.5,0,1-0.3,1l0.3,0.3c0.8,13.1,1.3,24.1,1.3,33.2
		c0.5,4,0.5,8,0.5,12.1V124h9.8c0.3,0,0.3,0.3,0.5,0.5v0.5c0,0.5-1,0.8-3,0.8h-8.3c-0.3,0-0.5-0.3-0.8-0.8v-1c0-0.8,0-1.3,0.3-1.3
		l-0.3-2.3v-13.1c-0.5-15.8-1-28.9-1.5-39.2l-0.5-6C317.3,61.6,318.1,61.1,318.6,61.1z"/>
	<path class="st0" d="M374.9,66.6h0.3c2,0,4,1,5.3,2.5v0.3c0,0.3-0.3,0.5-0.8,0.8c-0.8-0.3-1.5-0.8-2.3-1.3
		c-0.8-0.3-1.8-0.5-2.5-0.5h-0.8c-3.5,0.8-5.3,11.1-5.3,30.7c-0.3,7.3,0.8,14.3,3.3,21.1c1,1.5,2.3,2.8,4,3.5h0.8
		c2.3-0.5,3.3-1.3,3.3-2.5c0.5,0,1-3.5,1.8-10.8v-8.8l-0.3-1c0,0-0.3,0-0.3,0.3c-4.8-0.3-7.3-0.8-7.3-1l-0.3-1v-0.3
		c0-0.3,0.3-0.3,0.5-0.5h0.5c2.5,0.8,5,1,7.5,1c0.5,1,0.8,2.3,0.8,3.5v4.5c0,1,0,2-0.3,2.8c0,0.3,0.3,0.3,0.3,0.5
		c-0.8,9.6-2.3,14.1-4,14.1c0,0.3-1,0.5-2.8,1h-0.8c-2-0.5-3.8-1.8-5-3.3c-2.5-5-4-12.8-4-23.1c0-19.6,2-30.4,6-32.2L374.9,66.6z"/>
	<path class="st0" d="M398.8,59.3h0.3c1,0.8,2,1,3.3,1c2.3,1,4.3,2.8,5.5,5c1.8,3.5,2.8,7,3,11.1v1.8c0,7.8-2.3,13.6-6.8,17.1
		c5.3,1.3,8.3,7.5,9.1,18.6v6.8c0,1,0,2.5,0.3,4.5l-0.5,0.3h-0.5l-0.8-0.5c-0.3-2.3-0.3-4.3-0.3-5.3v-6.5c0-4.8-1.5-9.6-4-13.8
		c-1.3-1.5-3.3-2.3-5-2.5H402c0,2.5,0.3,4.5,0.3,5.8v6.8c0.3,6,0.3,9.3,0.3,10.1v0.3c-0.3,0.5-0.5,0.8-1,0.8c-0.3,0-0.5-0.3-1-0.8
		l0.3-1.3c-0.3-5-0.5-8.3-0.5-10.1V97.6c-0.5,0-1-0.3-1-0.8v-0.3c0.3-0.5,0.5-0.8,1-0.8c-0.5-16.3-1.3-28.4-2.3-35.7L398.8,59.3z
		 M400.3,61.9c0.8,8.8,1.3,19.6,2,32.4c4.8-3.3,7-8.3,7-15.3v-2.5c-0.3-4.3-1.8-8.3-4-12.1c-1.3-1.3-2.8-2.3-4.5-2.5L400.3,61.9z"/>
	<path class="st0" d="M433,64.1c3.5,0,6,8,8,24.1c0.3,1.5,0.3,3.5,0.3,6V95c0,0.5,0,1-0.3,1.5c0.3,0.5,0.3,0.8,0.3,1.3v0.3
		c0,0.5,0,0.8-0.3,1.3c0,0.3,0.3,0.8,0.3,1c0,12.6-1.8,20.4-5,23.4c-0.8,0.3-1.8,0.5-2.5,0.8h-1.3c-4.3-1-7-6.5-8-16.6l-0.5-7.3
		c0-16.8,2-28.4,6.3-34.9C430.7,64.6,431.7,64.1,433,64.1z M425.2,99.8c-0.3,6,0.8,12.1,2.8,17.9c1.8,3.3,3.3,5,4.5,5h0.3
		c2.5,0,4-1.8,4.8-5c1.3-3,2-9.8,2-19.9V94c-0.3-8.3-1.5-16.3-3.8-24.1c-0.5-1.5-1.5-2.8-2.8-4c-1,0.3-2,1-2.5,2
		C426.9,74.9,425.4,85.5,425.2,99.8L425.2,99.8z"/>
	<path class="st0" d="M453.8,63.6c0.8,0,3.3,8,8,24.4c0.8,3.8,3.5,13.6,8.8,29.2h0.5v-1.5c-0.8-14.6-1-22.6-1-24.4
		c0-0.5,0-2.3,0.3-5.5c0-0.3,0-1,0-2c0.3-2.3,0.3-4.3,0.3-5.5V65.4c0-0.8,0.5-1,1-1l1,0.5c-0.3,6.8-0.5,11.8-0.5,15.3v5
		c0,10.3,0.3,23.9,1,40.2l-1,0.5c-0.8,0-5-13.3-12.8-39.7l-4.8-16.3l-0.3-0.5v1c0.3,2.5,0.3,4.5,0.3,6v1.5
		c-0.3,6.5-0.3,11.3-0.3,13.8c0,11.1,0.5,22.1,1.5,33.2h-1c-0.5,0-1-0.3-1-0.8V124c-0.8-10.3-1-19.9-1-28.2V64.9
		C452.8,64.1,453.1,63.6,453.8,63.6z"/>
	<path class="st0" d="M487.3,64.6h0.3c0.8,0,1.3,3.3,1.3,9.6v2.3c0,2.3-0.3,8.3-1,18.1c0,0.5,0,1,0.3,1.5
		c-0.3,6.3-0.3,11.3-0.3,14.8v11.6c0,0.5,0.3,1.3,0.3,1.8c-0.3,0.8-0.5,1.3-0.8,1.3h-0.8c-0.5,0-0.8-1.5-0.8-4.8
		c0-20.6,0.3-34.9,1-42.7v-5c0-2.5-0.3-5-0.5-7.5C486.5,65.1,486.8,64.9,487.3,64.6z"/>
	<path class="st0" d="M503.4,63.6c0.8,0,3.3,8,8,24.4c0.8,3.8,3.5,13.6,8.8,29.2h0.5v-1.5c-0.8-14.6-1-22.6-1-24.4
		c0-0.5,0-2.3,0.3-5.5c0-0.8,0-1.5,0-2c0.3-2.3,0.3-4.3,0.3-5.5V65.4c0-0.8,0.5-1,1-1l1,0.5c-0.3,6.8-0.5,11.8-0.5,15.3v5
		c0,10.3,0.3,23.9,1,40.2l-1,0.5c-0.8,0-5-13.3-12.8-39.7l-4.8-16.3l-0.3-0.5v1c0.3,2.5,0.3,4.5,0.3,6v1.5
		c-0.3,6.5-0.3,11.3-0.3,13.8c0,11.1,0.5,22.1,1.5,33.2h-1c-0.5,0-1-0.3-1-0.8V124c-0.8-10.3-1-19.9-1-28.2V64.9
		C502.6,64.1,502.9,63.6,503.4,63.6z"/>
	<path class="st0" d="M542.6,66.6h0.3c2,0,4,1,5.3,2.5v0.3c0,0.3-0.3,0.5-0.8,0.8c-0.8-0.3-1.5-0.8-2.3-1.3
		c-0.8-0.3-1.8-0.5-2.5-0.5h-0.8c-3.5,0.8-5.3,11.1-5.3,30.7c-0.3,7.3,0.8,14.3,3.3,21.1c1,1.5,2.3,2.8,4,3.5h0.8
		c2.3-0.5,3.3-1.3,3.3-2.5c0.5,0,1-3.5,1.8-10.8v-8.8l-0.3-1c-0.3,0-0.3,0-0.3,0.3c-4.8-0.3-7-0.8-7-1l-0.3-1v-0.3
		c0-0.3,0.3-0.3,0.5-0.5h0.8c2.5,0.8,5,1,7.5,1c0.5,1,0.8,2.3,0.8,3.5v4.5c0,1,0,2-0.3,2.8c0,0.3,0.3,0.3,0.3,0.5
		c-0.8,9.6-2.3,14.1-4,14.1c0,0.3-1,0.5-2.8,1h-0.8c-2-0.5-3.8-1.8-5-3.3c-2.5-5-4-12.8-4-23.1c0-19.6,2-30.4,6-32.2L542.6,66.6z"/>
	<path class="st0" d="M573.3,63.6l0.3,0.3h0.3l0,0c3.8,0.3,5.8,0.8,5.8,1.3v0.3c-0.3,0.5-0.5,1-1,1l-5-0.5l-3.5,0.3l0.3,2.3
		c0,2,0.3,9.8,1,23.6h1.3c0.8,0,1.5,0,2.3-0.3c2.8,0.3,4.8,0.5,6,0.5l0.5,0.8v0.5c0,0.3-0.3,0.5-0.8,0.5c-1,0-2.8,0-5-0.3
		c-1.5,0.3-3,0.3-4,0.3l0,0c0,8.5,0.5,18.1,1.3,29.2c0.3,0,0.3,0,0.3,0.3c4.5-0.3,7.3-0.3,8-0.3c0.5,0,0.8,0.5,1,1l0,0
		c0,0.3-0.3,0.5-0.8,0.8c-4.5,0-7.3,0.3-8.3,0.3c-1.5,0-2.3-0.8-2.3-2.3c-0.8-11.3-1.3-20.9-1.3-28.4v-5.8c-0.5-10.6-1-17.6-1-21.4
		c-0.3-1.8-0.5-2.8-0.5-2.8l0.8-0.5h2C571,63.9,572,63.9,573.3,63.6z"/>
	<path class="st0" d="M592.6,63.6c0.8,0,3.3,8,8,24.4c0.8,3.8,3.5,13.6,8.8,29.2h0.5v-1.5c-0.8-14.6-1-22.6-1-24.4
		c0-0.5,0-2.3,0.3-5.5c0-0.3,0-1,0-2c0.3-1.8,0.3-3.8,0.5-5.5V65.4c0-0.8,0.5-1,1-1l1,0.5c-0.3,6.8-0.5,11.8-0.5,15.3v5
		c0,10.3,0.3,23.9,1,40.2l-1,0.5c-0.8,0-5-13.3-12.8-39.7l-4.8-16.3l-0.3-0.5v1c0.3,2.5,0.3,4.5,0.3,6v1.5
		c-0.3,6.5-0.3,11.3-0.3,13.8c0,11.1,0.5,22.1,1.5,33.2h-1c-0.5,0-1-0.3-1-0.8V124c-0.8-10.3-1-19.9-1-28.2V64.9
		C591.9,64.1,592.1,63.6,592.6,63.6z"/>
	<path class="st0" d="M252.7,22.9c0.5,1.8,1,3.5,1.8,5c1,1.5,2.3,3,3.8,4c-2.8-6.5-4-13.6-3.8-20.9c0.3-3.5,0.5-7,1.3-10.6
		c0.5,6.5-0.3,13.1,2.3,19.9l1.3-6.8h0.8c-0.5,7.3-0.5,14.3,5.8,20.4c-0.3-3.8-0.3-7.5,0-11.3c0.8-3.5,2-6.8,3.8-9.8
		c-1.3,7.3-3.5,14.6,1,21.1c3.5,4.8,8.3,8.5,13.8,11.1l0.8-0.5l-2.8-6.5l0.3-0.3c1.5,1.5,2.8,3,3.8,4.5c1.5,2.8,3.8,4.8,6.3,6.3
		c1.8,0.8,2.3,2.3,0.8,3.8c-0.5,0.5-1.5,0.8-2.3,0.5c-5.5-3-11.1-5.8-16.3-9.1c-3-2.3-6.8-3.3-10.6-3.3c-4.5,0.3-8.8-1.3-12.1-4.3
		c3.8,0.8,7.3,3,11.3,0.5c-8.8-0.8-10.8-6.5-11.8-13.6L252.7,22.9z"/>
	<path class="st0" d="M355.3,0c2.8,10.6,0.5,20.6-3,30.9c4-2,4-6.3,6-9.3c0.3,5.8-2.8,11.3-7.8,14.1c-3,1.5-5.8,3-8.3,5
		c-4.8,3.8-10.3,6.8-16.3,8.5c-2,0.5-4,1.3-5.8,2c-2.3,1-3.3-0.3-3.8-1.8c-0.3-0.5,1.3-1.5,2-2.3c1-0.5,2-1,3-1.3
		c4.3-1.3,7.8-4.3,9.6-8.3c0.3-0.8,1-1.5,1.8-2l-2.8,8.3c1.3-0.5,2.3-1,3.3-1.5c3.5-2.3,6.3-6,7.5-10.1c0.3-1.5,0-2.8-0.5-4.3
		c-1.3-2.8-2-5.5-2.8-8.5l4,6.5c2.5-2.5,3.3-6.3,2.3-9.6c2.5,4.8,1,10.3,1.5,15.3c5.8-5.3,5.8-12.3,6.3-19.4l1.3,6.3
		C354.3,13.1,355.3,6.5,355.3,0z"/>
</g>
</svg>
