<svg xmlns="http://www.w3.org/2000/svg" width="300" height="59.04" viewBox="0 0 300 59.04"><path d="M124.93,11.22a12.47,12.47,0,0,0,.78,2.4,6.75,6.75,0,0,0,1.79,1.9,25,25,0,0,1-1.82-9.81,30.59,30.59,0,0,1,.63-5c.23,3.06-.1,6.18,1,9.3L128,6.82h.31c-.19,3.42-.2,6.79,2.66,9.6a33.62,33.62,0,0,1,0-5.31,16.67,16.67,0,0,1,1.77-4.56c-.61,3.4-1.61,6.81.5,10a16.91,16.91,0,0,0,6.47,5.2l.32-.2-1.26-3.05.12-.12a17.07,17.07,0,0,1,1.79,2.11,6.82,6.82,0,0,0,3,2.93c.88.39,1,1,.4,1.72a1.23,1.23,0,0,1-1,.29c-2.58-1.38-5.18-2.75-7.66-4.29a8.43,8.43,0,0,0-4.92-1.55,7.94,7.94,0,0,1-5.74-2.05c1.8.36,3.4,1.43,5.3.29-4.12-.34-5.12-3.13-5.57-6.35Z" transform="translate(0.28 -0.48)"/><path d="M173.23.48c1.31,4.95.21,9.67-1.48,14.51,1.84-1,1.85-2.9,2.87-4.33a7.38,7.38,0,0,1-3.68,6.65,21.56,21.56,0,0,0-3.92,2.4,23.58,23.58,0,0,1-7.64,4,24.41,24.41,0,0,0-2.75,1c-1,.48-1.51-.12-1.77-.86-.08-.21.55-.77.94-1a6.49,6.49,0,0,1,1.47-.6,7.28,7.28,0,0,0,4.5-3.86,1.88,1.88,0,0,1,.85-.91l-1.26,3.87a14.9,14.9,0,0,0,1.56-.75,8.57,8.57,0,0,0,3.5-4.73,3.47,3.47,0,0,0-.28-2,26.6,26.6,0,0,1-1.31-4l1.83,3a4.53,4.53,0,0,0,1.06-4.48c1.2,2.3.49,4.8.77,7.2,2.75-2.52,2.69-5.82,2.9-9.14l.6,3A38.76,38.76,0,0,0,173.23.48Z" transform="translate(0.28 -0.48)"/><path d="M11,31.55h.43a.86.86,0,0,1,.76.59q-.9,18-1.15,24.77c-.22,1.23-.58,1.85-1.09,1.85H9.77q-.84,0-2.06-4.44C6.28,49.67,5.56,47.24,5.56,47h.92q-.63,9.15-.64,12l-.57.4H4.84c-.54,0-.93-1.06-1.17-3.17Q1.86,47.76.11,34.59a10.89,10.89,0,0,1-.39-1.52c0-.25.23-.51.68-.78H.89c.56,0,1,1.68,1.42,5.05q1.49,9.72,2,12.4L5,53.83H4.18c.44-7,.77-10.79,1-11.37l.76-.14c.63,0,1.07,1.19,1.31,3.57q.39,1.95,2.12,7.61l.59,2-.69.35q.48-14.53,1.17-24Z" transform="translate(0.28 -0.48)"/><path d="M19.57,30.64h.33c.73,0,1.09,1.59,1.09,4.77v1.07c0,1.08-.16,3.86-.49,8.32a2.26,2.26,0,0,0,.08.6c-.06,2.89-.08,5.18-.08,6.86v5.35a5.51,5.51,0,0,0,.16.8c-.11.67-.39,1-.84,1h-.33q-.84,0-.84-2.64,0-14.28.49-19.66V34.84a21.19,21.19,0,0,0-.25-3.44C18.89,31.17,19.12,30.92,19.57,30.64Z" transform="translate(0.28 -0.48)"/><path d="M28.31,29.08h.08c.3,0,.58.21.84.64,0,.61,0,.92.08.92l-.16-.33q.57,9,.57,15.19A46.35,46.35,0,0,1,30,51v6.74H33.9a.87.87,0,0,1,.76.58v.33c0,.49-.64.74-1.92.74H29c-.28,0-.57-.22-.84-.64v-.6a4.23,4.23,0,0,1,0-1l0-.56v-6q-.33-10.82-.66-18l-.24-2.78A1,1,0,0,1,28.31,29.08Z" transform="translate(0.28 -0.48)"/><path d="M39.59,29.16h.7a9.36,9.36,0,0,1,5.4,4.46,25,25,0,0,1,2.67,11.16v.41A17.14,17.14,0,0,1,42.3,58.7,5.31,5.31,0,0,1,41,59c-.47,0-.76-.59-.87-1.78l.09-.17c-.16-1.2-.26-3.1-.33-5.69h-.15l.17.33v-.17c0-2.16,0-4.13.08-5.92Zm1.95,2.26v-.53c.06,6.18.16,11.06.33,14.63-.06,1.47-.08,3-.08,4.52v1c0,2.07.07,3.94.22,5.61a15.64,15.64,0,0,0,2.63-3.47,18.69,18.69,0,0,0,1.87-7.73v-.82A24,24,0,0,0,44,34.26C42.86,32.53,42,31.59,41.54,31.42Z" transform="translate(0.28 -0.48)"/><path d="M66,30.7c2.23.11,4,.17,5.22.17l.37.55c0,.73-.35,1.09-1,1.09-1.41,0-2.79-.08-4.13-.08l.39,9.87v.06l0,.53a15.29,15.29,0,0,1,2-.1H71q.61,0,.78,1.05l-.74.59H68.54A5.35,5.35,0,0,1,67,44.35v.9q0,1.2.17,9.87V56l.08.5c0,.34,0,.51,0,.51l0,.39v.93c0,.22-.21.44-.62.65h-.39q-.45,0-.84-.63l-.31-17-.35-.82.17.33q-.33-6.52-.33-9.72A2.38,2.38,0,0,1,66,30.7Z" transform="translate(0.28 -0.48)"/><path d="M80.69,30.23l.18.1q-.57,0-.57-.12c2.44.22,3.66.56,3.66,1v.14a1,1,0,0,1-1,.76l-2.38-.24-1,.06,0,.57c0,.91.13,4.39.39,10.46h.08a5.19,5.19,0,0,0,1-.08c1.29.11,2.3.17,3,.17l.47.63v.35q0,.66-.84.66c-.49,0-1.29,0-2.38-.16-.73,0-1.19.08-1.38.08v-.08q0,5.79.56,13c.06,0,.1,0,.1.06,1.71-.1,2.81-.15,3.29-.15a1.5,1.5,0,0,1,.9.74v.17c0,.22-.22.46-.66.74-2.17,0-3.48.11-3.92.16-1,0-1.54-.48-1.54-1.46q-.58-7.85-.58-13.09V42.09q-.41-7.23-.41-9.74a12.56,12.56,0,0,1-.25-1.54l.64-.48h1.11C79.55,30.33,80,30.3,80.69,30.23Z" transform="translate(0.28 -0.48)"/><path d="M94.71,30.83l.47.59v.27c0,.19-.25.46-.74.8h-1A2.48,2.48,0,0,0,91,33.83a11.2,11.2,0,0,0-.63,3.86A14,14,0,0,0,91.46,42a31.42,31.42,0,0,0,4.35,4.35A10.59,10.59,0,0,1,98,52.39,11.07,11.07,0,0,1,97,57a4.43,4.43,0,0,1-2.72,2,3.14,3.14,0,0,1-1.39.44,1.09,1.09,0,0,1-1.09-.66v-.29c0-.4.42-.64,1.27-.72q2.34-.89,2.34-1.83a8.31,8.31,0,0,0,.74-3.76,8.5,8.5,0,0,0-2.67-5.82,15.43,15.43,0,0,1-3.33-3.26c-.53-.58-1.05-2-1.56-4.42a10.13,10.13,0,0,0-.08-1.09,11,11,0,0,1,1-4.87Q90.8,30.82,94.71,30.83Z" transform="translate(0.28 -0.48)"/><path d="M110.59,31.79l.54.62v.33c0,.51-.94.76-2.82.76H106q.24,0,.27-.06l.16,3.72c-.06.34-.08.53-.08.55q.73,12.43.74,17.74a.87.87,0,0,1,.08.41c-.06.08-.08.11-.08.08l.1.56c-.19.44-.45.65-.78.65h-.33q-.34,0-.84-.57a7.13,7.13,0,0,1,.08-.93q0-1.74-.74-17.73c0-1.73,0-3.24-.14-4.52l.18.1h-.08l-2.88.25a1.68,1.68,0,0,1-.53-1.07c0-.24.26-.48.78-.74l.7.18c1-.09,1.8-.14,2.24-.14h3.37A16.74,16.74,0,0,0,110.59,31.79Z" transform="translate(0.28 -0.48)"/><path d="M117.68,30.64H118c.73,0,1.09,1.59,1.09,4.77v1.07c0,1.08-.17,3.86-.5,8.32a2.3,2.3,0,0,0,.09.6q-.09,4.34-.09,6.86v5.35a6.37,6.37,0,0,0,.17.8c-.11.67-.39,1-.84,1h-.33q-.84,0-.84-2.64,0-14.28.49-19.66V34.84A21.19,21.19,0,0,0,117,31.4C117,31.17,117.23,30.92,117.68,30.64Z" transform="translate(0.28 -0.48)"/><path d="M132.33,30.31h.33c.34,0,.6.24.76.7L131,53.11q-.33,6.22-.87,6.22l-.16.09h-.39q-.87,0-1.42-5.06A146.53,146.53,0,0,1,126,32.66l-.24-1.07c0-.25.22-.51.67-.78h.33q1.26,0,1.26,6.8,1,11.73,1.91,16.79H129q0-1.29,2.31-20.9C131.45,31.38,131.78,30.31,132.33,30.31Z" transform="translate(0.28 -0.48)"/><path d="M142.28,30.54h.21a5.14,5.14,0,0,1,2.36,3.21,89,89,0,0,1,3.39,18.12,32.74,32.74,0,0,1,.72,6.37c-.17.41-.64.62-1.42.62-.33-.63-.71-2.93-1.15-6.88q-.18-.65-.78-5.16l-.19,0a23.53,23.53,0,0,0-3.9.49V50.5L141,58a1,1,0,0,1,.19.61c0,.24-.24.5-.72.79-.93,0-1.4-.45-1.4-1.34q.65-8.67.64-10.4c-.06-.75-.08-1.52-.08-2.3a92.86,92.86,0,0,1,1-12.58C140.89,31.29,141.46,30.54,142.28,30.54Zm.37,2.12a49.25,49.25,0,0,0-1.05,11.69,6.14,6.14,0,0,0-.08,1.58v-.31a14.73,14.73,0,0,1,4-.55v.31q0-2.48-2.72-11.78C142.43,32.86,142.39,32.55,142.65,32.66Z" transform="translate(0.28 -0.48)"/><path d="M156.29,29.08h.09c.3,0,.58.21.84.64,0,.61,0,.92.08.92l-.16-.33q.57,9,.57,15.19A46.35,46.35,0,0,1,158,51v6.74h3.92a.87.87,0,0,1,.77.58v.33c0,.49-.64.74-1.92.74H157c-.29,0-.57-.22-.84-.64v-.6a4.23,4.23,0,0,1,0-1l0-.56v-6q-.33-10.82-.66-18l-.24-2.78A1,1,0,0,1,156.29,29.08Z" transform="translate(0.28 -0.48)"/><path d="M183.73,31.63h.18a3.59,3.59,0,0,1,3,1.44v.29c0,.21-.22.46-.67.74a3.35,3.35,0,0,1-1.52-.64,2,2,0,0,0-.87-.19h-.24q-2,.49-2,13.65,0,6.28,1.46,9.56a2.65,2.65,0,0,0,1.52,1.29h.15a1.14,1.14,0,0,0,1-1.23c.22,0,.5-1.52.82-4.54V48q.87,0,.87.12c-2.88-.22-4.32-.53-4.32-.92l-.08-.41v-.11c0-.23.21-.45.62-.66h.59a14.19,14.19,0,0,0,3.6.52,2.7,2.7,0,0,1,.57,1.95v2.06a10.69,10.69,0,0,1-.08,1.25.62.62,0,0,1,.08.33Q187.78,59,186.48,59a6.58,6.58,0,0,1-1.68.42h-.45a5.08,5.08,0,0,1-2.78-1.79q-1.86-3.54-1.87-10.79,0-13.8,3.06-15.11Z" transform="translate(0.28 -0.48)"/><path d="M195.4,28.26h.66a2.3,2.3,0,0,0,1.36.51,5.75,5.75,0,0,1,2.85,2.55,15.39,15.39,0,0,1,1.44,5.16v.82q0,5.55-2.65,7.63,3.12.74,3.72,8.71v3.14c0,.47,0,1.22.1,2.24l-.59.4h-.64l-.61-.48c-.07-1.22-.11-2.1-.11-2.65v-3a12,12,0,0,0-1.81-6.1,3.07,3.07,0,0,0-1.87-1h.46q.06,1.35.06,2.22v3.12c.11,2.72.16,4.25.16,4.61v.24a1.06,1.06,0,0,1-1,.66c-.26,0-.57-.21-.94-.64l.1-.69c-.11-2.31-.16-3.83-.16-4.59V46.59c-.14,0-.3-.23-.5-.68v-.39a2.26,2.26,0,0,1,.39-.66q-.39-10.84-1.06-16.11Zm1.42,2q.45,5.56.82,13.61,2.22-1.5,2.22-6.13V36.56a11.89,11.89,0,0,0-1.72-5.28c-.77-.7-1.31-1.05-1.63-1.05Z" transform="translate(0.28 -0.48)"/><path d="M212.05,30.4q2.79,0,4.21,11.46c.06.73.08,1.65.08,2.76V45a3.49,3.49,0,0,1-.06.65,1.87,1.87,0,0,1,.06.66v.08a1.79,1.79,0,0,1-.06.66,3.45,3.45,0,0,1,.06.41q0,8.84-2.59,11a4.94,4.94,0,0,1-1.45.41h-.66q-3.36-.8-4.13-8l-.25-3.37q0-11.67,3-16.29A3.07,3.07,0,0,1,212.05,30.4Zm-2.94,16.77a24,24,0,0,0,1.21,8c.67,1.34,1.19,2,1.56,2H212c.82,0,1.37-.67,1.64-2,.59-1.4.88-4.4.88-9V44.54a42,42,0,0,0-1.7-11,4.51,4.51,0,0,0-.82-1.42.87.87,0,0,0-.58.54Q209.11,37.49,209.11,47.17Z" transform="translate(0.28 -0.48)"/><path d="M222.45,30.21q.86,0,4.23,11.55.48,2.63,3.87,13h-.68v-.29c-.32-6.66-.47-10.4-.47-11.22,0-.25,0-1.08.1-2.51,0-.15,0-.48,0-1,.11-1.09.16-1.94.16-2.57V31.3c.07-.58.44-.86,1.11-.86l.86.45q-.24,4.88-.24,7.21v2.33q0,7.14.45,18.68l-.82.41q-1,0-6.48-18.54l-2.15-7.36.76,1.24.06-1.2c.09,1.14.14,2.05.14,2.72l0,.7q-.16,4.56-.16,6.39a137.15,137.15,0,0,0,.74,15.58h-1c-.64,0-1-.29-1-.87q-.47-7.17-.47-12.84V31.07A.92.92,0,0,1,222.45,30.21Z" transform="translate(0.28 -0.48)"/><path d="M238.54,30.64h.33c.72,0,1.09,1.59,1.09,4.77v1.07c0,1.08-.17,3.86-.5,8.32a2.3,2.3,0,0,0,.09.6q-.09,4.34-.09,6.86v5.35a6.37,6.37,0,0,0,.17.8c-.11.67-.39,1-.84,1h-.33c-.56,0-.85-.88-.85-2.64q0-14.28.5-19.66V34.84a21.19,21.19,0,0,0-.25-3.44C237.86,31.17,238.09,30.92,238.54,30.64Z" transform="translate(0.28 -0.48)"/><path d="M246.9,30.21q.87,0,4.24,11.55.47,2.63,3.86,13h-.68v-.29q-.47-10-.47-11.22c0-.25,0-1.08.1-2.51,0-.15,0-.48,0-1,.11-1.09.17-1.94.17-2.57V31.3c.06-.58.43-.86,1.11-.86l.86.45c-.16,3.25-.25,5.65-.25,7.21v2.33q0,7.14.46,18.68l-.83.41q-1,0-6.47-18.54l-2.16-7.36.76,1.24.06-1.2c.1,1.14.15,2.05.15,2.72l0,.7q-.17,4.56-.17,6.39a139.52,139.52,0,0,0,.74,15.58h-1c-.65,0-1-.29-1-.87q-.48-7.17-.47-12.84V31.07A.91.91,0,0,1,246.9,30.21Z" transform="translate(0.28 -0.48)"/><path d="M265.67,31.63h.18a3.6,3.6,0,0,1,3,1.44v.29c0,.21-.23.46-.68.74a3.4,3.4,0,0,1-1.52-.64,1.91,1.91,0,0,0-.86-.19h-.25q-2,.49-2,13.65c0,4.19.48,7.38,1.46,9.56a2.62,2.62,0,0,0,1.52,1.29h.14a1.14,1.14,0,0,0,1-1.23c.22,0,.49-1.52.82-4.54V48c.58,0,.86,0,.86.12-2.87-.22-4.31-.53-4.31-.92l-.08-.41v-.11c0-.23.2-.45.61-.66h.6a14.19,14.19,0,0,0,3.6.52,2.7,2.7,0,0,1,.57,1.95v2.06c0,.33,0,.74-.08,1.25a.73.73,0,0,1,.08.33q-.6,6.89-1.89,6.88a6.6,6.6,0,0,1-1.69.42h-.45a5.05,5.05,0,0,1-2.77-1.79q-1.87-3.54-1.87-10.79,0-13.8,3.06-15.11Z" transform="translate(0.28 -0.48)"/><path d="M280.71,30.23l.18.1q-.57,0-.57-.12c2.44.22,3.66.56,3.66,1v.14a1,1,0,0,1-1,.76l-2.38-.24-1.05.06,0,.57c0,.91.13,4.39.39,10.46h.08a5.19,5.19,0,0,0,1-.08c1.29.11,2.3.17,3,.17l.48.63v.35c0,.44-.29.66-.85.66s-1.29,0-2.38-.16c-.73,0-1.19.08-1.38.08v-.08q0,5.79.56,13c.06,0,.1,0,.1.06,1.71-.1,2.81-.15,3.29-.15a1.5,1.5,0,0,1,.9.74v.17c0,.22-.22.46-.66.74-2.17,0-3.48.11-3.92.16-1,0-1.54-.48-1.54-1.46q-.58-7.85-.58-13.09V42.09q-.4-7.23-.41-9.74a12.56,12.56,0,0,1-.25-1.54l.64-.48h1.11C279.57,30.33,280.05,30.3,280.71,30.23Z" transform="translate(0.28 -0.48)"/><path d="M290.35,30.21q.86,0,4.23,11.55.48,2.63,3.86,13h-.67v-.29q-.48-10-.48-11.22c0-.25,0-1.08.11-2.51,0-.15,0-.48,0-1,.11-1.09.16-1.94.16-2.57V31.3c.07-.58.44-.86,1.11-.86l.86.45q-.24,4.88-.24,7.21v2.33q0,7.14.45,18.68l-.82.41q-1,0-6.48-18.54l-2.15-7.36.76,1.24.06-1.2c.09,1.14.14,2.05.14,2.72l0,.7q-.17,4.56-.16,6.39a137.15,137.15,0,0,0,.74,15.58h-1c-.64,0-1-.29-1-.87q-.46-7.17-.47-12.84V31.07A.92.92,0,0,1,290.35,30.21Z" transform="translate(0.28 -0.48)"/></svg>
