<svg xmlns="http://www.w3.org/2000/svg" width="80.02" height="96.62" viewBox="0 0 80.02 96.62"><path d="M68.3,11.7A40,40,0,0,0,11.7,68.3L40,96.6,68.3,68.3A40.08,40.08,0,0,0,68.3,11.7Z" transform="translate(0.02 0.02)" fill="#303030"/><path d="M23.73,27h6.32V24.28H23.73V22.19h6.81v-2.8H19.67V32.52H30.74v-3h-7Zm16.55.42-2.06-8H32.88v13.1h3.33v-10l2.55,10h3l2.56-10v10h3.33V19.39H42.32Zm14.36,2.17c.28-.28.57-.55.87-.8s.74-.56,1.47-1.07a9.75,9.75,0,0,0,2.56-2.4A4.17,4.17,0,0,0,60.25,23a3.58,3.58,0,0,0-.62-2A3.64,3.64,0,0,0,58,19.6a8.25,8.25,0,0,0-3-.44,7.31,7.31,0,0,0-2.89.46A3.69,3.69,0,0,0,50.44,21a6,6,0,0,0-.79,2.4l3.66.3a2.66,2.66,0,0,1,.6-1.55,1.52,1.52,0,0,1,1.14-.44,1.48,1.48,0,0,1,1.11.43,1.32,1.32,0,0,1,.45,1,2.05,2.05,0,0,1-.45,1.18,11.1,11.1,0,0,1-2,1.81,15.09,15.09,0,0,0-3.58,3.37,6.75,6.75,0,0,0-1.14,3H60.33v-3ZM23.73,41.82h6.32V39.14H23.73V37.05h6.81v-2.8H19.67V47.39H30.74v-3h-7Zm16.55.42-2.06-8H32.88V47.39h3.33v-10l2.55,10h3l2.56-10v10h3.33V34.25H42.32Zm15.23,1.37c.25-.2.74-.56,1.47-1.06a9.75,9.75,0,0,0,2.56-2.4,4.19,4.19,0,0,0,.71-2.3,3.58,3.58,0,0,0-.62-2A3.66,3.66,0,0,0,58,34.47,7.86,7.86,0,0,0,55,34a7.31,7.31,0,0,0-2.89.46,3.73,3.73,0,0,0-1.62,1.32,6.07,6.07,0,0,0-.79,2.41l3.66.3a2.66,2.66,0,0,1,.6-1.55,1.51,1.51,0,0,1,1.14-.44,1.53,1.53,0,0,1,1.11.42,1.37,1.37,0,0,1,.45,1,2,2,0,0,1-.45,1.17,10.74,10.74,0,0,1-2,1.81,15.28,15.28,0,0,0-3.58,3.37,6.75,6.75,0,0,0-1.14,3.06H60.33v-3H54.64A10.76,10.76,0,0,0,55.51,43.61Z" transform="translate(0.02 0.02)" fill="#fff"/></svg>
