<svg xmlns="http://www.w3.org/2000/svg" width="35.28mm" height="9.53mm" viewBox="0 0 100 27.01"><path d="M400.36,268.36c-2.13,0-3.8,1.4-3.8,3.2v20.56c0,1.79,1.67,3.19,3.8,3.19s3.84-1.43,3.84-3.19V271.56C404.2,269.79,402.47,268.36,400.36,268.36Z" transform="translate(-370.94 -268.36)" fill="#fff"/><path d="M388.25,268.52c-2.12,0-3.78,1.4-3.78,3.19v8L378,270.05l0-.05-.11-.15a3.51,3.51,0,0,0-2.85-1.32h-.25c-2.12,0-3.79,1.4-3.79,3.19v20.48c0,1.78,1.67,3.18,3.79,3.18s3.82-1.43,3.82-3.18v-8l6.17,9.14a3.23,3.23,0,0,0,1,1.23,3.69,3.69,0,0,0,2.35.82h.2c2.12,0,3.83-1.43,3.83-3.18V271.71C392.08,270,390.37,268.52,388.25,268.52Z" transform="translate(-370.94 -268.36)" fill="#fff"/><path d="M443.39,268.67a4.93,4.93,0,0,0-1.71.31l-4.49,1.61c-1.93.69-2.83,3-2,5.22a4.3,4.3,0,0,0,3.84,3h.16v12.7c0,2.06,1.86,3.68,4.24,3.68s4.27-1.65,4.27-3.68V272.34C447.66,270.32,445.74,268.67,443.39,268.67Zm0,24.76a2.25,2.25,0,0,1-2.5-1.94v-15l-1.42.52a1.5,1.5,0,0,1-.47.08,2.6,2.6,0,0,1-2.21-1.82,2.25,2.25,0,0,1,1-3l4.5-1.62a3.25,3.25,0,0,1,1.11-.2,2.29,2.29,0,0,1,2.53,1.93v19.15A2.29,2.29,0,0,1,443.39,293.43Z" transform="translate(-370.94 -268.36)" fill="#fff"/><path d="M468.34,280.34a7.17,7.17,0,0,0,1.27-4c0-4.21-3.71-7.64-8.27-7.64s-8.26,3.43-8.26,7.64a7.15,7.15,0,0,0,1.27,4,8.55,8.55,0,0,0-2.61,6c0,4.89,4.31,8.87,9.6,8.87s9.6-4,9.6-8.87A8.54,8.54,0,0,0,468.34,280.34Zm-7,13.16c-4.33,0-7.86-3.2-7.86-7.13a6.86,6.86,0,0,1,2.6-5.25l.68-.56-.57-.67a5.5,5.5,0,0,1-1.37-3.58c0-3.25,2.93-5.9,6.52-5.9s6.53,2.65,6.53,5.9a5.5,5.5,0,0,1-1.37,3.58l-.57.67.68.56a6.74,6.74,0,0,1,2.6,5.25C469.21,290.3,465.68,293.5,461.34,293.5Z" transform="translate(-370.94 -268.36)" fill="#fff"/><path d="M417,284a2.78,2.78,0,0,1-.94-1.92,2.73,2.73,0,0,1,1.09-2.24l2-2.08,1.33-1.44L415,270.47a3.89,3.89,0,0,0-3-1.62,4.34,4.34,0,0,0-2.83,1.24,3.54,3.54,0,0,0,0,5.32l6.15,6.61-6.18,6.69a3.69,3.69,0,0,0,.22,5.38,3.52,3.52,0,0,0,2.42,1,4.67,4.67,0,0,0,3.1-1.4l5.51-5.95Z" transform="translate(-370.94 -268.36)" fill="#fff"/><path d="M432,269.93l0,0a4.47,4.47,0,0,0-2.91-1.23,4,4,0,0,0-3.09,1.64l-6.9,7.44-2,2.08a2.73,2.73,0,0,0-1.09,2.24A2.78,2.78,0,0,0,417,284l9.1,9.82a4.83,4.83,0,0,0,3.22,1.45,3.71,3.71,0,0,0,2.55-1,3.86,3.86,0,0,0,.21-5.64L426,282l6-6.46A3.75,3.75,0,0,0,432,269.93ZM424,282l7,7.57a2.37,2.37,0,0,1-.12,3.55,2.27,2.27,0,0,1-1.54.65,3.35,3.35,0,0,1-2.15-1L418,282.93l0,0a1.27,1.27,0,0,1-.46-.88c0-.24,0-.61.61-1.08l9-9.64,0,0a2.61,2.61,0,0,1,2-1.13A2.94,2.94,0,0,1,431,271a2.29,2.29,0,0,1-.06,3.54Z" transform="translate(-370.94 -268.36)" fill="#fff"/></svg>
